<mxfile host="Electron" modified="2023-05-28T01:50:19.998Z" agent="Mozilla/5.0 (Windows NT 10.0; Win64; x64) AppleWebKit/537.36 (KHTML, like Gecko) draw.io/21.2.8 Chrome/112.0.5615.165 Electron/24.2.0 Safari/537.36" etag="NXSVglbNEsDj2k_THnYX" version="21.2.8" type="device">
  <diagram id="6a731a19-8d31-9384-78a2-239565b7b9f0" name="Page-1">
    <mxGraphModel dx="1716" dy="1032" grid="1" gridSize="10" guides="1" tooltips="1" connect="1" arrows="1" fold="1" page="1" pageScale="1" pageWidth="1169" pageHeight="827" background="none" math="0" shadow="0">
      <root>
        <mxCell id="0" />
        <mxCell id="1" parent="0" />
        <mxCell id="xLPijeGfnM_CjZ15K6nw-2125" value="Stage Zone" style="rounded=1;whiteSpace=wrap;html=1;horizontal=1;verticalAlign=top;fontStyle=1;fontSize=16;fillColor=#f5f5f5;strokeColor=#666666;gradientColor=#b3b3b3;" vertex="1" parent="1">
          <mxGeometry x="950" y="229" width="300" height="441" as="geometry" />
        </mxCell>
        <mxCell id="xLPijeGfnM_CjZ15K6nw-2085" value="Source Zone" style="rounded=1;whiteSpace=wrap;html=1;horizontal=1;verticalAlign=top;fontStyle=1;fontSize=16;fillColor=#ffff88;strokeColor=#36393d;" vertex="1" parent="1">
          <mxGeometry x="100" y="229" width="240" height="441" as="geometry" />
        </mxCell>
        <mxCell id="xLPijeGfnM_CjZ15K6nw-2087" value="Landing Zone" style="rounded=1;whiteSpace=wrap;html=1;horizontal=1;verticalAlign=top;fontStyle=1;fontSize=16;fillColor=#ffcd28;gradientColor=#ffa500;strokeColor=#d79b00;" vertex="1" parent="1">
          <mxGeometry x="340" y="229" width="310" height="441" as="geometry" />
        </mxCell>
        <mxCell id="xLPijeGfnM_CjZ15K6nw-2088" value="Raw Zone" style="rounded=1;whiteSpace=wrap;html=1;horizontal=1;verticalAlign=top;fontStyle=1;fontSize=16;fillColor=#fff2cc;strokeColor=#d6b656;gradientColor=#ffd966;" vertex="1" parent="1">
          <mxGeometry x="650" y="229" width="300" height="441" as="geometry" />
        </mxCell>
        <mxCell id="xLPijeGfnM_CjZ15K6nw-2089" value="Analytics Zone" style="rounded=1;whiteSpace=wrap;html=1;horizontal=1;verticalAlign=top;fontStyle=1;fontSize=16;fontColor=#000000;fillColor=#e3c800;strokeColor=#B09500;" vertex="1" parent="1">
          <mxGeometry x="1250" y="225.5" width="290" height="444.5" as="geometry" />
        </mxCell>
        <mxCell id="xLPijeGfnM_CjZ15K6nw-2095" style="edgeStyle=orthogonalEdgeStyle;rounded=0;orthogonalLoop=1;jettySize=auto;html=1;entryX=0.5;entryY=0;entryDx=0;entryDy=0;entryPerimeter=0;shape=flexArrow;" edge="1" parent="1" source="xLPijeGfnM_CjZ15K6nw-2091" target="xLPijeGfnM_CjZ15K6nw-2092">
          <mxGeometry relative="1" as="geometry" />
        </mxCell>
        <mxCell id="xLPijeGfnM_CjZ15K6nw-2091" value="Stock Market &#xa;Dataset" style="shape=image;verticalLabelPosition=top;labelBackgroundColor=default;verticalAlign=bottom;aspect=fixed;imageAspect=0;image=data:image/png,iVBORw0KGgoAAAANSUhEUgAAApwAAAECCAYAAABTzwcLAAAACXBIWXMAAAsTAAALEwEAmpwYAAAAB3RJTUUH3gkMDzIv7tskIwAAIABJREFUeNrt3U9sU1f+9/HvJTdxnOQm2IX0cZBAmghTiUhFbtGURYlUsUsWPKtmkx0s0tWwyW9FFmT1Y5NZlUVYPdmkq6eLZDMPQjIsmBGpf6kEUjHKSEEiHgzYYCexHTucZ2GcpjSB/PE999/7JY06nU5xcn3uOZ/zXwQAAACwkbH9b1K5imr2B3SZRyTe3WrwqAEA0C9dqKrV2jvadrgjcI4+eKXSxZotHzLUF5aJgR4KJgAAGo09zKlUfsOWPzsRaZNb56O07diTIyIis8trtoVNEZH5lZIks2XF4wYAQI+55+u2hU0RkVR+Q+aer9O2Y++Bs1izv7zYGWgBAMAfZcrvfPEZ8FHgBAAAAAicAAAAIHACAAAABE4AAAAQOAEAAEDgBAAAAAicAAAAIHACAACAwAkAAAAQOAEAAEDgBAAAAIETAAAAIHACAACAwAkAAAAQOAEAAEDgBAAAAIETAAAAIHACAACAwAkAAAACJwAAAEDgBAAAAIETAAAABE4AAACAwAkAAAACJwAAAAicAAAAAIETAAAABE4AAACAwAkAAAACJwAAAAicAAAAAIETAAAABE4AAAAQOAEAAAACJwAAAAicAAAAIHACAAAABE4AAAAQOAEAAAACJwAAAAicAAAAIHACAAAABE4AAAAQOAEAAEDgBAAAAAicAAAAIHACAACAwAkAAAAQOAEAAEDgBAAAAAicAAAAIHACAACAwAkAAAAQOAEAAEDgBAAAAIETAAAAIHACAACAwAkAAAACJwAAAHBYJo8AdkoXqmq19k5+yVdFRORpsSrFqvr9v9fUnv6cWLhFYu0tIiKSiLaJiMhXkdb6/x42DZ608zKlmsqUNre+61Ruo/6/lzclU9rc058Rt0zpMo/wPftQKldR6WJNijVF2YBvy/hKaVMy5XeSKf1etvfT1jXKudVqyGmrVSzTkLhlSiIa8nwZN0REppdW1e2lVVs/6Ep/l1zt76JS8Hm4TOU3JF2sydNiVdLFmrbPTkTa3r+UbTLY20450/h9p/Ibkspt7LlC5XsOVtlIF2t7DpXNKBunLVO+irYRQmnbbQ+Xv+Srkspt7CtQHkYs3FKv/yJt9fLe3eqp507gPERB02m4r911FWimVFPJbEVr4NiruGXKxd52GTwe8txL6WbJbFklsxW5ly274vtuVL5DfeFDf8+zy2vKjt/Jje+unWUjld/QEjD30jgPHg/JYG/o0KNDc8/XVab8znNlg7a9uZ2o5Mt63adzMOVjLNOQRLRNLh4PyfCJDtd/BwTOfbrx6K2aXyk5UrBmLnzmeMPVCJnzKyXXvHR7aXiG+sKBafjtqGhnn627JmR+KmAcJHyOPnil7CrPlmnIj19HfdnxSReqan6lJPMrJVeXDcs05GJvu4yc7Nj39zD2MKdS+Q3bfrZbX0dsmy6lbT98eze7vC7JlxVXdKI+ZbA35OrwSeD0QNhsuHbGkpFTnY48w7nn6+qnZ+ueCZm7SUTaZORUB9OxPv/O45Yp35/s2FPFm8pV1NhC3tafZ6gvLBMDPb4pc8lsWc0ur4udQcwNZSNdqKrRf762PSTcPBchcFL3NbWDNdQXlpFTHa4aZGGXukfCpohoH0HIlGpqemlVXbr7Qk0+Lng+bIqIpPIbMr74Ri7ff6nmnq8rSvbOle3l+y89/Z2nizWZfFyQy/dfqtnlNce/Zy+MjuynbIwvvvFk2NxeNi7dfaGml1Y/WjZWa+9s/3kamyjhPL+0d8Waktln63L5/iu58eitypTcMf1A4PRI2LRMQwaPh7QFzRuP3qrL91/J7aVVV0+VHSYANAJJKlehxpf6SF8jaPolIGVKmzL1pCiX7r6gg3HIsjH2MOerslGsKbm9tLqn4IlgBE0/tnfzKyW5fP+VjC/mHQ+eBE6PhE0da8C2B02nf2edgWRsIS9jD3Ou6QXqfwY1Nb6YV2MLed+EiZ3CxeTjgow+eEUH4wB14NhC3rMjmnsNnpfvv1TJbJmyESCNEXu/Dqxsl8xWtkY8CZyETUfD5vTSaqCC5odS+Q0ZffBa3DD9qtPs8poaffBaktlKIH7fdLEmYwt5mfqtQLD4ZANVVpfuvlBB6nyOL76R8cU8ZcPv9UCh6rsR+72aXynJpbsvHFlqROAMeNice76+NZUQdMWakqknRRl7mAtEgzO+mFdTT4q+79nvGLSfrbOc4hP13/jim0CWjWS2IpfuvmC006eml1bV6D9f+3bEfr9tnc6ZPQJnQMPm9h5esUa9ul0qvyGX7r5Q6YI/V/OnC1VVnz6sBPp7biynmFspU+i3lY3RB69UUGc6tjfI44tvZHppjULhm/e9psYe5hhc+aCt0zmzR+AMYNikh7e3BueHhZz4baPJ3PN19cNCLnDTSB8T9HC11fjkKuqHhZwvTqNoZoMM70tmy2r0AW3ebm3d1JOilqUkBM4Ahc3G6AU9vL2/iJOPC74JnbPLa4xoY9eOyNhCnrIB35ldXgvs8pD9hfJK/QIMG2f2CJwBCZuNUU1GL/bPD6HzxqO3aupJkS8TO4bNyccFHgR82a5T7+1duliTHxZyYtfadgKnS8Jm3DLlznefG80Om4xqEjrdUL5B2AR0Gl/MU+8dQLGm6mvbbWjvAh843RI2Zy4cs2W9Jmuymhs6vbarmbAJwiaCZvTBq8BvimxGe9fs0BnowOn3sDm7vKZYt9LsXvMb8coB8XPP1wmbIGwicGGTQRZ3hs7ABk6/h00RYZG0Tc90fPENgQKelcpVKBsgbEJ76Axk4AxC2BQRibWzRNcO6WJN3Hz3crpQVX9noTx2UL/G9A0PAoRNaA+dgUskQQmbIiLDJzqMRKSNt8UGt5dWxa0Hw4//yhEg2KVscDwMfNquEzbtD52H3cNwJGiFMihhs+HW+ahhmQZviy0v4FsXBoq84lB37GTqtwKNMmjXcagO62EGWo5QKPUZ7A1pDZsN1wd6eFNskC7WXHVU0uzyGjszsaNktqxmn63zIOArXtsYGbdMSUTadvxPLNzi+p+/WFMy/uvBl+SYhE09hvrCMjHQ48hQ42Bvu+HGXmBjut9qNeS01brj/yeVq19F9rRYdeVU4O1/u+Ou5UyppkYfvKYFwo4mH73lIcBfHf5CVY3+0711XiLSJolom3wVaZVENGSIiPxrj3V5uliTdLEmqdyG667jzJQ2ZexhTt06H913nvF94Ax62GyYGOgxLt9/6ch0ayzcIolIm8Qts97D28fL9+GL+EtuQ1L5qtzLll0RQDOlTZleWlVX+7sMZ8s5V1ZiZ+OLeUa+4b9y/av7Nr8N9obk4vGQDJ/oMP51wD8jFv7zGri55+vq3suKuOU9TuU3DtTu+TpwEjb/6OaXR0VXjzBumTLUF5bB3pDEwqbxc1OC6x9fxGS2rGaX1x3vATpdxrxyBJJl/j6SnYjuvpntabEqxaqS1do7Li04bMOQq6ixhTxlA3SibCy735/qlOG+domFTeOmDZ8xfKJjq+2bXlpVPy2vOT7A0Ng4u5/bEX0bOAmbO4TA7lZjemnVtmsuY+EWGTnZsRUyZ2zvTbYbIvWplaknRceCZ6a0KXPP19X2SkEntx6BFLdMudjb/ocppTsH+HPSharKlDe3ppcIGvuoB13aEdlayxZt23qP7xzo3XP39COab3Z5zRX3ozeC5tX+LuOOxs9tjCq6IXjud5TZl4HTDSM+bgub2wtrs88rS0TaZORUhwz2tjdlJPMgQVqkPuI5+eitIy/g/ErZke9z6reCqzaDxC1Tvj/ZsTWlNNPE7/fDdzyVrwq7U3dnZ+fSLR3SnaYfk9mySmYrrll2g2Z27t2xVr3Rvt9x8GdoBE8nR3v3u6TMd4GTsPlpN88dldEHrw9dGScibXK1v1MS0ZBxywW/V2OkxIkDgFP5DcmUamqnBtDOyvfy/VeuKFPby8KMhs/bPpo893xd/fRsnZHPD/y0vOa6svGzxnqgUTbmV8qMfPqE02vVY+EWmTjbvTVj4472PGI4Odiyn6l1Xx2LRNjc+6jA385YB/7345Ypt76OyK3zUcNNL17DzIVjxlBfWPvnzi7rHWmcXnI+UCQibY6XheETHcbMhWPGra8jwkUHjbKxqpwe3XNDPTF8osO4dT5K2fCBZLasnOw4DPaG5Odvj7uyzRvsbTfufPe5Yxe97HWJg28CpxvC5vWz3a4Pm9sr4sHe0L7+Hcs05PrZbpm5cMyVL912EwM92kNn8qW+aY1MqeboGmXLNOTaGctVnY5ENLQVLrxwpp2dnB7dvNLf5ap6YnvZIHh6k5PrNq/0d8nNcxHXt+23zkcdGWxJ5TckmS1/sofri8DplrDp1KaRg7p5LrLnW4iG+sJy57vPDS/9jhMDPUbc0rdqJFPalExJz7CSk6ObccuUH7+OysipTleWhUQ0ZPz87XHjSn9XIBtmJ0c3Y+EWmfnmM3H6mLBPBc9rZyzhBjZvlWmnblC7frbbteV5t3bv+tluV3YIPB84CZuHDZ1HP9mA3Po64pmR251+P50Ni47F206ObiYibTJz4Zixn6MwnHK1v8uY+eYz0dnpcAOnRjfjlik/f3vcE2Vj5FSnMXMheGWDMh2Mtn34RIf20Nk4rcW3gZOw2Zwe/8jJjh3/2ZX+LteuWdmrWNg0dF7tqWONke61og1DfWE5yO0STop3txozF47te/mIV80urzkyuhm3TEeu7T1s3eDUem/snVMj9l5v24dPdBjXDrFX4yA+dfOeZwMnYbN5rn3R/YfFxnHLdPW02H4N9rZrW0zduIrTTk6MbnphM9zH3DwXCUSwcOKILC+Gze0mBnoCu/zCC5wY3fRL2z5yqlNrvfepUU5PBk7CZvPdOh81fv72mMx885lnpkz342p/p5bPKdaUres4556va+/txy3T02Fze7Dwc+hMZsva17l5PWz+Xj90ObLuDR/nxOjmyPtzhP3yDHXvZfjYmdSeC5yETfvEwqbvgmZDIhrSNspp53mQP2kewbJMwxeBIgihU/fId/3Uih7fPL/hEx1Mr7uM7tHNRKRNrn3R7bs2UOdehlR+Q9KFqvJ84HQ6bDaOBfJj2AyCob52TwfOxjV+uisqv9Hd49dF920jfztjid86qBMDPYFZ7+uF9l7n6KZlGp5bo75Xuvcy7La054iXCp/TYfPHr6OETQ/T9d3ZtY5T92ahkZMd4uUNY27p8Wup4JfXtM47DvaGfFsX3jwXMYJ+jqsb6J7N0RnInKBzL8O9bNm7gdMtYdOv081BomP0YrX2zpY/V+fB8pZp+HJqaXuP/2+ad3DaSed0euPQfz+bYD2no9KFqtbZnMHe0B+uRPVtuR7QU66LNbXjQfCuD5yETTTTaavV/srShooyXahq3RDyN58HCpH6iLcfbp3RvdTi+1OdEgv7+9T0RDTE1HpAOlAi4vsO1PaOtq51yjt9h64OnIRNNNtXkVZP/tw6Rzdj4ZbALB3RdXqBnX7J6btf2jIN3xyXRgghcIrUlw75vQPlRJ2309Iy1wZOwibsoGtNYipXaeqaut3WxNjhyl86A1UevD7KeU9jZ+T7U8EpGzpHg7Ctc50ta9ss5PelQ06W652m1V0ZOAmbwB/pmjIN0uhmw8ipDo830HoCZ5BGNxuGNZ1sge2ddX0j9hd7g/n96irXH36XrguchE3gz++Ers8K4oiOl3erN3skncYZjnegNI7Y+2FJzUEkoiEtJzF8+F26KnA6HTbrt2Z8Rtj0+8vmsSnUVL7qu54vmuMXjWVj5GQHDxy20rk5crA3FKi1m3/6/Y/bvykuU9r8w817rgmc7gibx4wgF8CgsOvYIruCwNOinlAR9ArYi3RNP8bCLXTEoaFzrXE6/XiwTyHQdQrD9k2NrgicbgmbvO4B6UVrvq3HKz9v0CtgGujdsXkGfgucQb/ERdcG2qfb2i/H73cjbMKWiuv92rZ0sSbFmno/tL8pq7V3ngqcqVxFjS3ktXzWV9E2Co6XOiKFqhr952stnzVIZwRa6js9gXOwNyT/4nFL3DJtbw/TbgmcOitMwqb/AmWxpiRdrMlqtR4it4dJXSHNbrrW6MUtk+l0rwVOTUstLNNgOh22y5Rq6vL9V1o+6+LxkNzkkctpq9X2wLl91NqxwJkuVNUPCznCJj4aKldKm5Ipv5OnxaoUq2qr8PolUH6KrvWbiUibzFDkPFY29IzUJ6JtcofHDds7UPpmnpjNqdOxU72R9+LdrYYjgbMRNnUd7krY9E6wTOU2JFOuT38HJVS6oRJOUAFTNj7SGQH8Up4t02A2R7NMuX7ygPbA6XTYTETa5Nb5KIXNwXCZLtYkXazJ02JV0sUawfJjL6qmI0LilsnD9hhdo9+UDehpG/Ss3+xqPSLTS6uKJ66vfWl0JrTWJE6HzaG+sEwM9BA2NUpmyyqV25B0sSap/Abhcp/vi441zvT4vUlXPaprNysCHn7KesJPprQpt5dWeeAOBFttgfNpsSo/La8RNn3fS62oZLYiqXw9ZI4vvuGhHJCO80JF6gvHWaPnvfdMR+ctbpns5oXWUAIC56Hpuu+XsKnf3PN1de9lRVI5RjCbSecOdXiLro57l3mEhw0NgUTfDnU48P06tYaTsOkPyWxZJbMVmV8piZPnqKIJoaKVUOE1bCaDvwIno5tB+H59HTgHe0OEzSabXV5Ts8/WmSrXQNci+q8irTxsAI5xaqkd9PJ14PTaFYbu7Z3U1OzyusyvlGTqSZEHAtAZAWirsffvuFBVvg6cmdKmjD3MKY5BOnjQnF5aE9bW+Juuw38BAMG0Wnsnvl+8lcpvyNRvBcbr92l6aVWNPngt8yslHoaDZVdP4ORIJOyMTUMAmiUQtcnss3WZe75O6NyDZLasLt9/qW4vrbKuBnApXWcWcoc6tJRnNg0ROP1k8nFB0oUqCeojxhfzanzxDS8/QAMNUJ7RNMWakkDNl/ywkONb30EyW1aX7r5QTp6VCgAA/CldrAUrcBZrSkYfvGKUc5up3wpqfPEN0+cBlYhwziIAwH6BWxGeLtbkxqO3pCsRGXuYU7PP1nkQAACAwNls8yulwG8iGn3wSunaBQ0AAAicgRTUTUTpQlVduvtCcdAuAMANLA5D8L24ZUqgD1kL2iaidKGqfljIsV4TW54WqzwEAI46bXGjle87FaYR7MAZtE1Ek4/fEjbxp3cAAAC7Bf4aiaBsIhp98Crw0+ixcAu7suGb0QIA8BKTR/D7JqLhEx2+rMVvPHqrgnBFZdwypcs8Uv9ra/2vlmnIaavV6NrWQH/z/14wrAdPO221Cpv+QAcKBE4PmnxckFSuohLRkK9KfjJbVuOLb3wVKmPhFjlttUqs/Yj01f/7HwKlX8TCLdzAAUf5sU6EO+t1+FuXeYTAuV39WseaioX9k14mH731bNiKW6actlrrIbO9RU4HrBsca9cTOAkVAAC7WKYh8e5Wg8C5TbGmxE+jgeOLeU9cV/l+2lsS0Tb5KtLq2xFLoJkdMsnb/zkrjLBDg0Q0ZPz1H/9hqZNPw+bNc0clIS6cUrdMQ670d8n8Skmc2OTS2EQ0MdDj6cSTylXU2ELetT/fYG9IEpE2SUTaAjdy6bZQwZmsHi0bGmTK73jY8JW4Zcq1MxYPQoMu84jEu1uNxPu/d1XgtExDfvw6KvHuViNTqqnRB68dObZlfqUks8trauRUp2eD0PTSmus6Ehd722WwNyQXjzN966ZQwdFI3hw10BI4GeGEJolIm5aNcMWaEpYQOcM1gXN72Kw3tqbh5Cjd1JOiZ9e2uWl0c7A3JEN9YULmQQJn+xFN5YXdzl6ja5MFgRNaO9h5yrSfueIczg/D5laPJxoyrvR3OfZzNTYRee1LnX227vjPMNQXlp+/PSb//eVRg7B5MH2aRjhXa0ybek2XqakzwtFL0Bk4NUnlKkzrBDFw7hY2G672dxmDvSFHfjYvbiLKlGqObhQa7A3Jz98ek+tnu43/1d5C0PRABcwaTu/Zrb60q07hicNuX0X0XW/5S54rfQMXOGPhlo+GzYab5yKGU+d0ee0mIqfCZmMn2n9/eZSg2bT3Q99mKnr8dEjokMBJOpevsYwoYIEzbpny87fHjb321K+f7XHsNoLGJiIvfKFO3CgUt0z5v98eZ+rcjkpY01Wc9Pg9GDjb9QROGmfobEu0lGmWigQncMYtU2YuHNtXOIl3txrXB3oce1BTT4qSzJZdHTozpZr2+9KH+sLyf775jHMz7QoVmkaxnhYJnJ7rjET1dEZonOG3DraIyNzzdWZ1/B44DxI2GwZ7242Rkx2OPazJR28lXai6tpD+onkkYqgvLNfPdpM0fdDj98IFAXCmbDClDr91okRE7r2kzvN14DxM2Gy49kW3obMXtF2xpmTysXuvikxpnBZ9f3guYdMnoaIeOsv0+CkbO2I0CDoM9rZra1OS2Qob4vwaOBORtkOHzYZb56OGziMUPuztjy/mXVlIdZ0v1tggxDS6jh5/SGsFDO+IhU1t9SCjQfBlR2qlzAP3ZeBs8lD5zS+POvbQktmKTC+tui506lprdaW/S9iJrjF0ahrRv5el8qVxpjMCZw31hbV91k/LazxwPwbOple03a3G9bPdjn3+7aXVQE5BxsIt8v3JDsKmzsCpaV1TsaaYVqczsium1aGDznO3izXlysEjAqcLDZ/oMHT2hj7kpk1Eus5RdHLTVlDpPBDZiWO14I3A+ZMLbjCD/8XCptZztxnlJHDu2cRAj2OHwrt9E5HXe594HyqiIUPXGbRBXEjv5TNI492ths4D4IN2QQA79J2hcyCpWFMy9VuBUU4C597cPHfUsUPh3byJqOmNm2WydtOx0KlvJGt6KVg9fq+PcOgc5Qxa2ZhlVNcRugc2Zp+tc9sagXNvYmHTuHmOTUT2P+cW3hiHXDyurwKeXykFZpRzemlVFT3+q+psnFP5jcA0zHPP15Wukz/w5zZdd+i88bjAgydw7rGXHw0Z185Yjn3+7aVV3y+qP2218sY4ZPiE3o1aU0+Kvn+mmVJN+WH91mBvu6Fzhicoo5x/D8A74Ga692dkSpty49FbRjkJnHszcqrTcHKN4d+fFF19ExG8Hiz0le1ktuL7kawbjwpS9MlA7sXedm2flcpv+L5zPb6YV0XOBHe8I6V7Vm1+pcRpDATOvbt5LuLoJqLxX9/4trAwveRwqDjOFFOzTC+tKj/dEa67o+3n0b+55+uKc0fd4cpfOrV/5uTjAgNHBM69u362x7FNRJnSpow9zPmysD4tVnljHKR7Wt2vU0zJbFndXlr11e+ke1q9WFO+rOfShaqaZC2fq+o8J9ryHxZyhE4C597Eu1uN6wM9jn1+Kr+h/ZgFHVMP6WJNVplmcpTudU1+m2JKF6pq8tFbykaT6jk/bZZMF6rqh4UclYzLfH9K/yhnsaYInQTO/fX4nTykfPbZutaGOhbW0w3kJhqHe/x97do/c/JxwRfrORuBwq9r80ZO6a/v/LJZ0u9lw8uu9nc5MspJ6CRw7su1L7oNnWfUfUj3JiIda1dv/9vbO1SferxFSURDhhPHU40vvvF0xTv3fF2N/vO1rwNFLGw6Ut9NPi54OnQms2XCpstd6e9y5HMbodPPG4kypZoaX8yrv/7jP+rS3RfKzlmLI34vqLfORw2nzo/UvYlIx++ZKW3K/ErJky/f02LNF1NmTiykb1S8XhzpnPqtEJh1eVf7Ox35XK+GzumlVTW++Iaw6XIjpzodbccnHxd8eRvR7PKaGn3wWhqb5Io1JbeXVm1bu38kCIX15pfOHQqvcxORrnMy//6k6Lm1nPMrJd+McA2f6HCk8i3WlIwt5D0TLNKFqhp98EoF6bYYp0bAG6FzdnnNE2UjU6qpsYc5320e87OJs93OhrNn6zL64JXyw6UYqVxFjT54paaeFHdsE+dXSra8y4EInPHuVuO6g4VV1yairyJ6Auf70S5PvHSrNSX/9esb341w6d4g8mGwcPvu9emlVTX6z9eBvAvbiRHwhqknRddf9Tu9tKpGH7wWPx2LFZTOlJPnbIvUN85evv/Ks5vlGtPnYwv5T9aNU0+KTR9cOBKUwjp8osNwspHWsYkoEQ0ZOl+8ycfunmK497Ki/vf9l748U8+phfTbe8CX779Ubptin11eU5fuvgj0yJVTI+ANyWxFLt19ody2wXDu+bq6fP+lur20yhS6R107Y4mT9V7D7aVVuXz/pfLKbE+mVFM3Hr1Vl++/kv20h81eKnMkSIV1YqDHsUPhG1+e3RsvdPYA51dK8l+/vlFum17/n/yG+mEh7/u1WU4tpP+9EtuUsYW8jD3MOTrNlCnV1PTSqrp098WuU0RB4+Qop8j79euLb2TsYc7xTsns8pq6fP+lmnxc4PIKj4uFTcPpem97/Tf5uODq4JnKVdT4Yl5dvv9K5ldKB84tzfr9jgStwN48d9TRHpLdm1Z071JNZivyw0JOuWH39//kN9Tk44IaW8gHYrrMyYX0f6jU8hty+f4rGV/Maw0Xc8/XtypTRq3+aPhEh6MndGwvG41Oic4Rz2S2rG48eqv++o//qKknRYKmz+o9N5TtnYLn9NKq42s8M6WaanSyxhby0owZvmaFTkOkvqbF7imoK/1dcrW/y3BDAUnlKmpsIe/Y58ctU2YuHLPtWfz1H/9xpMBf6e+SkZMdRpfmQD+/UlLzK2VXhUxd5T2ZLavxRXddpxoLt8jg8ZAM9oaauswjlauodLEmqfyGeG2ZRCLSJrfOR7W+GE7XczuxTEOG+sKSiLbJYG97055HulBVqfwGZeMDfm7bL9194dr77uOWKUN9YRnsDWk5I7tR/udXSrauW79+tvtQN94FMnCK1KdZphy8D3ioLywTAz22PI/xxbxj6xYt05DvT3XaHjzvvayoZLYi97JlV45s6SzvYw9zrr4XPBFpk0S0TWLtR6Qv3CJB5DxeAAAQIklEQVRd5hGJd7cau4UkkfqUbLpYk0xpUzKlTc+PWDsROEVEbjx6qw46labrucQtU2LhFolb5kfLRrpQVau1d5QNAqdrO1S7dcAb5TxumU3phG/vfKdyG1rbwMOEzsAGTqeDWTN6C25/EYf6wpKItMpgb/uhw+f/5DfUL/mqpHIbnmhgdJb3TKmmRh+8ZkqZwLkjN48EgcDp9t/ProGZxjGGieinlwekcvU272mx6op6/qDZxQzyi37zXMQYffBKOXV0SmMT0W49+gNXYNGQcfn+S+X0uqX5lZLMr5Rk8nFBxS1TTlutEgu3bI107WSltCmZ8rutlyxT3mT91Sd70Kbh1YoXGhqHgR5x27ILoBmu9ncZTg8cHUSxprYGTrw4Qt9Y07nf0GkGvcBeP9sjTl5rZtcmoit/6RQ3nT2ZLtYCeSaizorX7VPrcMZgb7snG2VgL5weOAqqg4TOI0F/aPHuVuP6QI+jPZ3RB6+annaHT3Q4egQU9JsY6HbFGXVwZ6NM2YBfzVw45ooTO4IaOgmc+xwBGDnZ4djnp4s1W25uuXbG4ssNkFjYdLTzBLeHzqM8BPi3fH95lA63y0MngbMRzr7odvRsr/mVUtNvIkpEQ47eroTgdZ7gXoloyKATCr+Kd7caP34dJXQ6FDr3cqkNgXObW+ejjg7LTz4uSLMPzp4Y6GEqjc4TICL1Q7PphILQiWa7/e9Pb1olcH7g5pfOTjuNL76RZt9UwFRaMDtPrOHFbp1QygYInWimvWxKJHDuUFivn+127PMbdxA3UyIacs39s9CHhfT4WNkgdMLP7fid7z6njGs02BsicB7E8IkOR6ed7NhEdLW/y9hLgYC/sJAehE4EuYyzvEhDwLdMufKXTw9qETh34fS00/xKSWaX15o8tR6hgQlgT5/pJRA6EVS3zkfZSGmjob5wvR7ZwwU2BM6PBjRnR4emnhSbvomIBiaYoZPpJVAnIKiufdFtON2e+41lGnLz3FGZGOjh4PdmiIVNw+kNN3ZsIqKBIVgAH5YNltzAzwZ7242ZC58JdWAznmVI7nz3uTHY276vBE/g/ASnz66zYxMR4SPYwYJjcf7cU0d9yQ2bC+FnsbBpzFw4Rjk/RF1589xRuXkucqBKk8C5ByOnOh3t/dt1ExHhI5gmBnqM62e5BlNEJBFpE25n+t3V/i6mHt+LW6Y4eWIJ7C3nM998Jmwo2kcOOtlxoFFNAucBe/9+20S0PXwEp4fLMUEi9ZMYfvw6GujppSv9XXLrfJSLET7QmHoMcmM8crJDZi4cM/qoL/zboehuNW6dj9L53kOnfOabz+TaF92HfkgEzn24frbH8U1EyWy56aFz+ESHMfON/9e2jJzskJ+/PU7Nsq3CbUwvBanCjYVb5NbXEbna30VZ2PUZmcat81Hj2hkrkGWjGY0rvNP5vvPd54GrB/f6Ltw6H93TDvS9YBHfPhvoZLas7FhTuVeTj95KulBVzSoA2383EZHppVV1e2nVV99bItIm185Y0uxn5hdX+7uMTKmm6h2aiq9/1yv9XXK1v8v4ma99b520U52GiMiNR2/V/ErJ9x3Sa190UzYCXA822sCfltekWFOBfA5xy5TvT3bI8ImOpr8LBM59GuxtN5wMZcWaksnHbwkfewyaV/s7JRENGbcoup/ozda79qlcRU0vrUkqv+Gr32+oLyxX+zu3fk/sz8RAj+HXspGItMnEQDdlA4EOntvbyxmbPoPAecACOfYwp5yqeNPFmi2jnH4JH0N9YRnua3c0aHp1aiYRDfkqeG4PmhNUXZQNOqTYZ/Cce76ufnq2LulizXe/o2UaMtQXlpFTHfVlNDZ/nikiEmu3fynn4HF/nfF263zUGH3wSjlVCC0Ns8PbG5i5lbK4eUotbpnvX5xO418iMvGJEGL37+L1Mw0b3326UFWzz9blXrbsmZ7+h5UoQdOespEp1dT00prnysbF3vatTojfg+ZXkVa5reEz/Gz4RMdWXTi/UpLky4pkSpueDpkXe9tlsDckg73txh0Ruabps7dSi13Dx5ZpyN/OWFtfmt/cePRW6axwnXyemVJNJbMVmX227ooXLm6Z9RfneGjf6zPtWpMWC7fIlb90+rK8zz1fV/deVly51OLDSnQ//24qV1FjC3l7Q1qkTW6dj/p2ytbNZaPRAbx4PLTv99IPZcPOtv37U52B3HzXCJ+p/IYnRj5j4RYZPB6SRLRNDnOsUdMCJ7DfFy75siL3smVtL1ws3CKJSJskIq3yVbSNNVcOB4xUviqp/IZjnY+4ZdbLwyErUQJncyWzZZXMVigblI1AyJRq6pfchjhdH35Y/k9bra5rK1nDiYMV6A9GFJPZskoXa5LKbUimvHnoly5umRILt8hpq1Xilvn+7012kLrE9pGiTKmm0sWaNPP7/3AkpVEOYuGWepiIhox/icgMX4XrfBjwGnXD02JVMqXNpnZQG2WjUS4oG9BtpzCXylXUL/l6ec+UNuVpsWrLLGjjrNxEtE1i7UekL9yyVf7diMAJWxoZkfoo6GrtnayUNiVTfvfRRqNxBmgs3CKxsOnaFwZ7q3AbQbQRPNPF2p4q3Ealub0siIjc4TH7qm6gbMDPGuucd2sT91PuReoDMI2NqF3mka0BH6+1kwRO2IZzLwmiPAVQNgDaRBFuGgIAAACBEwAAAAROAPCoX/JV2z/DYnUJAAInAMBOp61WHgIAAicAANAv9n7nPUDgBAAggHRcakHgBIETANAUFqcAeZJX7ogHCJwA4HI6rqJrXGwA0BkBgRMACJzAlqdF+08woDMCAicABCFwlu0PnLtddQd3K1aZUgcInADQjMDJCCd2oWOEk84ICJwA4HPpgv1DWEyZehebhgACJwAcPnBqGMHqMqlmvSiVq9ieNhORNh40CJwA4HdPNZyzmIgSKryIK08BAicANEUqv2H7Z8TaqWY9WTZy9pcNrjwFgRMAfC5TqikdN8n0cZMMnZFdfBUhcILACQC+9ouGESwRdiF7UTJb1rJbiGstQeAEAJ+797Ji+2ewQ92rgdP+shELt0gszDVDIHACgG9lSjWlI1SwC9mjnZFsmc4IQOAEgMOZWylr+ZzThArvlY3n60rH+Zt0RkDgBOB7qVxFTS+tKh0Hn7vRT8trWj5n+ESH56ZM04Wqml5aVTrOoXSj2//WUzYInAga1o8AATP2MKe278Ad6gvLxEBPYOqC6aVVdXtp1fbPiVumzFw45qnneuPRWzW/UvL073AYc8/X1eTjgu2fY5mG3Pnuc9pfBAojnECAjD54pT487mV+pSQ3Hr0NzGiWrtFNr41gfRg2RUTSxZqMPngVmLKha3TzYm87lREInAD8GzZ3O3cyKKFz6reC0nU/9lBf2NNhc3voDELZmF5aVZnSppbPGuwNUSGBwAkgWGEzKKEzXaiq2WfrWj4rFm6ReLc37i38WNgMStnIlGpK18h3PXC2M50OAieA4IXNIASL8V/f6AsUx70xgrWXsBmIsrH4Rhj5BgicADSETT8Hi/HFvLbpUq+Eiv2Eze1lw29rOm88eqvlitOtzgjT6SBwAgh62PRjsLjx6K2WQ94bvDCdfpCw2eCnjURzz9cP/BwOwjINptNB4ARA2PwwWFy+/9LTZ3UeJlgd1MjJDt8/k3SxJpfuvvB02dB1BNJ2TKeDwAmAsLmDTGlTfljIydzzdc8FCyfCpmUaMnKq0wjCMynWlIz+87XMLq95rmxML61qD5siIiOnOgQgcAIgbO4SLCYfF2R8Me+ZYDG+mNceNkXcfb6iXQF86klRxh7mPFM2bjx6q+Xg/w8N9YUlFjaZTgeBEwBh82OS2YpcuvtCJbNl14aLVK6iLt9/qXXN5nZX+zsDFTa3nnt+Qy7dfaHcPNqZLlTV6INXjnRERESG+zjsHcFGbwsgbO5bItIm185YrtkckynV1PTSmjgVJkTce0Wo7qUFiUibXO3vlEQ05JpnMfVbQdsZrLs9k1vno7S3IHACIGweNGSNnOxwLHhmSjU1t1KWn5bXtJ2juJufvz3muilTJ9axuil4Ti+tKjeUjVtfR1wVwAECJwDPhM0Pw8VQX7sMn+jQUqcks2WVzFYcHdHcbuRkh1z7opuw6YKy0bhR6l627HjQbHTK3DjyDRA4AeyJE8e6fIplGnKxt10Ge0NNP2+wETJT+Q3ReYj7Xn7nO9997qq6NJktq/HFN4EqG6nchiRfVlxXNmYufMZmIYDACXjX9NKqI7tt9yMRaZO4Zcppy5S+cMsnpxUzpZrKlDalWFOSLtbkabEqmdKmuGEUdzfXz3ZrG73zU9mIW6YkIm31g/ItU2Lhlk8Gs1SuohplI1PalKfFqqvLxpX+Lrna30U7CxA4AQInDheo3bgZZHZ5TU09KfIFORyoZy4co40F3uNYJMCjhvvaxWKmzjGWacjEQLcrf7aRU50GZcNZ18/28BAAAifgfbGwafz4dVRi4RYehgP+dsZy9dq8O999bsQtky/KAW46MgwgcAI4tHh3q/Hzt8cJFpoN9YVdt25zJzMXjlE2NBvsDbn6elPAKbwUgE+45Ygk34d8D67Nc8sRSZQNILgY4QR8YubCMWOoL8yDsFH9mBvvBYqJgR7KhoaywbpNYHf0xACfcfoaPz8Hih+/jnp6bd7c83U1v1L2xM+6WnsnXhmx90PZAAicAA4ULNx2KDxh0x2S2bKafPTWFbfw+MXNc0ebfpg9QOAE4AnpQlX9sJAjWBA2dywb47++cdWtPF7lxoP/AQInAO3YTETY3M34Yl4lsxW+aMoGQOAEcHis69y/uGXK9bM9vg8U3EpE2AQInACaJpWrqPHFN0yx78Fgb0hunosEpn5kin1/HRGOPgIInAA+gWnUj7vS3yVX+7sCWTcyEv5xIyc75NoX3bSbAIETwF4ks2U19aTIiNY2sXCL3PzyaOCnSVO5irrxuEDZ+KBsTJztlkQ0RJsJEDgB7BcjWnVBHtXczfTSqvppeS3wSzAY1QQInACaIFOqqRuPCpLKbwTud09E2mRioFtiYZO6cJeyMb20JkG8FjMRaZOr/Z2MagIETgDNlMpV1PTSWiCCJ2Fif9KFqpp6UgxE2YiFW+TKXzo5WxMgcAIgeBI0nSobcytlX454xi1Tvj/ZQdAECJwAdGpMp97Llj29js8yDbnY2y4jJzs4N7GJZWN2eV3mV0qeX+M51BeW4b52OiEAgROA0+aer6v5lbKnRj0He0Ny8XiIESsNZePey4p46agtRjMBAicAF8uUaiqZrUgqv+G6gNEYyUxEWgkShM8/lY1EtI0OCEDgBOBFqVxF/ZKvSiq3oX30M26ZctpqlbhlSiLSxnS5i8vG02JV69R7LNxSLxOUDYDACcB/0oWqypQ3JV2s1UNGVUmmvHngQ8QTkbatABELt0jcMt+PVrHezmsypZpKF2uSLtYkU6qXicOUjbhlSpd5ZKtsxNqPSF+4hbIBEDgBoD7ytds/q4cHzsSkbFA2AAAAAAD78P8B2hu62gUtTm0AAAAASUVORK5CYII=;horizontal=1;labelPosition=center;align=center;" vertex="1" parent="1">
          <mxGeometry x="170.16" y="330" width="99.68" height="38.5" as="geometry" />
        </mxCell>
        <mxCell id="xLPijeGfnM_CjZ15K6nw-2097" style="edgeStyle=orthogonalEdgeStyle;rounded=0;orthogonalLoop=1;jettySize=auto;html=1;shape=flexArrow;dashed=1;" edge="1" parent="1" source="xLPijeGfnM_CjZ15K6nw-2092" target="xLPijeGfnM_CjZ15K6nw-2096">
          <mxGeometry relative="1" as="geometry">
            <Array as="points">
              <mxPoint x="340" y="464" />
              <mxPoint x="340" y="340" />
            </Array>
          </mxGeometry>
        </mxCell>
        <mxCell id="xLPijeGfnM_CjZ15K6nw-2092" value="" style="sketch=0;html=1;dashed=0;whitespace=wrap;fillColor=#2875E2;strokeColor=#ffffff;points=[[0.005,0.63,0],[0.1,0.2,0],[0.9,0.2,0],[0.5,0,0],[0.995,0.63,0],[0.72,0.99,0],[0.5,1,0],[0.28,0.99,0]];verticalLabelPosition=bottom;align=center;verticalAlign=top;shape=mxgraph.kubernetes.icon;prIcon=api" vertex="1" parent="1">
          <mxGeometry x="195" y="440" width="50" height="48" as="geometry" />
        </mxCell>
        <mxCell id="xLPijeGfnM_CjZ15K6nw-2120" style="edgeStyle=orthogonalEdgeStyle;rounded=0;orthogonalLoop=1;jettySize=auto;html=1;entryX=0;entryY=0.5;entryDx=0;entryDy=0;shape=flexArrow;dashed=1;" edge="1" parent="1" source="xLPijeGfnM_CjZ15K6nw-2094" target="xLPijeGfnM_CjZ15K6nw-2106">
          <mxGeometry relative="1" as="geometry" />
        </mxCell>
        <mxCell id="xLPijeGfnM_CjZ15K6nw-2094" value="data/landing/&lt;br&gt;stock_market/&lt;br&gt;XXX.csv" style="image;aspect=fixed;html=1;points=[];align=center;fontSize=12;image=img/lib/azure2/general/Folder_Blank.svg;labelPosition=center;verticalLabelPosition=bottom;verticalAlign=top;" vertex="1" parent="1">
          <mxGeometry x="466.65999999999997" y="524" width="56.68" height="46" as="geometry" />
        </mxCell>
        <mxCell id="xLPijeGfnM_CjZ15K6nw-2098" style="edgeStyle=orthogonalEdgeStyle;rounded=0;orthogonalLoop=1;jettySize=auto;html=1;shape=flexArrow;strokeWidth=1;startSize=6;fillColor=none;fillStyle=auto;dashed=1;" edge="1" parent="1" source="xLPijeGfnM_CjZ15K6nw-2096" target="xLPijeGfnM_CjZ15K6nw-2094">
          <mxGeometry relative="1" as="geometry">
            <mxPoint x="460" y="545" as="targetPoint" />
            <Array as="points" />
          </mxGeometry>
        </mxCell>
        <mxCell id="xLPijeGfnM_CjZ15K6nw-2096" value="&lt;span style=&quot;background-color: rgb(255, 255, 255);&quot;&gt;kaggle_api.py&lt;/span&gt;" style="outlineConnect=0;dashed=0;verticalLabelPosition=top;verticalAlign=bottom;align=center;html=1;shape=mxgraph.aws3.android;fillColor=#FFD44F;gradientColor=none;labelPosition=center;" vertex="1" parent="1">
          <mxGeometry x="467.5" y="314.5" width="55" height="54" as="geometry" />
        </mxCell>
        <mxCell id="xLPijeGfnM_CjZ15K6nw-2122" style="edgeStyle=orthogonalEdgeStyle;rounded=0;orthogonalLoop=1;jettySize=auto;html=1;shape=flexArrow;dashed=1;" edge="1" parent="1" source="xLPijeGfnM_CjZ15K6nw-2103" target="xLPijeGfnM_CjZ15K6nw-2110">
          <mxGeometry relative="1" as="geometry" />
        </mxCell>
        <mxCell id="xLPijeGfnM_CjZ15K6nw-2103" value="&lt;span style=&quot;background-color: rgb(255, 255, 255);&quot;&gt;mutate_stock_market.py&lt;/span&gt;" style="outlineConnect=0;dashed=0;verticalLabelPosition=top;verticalAlign=bottom;align=center;html=1;shape=mxgraph.aws3.android;fillColor=#FFD44F;gradientColor=none;labelPosition=center;" vertex="1" parent="1">
          <mxGeometry x="687.5" y="314.5" width="55" height="54" as="geometry" />
        </mxCell>
        <mxCell id="xLPijeGfnM_CjZ15K6nw-2124" style="edgeStyle=orthogonalEdgeStyle;rounded=0;orthogonalLoop=1;jettySize=auto;html=1;shape=flexArrow;dashed=1;" edge="1" parent="1" source="xLPijeGfnM_CjZ15K6nw-2104" target="xLPijeGfnM_CjZ15K6nw-2113">
          <mxGeometry relative="1" as="geometry" />
        </mxCell>
        <mxCell id="xLPijeGfnM_CjZ15K6nw-2104" value="Detla Table: &#xa;data/raw/stock_market" style="shape=image;verticalLabelPosition=middle;labelBackgroundColor=default;verticalAlign=middle;aspect=fixed;imageAspect=0;image=data:image/png,iVBORw0KGgoAAAANSUhEUgAAAUAAAAFACAYAAADNkKWqAAAgAElEQVR4nO2d38ssyXnfv0/PvO95dVY2RtjYRImJwRfBss3mTguKOeE9dybsBnyTm2RNZINykyisQArEQgKDg3ZxCCGBYKP9A3yxCuQisItFMGgDIXEw+XFhUAgmMbbjJI7Oq3Ped6afXFQ99aO7urt6pqanet6n0eqcM1M1n66e6eqq51tPfQmZx/Pnz9zfP/zw27PqzCnPbP7+0UfrZxCd/lpdAkMOZShjacZ26oNub5+BCA0AuRnaHDizqWOP0Tr2ZBvA3GxT5UOG3KBTdW5vPcNyijPCds9pR3hej5GRU77LsA+x7N+VMpSROpqxNwFI59cAaHJGAvYEtkG9yUYCaJixlfOZw7CcLIac09x25DKYPQPIY9h2S9uVMcKwn7+F+Q5P9rtSxuNhDI4AO3AAuMd079sgvgnux04gwdjlMJhdB1sVw174WQz4a7V7pIzs35XtNLMZMA+w7HYo43ExpMLQh10H7+8+/PDbU1PMxtaZcyM4BtE0w16U66BjmsWw5XenYsiFn8tgxm4sHnnhjKzvHJjPsC8pQxlDdZpeB2inMzfwP9J7+9/YB20B3AAAM1oi3I+dgDCIolHAKMOOGG7sSzIqG2XY8oswbHzinij/Wgnjo4+U0T1s7Dli5PyuQob9fGUoo8eB+f22UQfYeUI39oMGp3+dG0HEgjuMDD2DE74GAGbDGOrhQ4YdDgPAHfM0gxnXRIZhL+RJGPalSYadVkcMZFyrx8hA4vsYY9gf9Q2Aa+lgkfnbVcajYkiYrhVgeIRz6HsALyeCiK7zg+mtX2b21tfCsHUmGcGUtEoGMq4Vkb9Wyhhn2DoS/8lmAG4UoAxldA+ZWgPmt2tGgLd+qUs0XczorZ8CZtoL4CURBmNG3RPGxI2QYhDhJVCWYae9izBkGVEuQ0awj4mB4DuH7WBzGDjwd6WMR8NobJ0WQWxf1nq55QgWPKp6wsy3b4J/v7QixuAJ2PJywruxE04x5GYryZCp3FIM2wlMMhCPmB4NA3FccRbDvqQMZSQZzHgarDt1n09B79gAaDOGnVtmPCW/QPblmFpo6zxFPLqc/URQhjKUoYwjGdJZuj6uYY5WWE92fjCxMth6uVOgrS2fO80SRRnIGA6Lam3rzGLYoypGENB9FAz44HcWIwh+K0MZuQyZWkd9nAge7cQQ0n0YYsEja55+aIA9l0EUqYuHBPFPxpC44hxGbtD4UhjoB7+z4z/KUMYMRm+At53q+LrT3rlCQbA2Z/CEbe/em1rnMDpLXWYNuZnzhJtDGIcKBY+ZgQOC38x4mbGEShnKSDKSmSDdMmwWLQPIEwoQ99ZZQcpQjJATnhNgz13qEjKmhJtjGIcKBcqYZtiXdsDwjaAMZeQwaOhTLjgQqgxlKEMZkApjHxaJEZnTRXfCU1OgcGlFLoODFLqcaVZ3qQsyg/hLMXJCBI+Z0Q1+5zAQBL/DUYAylNGpk+4Agx9pI4ucP/pIBY8pxtrFiFoZWEeAXRkrYdijkYrRcXv7rOn+SJEZ/M45YRU8lDGHgRUH2JVRLcOte9523mzgE4tnCR4S/IYKHsooyLAvrTLArowqGeEeg74DDOIzMiW9S62b6XzY6gOhylCGMh4N4xo+HNZ++KHNBZYPDDq/3orpxIe5zIicE2aOc3s5M4sEmLfym7k/uqyFYV/KDug+NkY3+K0MZZyCIaM/+SDxZwD8LgmjnZ9V/q5t3VnbTUlcMVdUAeYFQonmCR5LMnKvlb2+j5oxN/itDGVkMGSDVVd+K3KwPXK8L6Ig5VTw2y6LcYLHIcFvHDAczmHwAts0hYxcoeBQceiSGLnBb/uSMpSRy4jKh65wOd4XswSPoTVfcwOhcwWPXMYc4UYZyzJyg9/KUEYm4x7o7zw/mAmS+LBLCYQqQxnKUAaADF9gifnNOWEVPNYtRizNuKQAuzLWxdgmX41PQAWPSoWCS2FcSIBdGStkDHaAcwUP2/Oq4HFhYoQKHsq4RIYcyQ7wUDFCBQ9lHMK4gAC7MlbGsHVGjdFnjZiY1xsIVYYylPE4GB1O2hidaJ7gQeQ3TM3ddACYt9UNB5uyYmaA/dQM+9LqxYg1MxKr/ZWhjBSjsX2WzwQJji1m9KTBCavgcQFiRE0MXECAXRnVMRobI5RMNzMC7PSM4nrWWzQoR1fw4AVMy6GCx6Ni2JdWGWBXRpWMBmaQI52fN0aH7fzkDaLhzs8esw3FMVPwOCaL5BKFAmXkM84dYFdGlYyn8Oue3ee7XGDbM05uhAAVPJShDGWsk7GD2e/A9XENe2Nit0XM0IfZUWIkeKDwav9uFglmCh45DFu2qqyFSxEjziF4KEMZGQyZWkd93EHG6EsIHnxiz4hTiyqXIkao4KGMC2L0BnjZxuhYSPCQDjmXsbTgkcu4FDFCBQ9lXDJjcjMEdKaLKngooyZGJQF2ZayUMbgd1gUHQoszbm+fgUgZp2SwcRGczeDALUwZyuge29SLMiVNjcomTniWSTaOCLDPZfA8w+STrmBPCQWZw/qLY0xlDt3e9n9Xcxg2bKMMZaTqpDtAUXsxI0jJgU/IXKHg1IIHTmzKXEIomBrWXyrjECEtcwqkDGWMHWlj9OfGG/iG2X8YCgse6ExJTyl4hMPhUzGkHVOM29s+o7RQcGkMBB0sRm6EUEhThjKGGLZOA7uaZdt5s4HvyCAfdqrgdzglvQQGM3YTw3RlzGQAAHOe+TpRHOpQhjISjG0w62yp8+Y1/KgwuW6mU94Fv6fWfF2K4KGiigoeylgnA4iM0XcffvjtNjJGD958yTyZFRIFvzM7v9miCg5Y+c0+u+VkGR6HMOxL98zjDPvlHi1GrI3RDX7PZUjwWxnK6DIQ/HZt39YCdhnM7e2zxgamG2TkA4eCx9TIz9YZFDzeeOdbz8D8c1EFwoZ2rxq0D+aEN1dA8+QeRHsAm87Hm9faHWj/cgvmBtSAN092aLZtr5w7GCUZDOypU4/B+2b36irBQFwuqPvIGAzek3kNKQYT7c275sfKbuUWg9r9psvgZvPQLefrKqMmBhj/5rX/+I8/RqZ+AJi+BIdnkfTKb22HJkdxY3RMCx4/B6KvyYUBA2j3YCJQcw1uNgBt3CQf7lxl4s8AM8B7MF0BDdmNrsmW5XRdNgxsru3nH85gAJ3vFwCDEgwmki/fF5cXHiGD7CNcGOF37hhSgRkggIYYRCBQUC6uq4y6GGhf/RqAf2//eXJRBaaDjco3gLvvixujI0+M2PibDQDvQbw3f20ae/GDkQYBTGGnxma0YS+yXHgQxeXCupZBAEDHM4gAYoDBEQPtHsQxo1tO6qYY/BgYCBid75xsh2n+Y/eaZyBiMCgqF9VVRnUM2j/I7bWjjCVURHHoiXlc2CTqdX69AZ7kAg9OeeXDcErBg2yr2h2I7anQBmg2kGcOADOCILav2adO+wBiBlNjO6amU65TN2AwbcClGASQ/cIdgxKMsJybbKQZ5t3LZ4BbE8sJGIGyB9i6zOaWMgyYjlW+j6hcp64yqmTYY9Jtkk4oqhxkjJ7Z+WUHv8Gwo4zW3EYyJQ2Hy3bEEHdMu/jCy3uuXFAXDEoweuUOYYDdZ4wypBwSDIQ/IOqUu2BG6x9G8p0z2FUlZv8aDMM8fBAxonJBXWXUy0BztTu3qJLMBAlPAJhvjD4keKQPO+Tmvbk17MgPFihTzbiK3GyceOp0DpIb1E+tPYM65Q5jmO/axE1CRnd0aX8T/pVguhgyOIqZPCZGWM5OncIbr8NgItOfdn4ijst7UKuMWhntZvNw7iySwQ4w/DDb9hKCR6/O3e5VwxIjaDojPwkcQMbQfkqK7qgsKodgkJLoYKPRZVDuQAYBQJvDCEZBo4zw13PhjM537v+fHY647TOI3OiTbZ2wrjCA/u9KGXUxuscSWSRyJDvARE96uuyL9mGLzTW4aYBmIw8Q9ySJ4mzJkQYBbkgejujMV2GmcvbC2yB+styRjG7QmGA7dWIQBXWlE008PaOYWrfuo2DIhTXlKWLATbPYfh9huaiuBPFJGTUzRo6TZ5Hc3j4DEdLG6OhLx6fNjAimvT5QzsG//EijCsEjxaAEgxB3BmDzX6VixLkYaw3iK+M4RrcPtJ3S0YLHVOcX9FlpY3TMSAvjI7fN4s1VZzjM/g8ZCo6KETL0BmS9EYAoiC9TuV65YNhenOEb0Gcg/AH5X0GvLkus7HIZbEcNANxIMifA7soFr4FNgJ3tzRYH8ZVRI0OOBbfNaiynZe5PgbfI7PyC8jfAvC2tKNw2q3lyb+4k9gWJzAiQZaRRj+AxxLgsMWJphn3IyINlJUF8ZRzPCI6TCx5AbIxOZEeAt7fPYMHhJqCDWSHhtNe24eDtpmBSzwBZCxgdXJ3gkc8IRkFrECPOxCD7PQhujUF8ZRzOWHDbLGeMbvu42BidyGWF7DCREofEOj/5wKETwHAWSZAJQkE/4586IJwlw2MOY1XZFzUx7EOm9qwFZZRn2OOoDA/OzyJxxuhhX+WM0e2xy5jCHid4pKbW7gqz6VjsU4eAOgWPFIPMc3DNYsS5GGsN4ivjSAbvr3BCweP29llXVJHBnUtD6RqjT8FnZXhkb2nF4d/ZB1uB82Z45DKCBhwmFBjWY2TkBNgh5aT/FMaFZUY8NgbtX20BOMEDp902S6bWUdrvUcboswWPIVGF4DubFQgeXcbliBHLM9YexFfG4QybD7yYT0hqm78sY3TmMoLHAMteOfbTXgQjDbbvydVzAwjTMangcWEMWlcQXxmHM0B0dp+Qyc0QOLHOjw4XPFLHJppmAcGUFFUKHt1yRFi/GHE2BiLGmoL4yjiOwZub3YkEj2xRZSoXuLzg0Sn/ot2ZjgaAH/k1sI+IaChtnkwVCB4pBtIMef6tQYw4N0Mu7GqC+Mo4isHU7CdGcscIHuswRqf9yy3TVSfYytL/mUNGIsD5MzzGGAh/QL6zjAUAAlhiZZeb4XEIo/asBWWUZUSDm+C4ve33JXypxuhgbnrb2Ls5ln2cuE7x/ILHIGPlYsS5GGsO4ivjeEb3KCV4rMcY3U2BuldDOkFAOqY6BI9cRvjrcS1ajxixEGPNQXxllGD44/b2GbCwMXrTeXNxY3TePNn5G4WifgZAdYLHGGPdYsSZGPaBssYgvjKOY4THEoJHYIwuU2u/G0zXG5gId0sYo6PZtubymaeCD57bZ1CNgscAQ55raxcjlmasNYivjOMY8rNZQvDoGqMTmbXPdRijux48uGkYSPmERGKEHW3kCR7o1wWXySIJnmaxAGA+o7bsi5oYJnBu/y2MCrMWlFGeQTi/Mbq80NhzbHECY3SM+IS88foXbR/lbyDzbx9vqE7w6DAuQYw4L8O+tsIgvjIOZxCwCae9dALBI2GMfh+Wr8EYfW+vtvmXHfmZzgm9YKsfaMj4209J0R35cViuU1cFjyoYsh3WeoP4yjic8eoaJxQ8gpGfGqNHdQuLKmT771WLEediIGB0vvPag/jKOI6hxuhyyOgvECNkSlqr4NFjkHm+rVmMOBdjrUF8ZRzHsIcao4ORFDxksF2V4JFigN1nrFWMOBtjxUF8ZRzHUGN0ALDDYTVG94zLFjzGGGE5O3UKb7zKgvjKOI6hxuhqjD7ACH89F85YdRBfGSUY3UON0QH3JFFjdHpEDLmwpjxFDLhpFtvvIyxXi9m3MvIZI4cao4ukZP7lRxpVCB4pBiUYhLgzAJv/KhUj1BhdGUsyun2g7ZSOFjymOr8sY3SZ9uIExuiA9wlJGaPH10Y6pn6AneWJk6g7ZVrOQFD3VAzzr2kGgnJBXZZY2WUzXOiI7T8QBNjhRxqO4cqFdRngYeFGGfUxwmNoSytk9CWUofYG5Rs7vfaZIMGxRWbnJ+Vt5zfLJwToGqNH3R2iR8NAgN2/bU6WXD174du9vRvNU8d+cFAuqFuAIaIK+xJBNwDPsJ2CEwrMv3w59+djYtgu1n3ABCP8echrEyKXMipl+MOJpzhA8MBE52cP2eyltR2sGQHKFjF2NCcflmWMbqXmLMEjdcLS1QcPG3tXBNMs+JFG97IRBcNpO9JIBfEtJvqyDK8twnBDf1vOTRtIOo3Y7yQcVZly5OsykBJuLpLhri/bOn0GYD7Tl5N4FNzNBt6b76jxDHcOyqiSAcTTXvtS8S34JN5n67SWs/voo2+bdYBscoElH3hHlG+MTgRI55ezbZZ9qSOqkB0EkvwPQDAqA7zSZKeltjTkHNzqcsnwCFewd8tJXS7J8GueIh0sweAeo1M3zL64dAb5un4kjohh/gvOBWYaFmWqJL6PqJwyqmPYQc8WmL2lVSR4YGLkJx0s/LpnNUYvLqpQ0AEIA2mGebc+MeJcjLUG8ZVxJOMxGKMjEDyQM09PPHVEjJAbxxa0Iw+ezFqI67JnIPxyj2WYI0co8OWCuvx4GVMB9n5w3jOQYPhyyqiZ0TVGt6O55HGI4EEdY3TLONwYnY4VPBInzMDe3RwrETy6DHYU/4NYpxhRIcONHOBfqymIr4yDGYcaoyNP8EiJKscZox8reKRYJL7A4N7q8loFjy7DDelJbugVihGVMADzmWsI4ivjOAYyjNEPFDyyRZVZxuhEKCB4JClumgWCu/BxIN4cYYD9fIJHikFJxmrEiLMxEDHWFMRXxnGMHGN0HCZ4XIwx+u8A/Pv2KzEHo6H2fksSo2iudtxsW3nTF5O/MIB2S7tXRuGgpkVztZOorI9InYLRWELw2X4aMMLw5VzdDAaB3pa6kRjR7r8H3v/LEozTtON6J6JKVIncw6tByKCrHZptS91y8o9jGdT8LNPVT48E8d9fRTtqYDB+ksGfS4kqqzBGD778WYLHUMyvU35L+5dbdIzRfYyJf/Pjd996v9PIaIOGMUZwUWRHCQC4w8gIdmmGfWnU+DmX8cY733ob0hXa6bsNTP/p0//0L/52CUbpdjAbRm6eJ/JTMw9mvPiZL3wFtPnpVBAfRHjtd3/9F49lLNGOGhhvvPPB28T8uZSoQskaB2d4HJJFMjgCdIJHTk+aK3h0GWyN0VmM0W2wFYlLcwijc7OdpB3HMoDpXSvmMMzVs9N3K0Zws5EgcHXtWCj4PY/Ry07qBPGXyVq4DEa7A5jhhjUJIW3pdtijYR4xRkeg9iJj5Mfstso/yBjdrg6C6/+CoWeKMTbS6DKkHZwhsx/CCIfcY4zb29MzhsSI3KyeWtpx6uD3GANEezfiA/pB/NNnLSyRGbEI4+7h7gbbm6Socq52sDVGJxoxRrc/1MWM0U19CuIHZunEECNzI0VYzktkDusPYUiIgCe27JHp4qkYY2LEmtqxRPB7jOGiwgNB/BKMJdpRA8NFfxOiShBRXrIdzhgdqNwY3V6nWaJKilFauDk1I3yyzWG8GMq+4H75QxlLtOPUwe98RjozoixjiXacj2FmeFeo1Rh9G7y5ZXYxv3tg3BgdHcEjs/ObyCIxnaCbfuxfXocMTNxseYxenWzh5liGfWmOUDCLMbylVTnGKduxYPB7lGGUTvuB6GdGlGAs0Y4qGNun90bY9CIS/B+LtgM+rNcyx9thuTmxnZrkdH6zBY8wSCm99Wdf/+I+vFH90pI9aP9KbDtV8MhlJLIvuv3gKtpx7iC+XDNZuxYE8VcpRpyJgWbbDmaRMDYLt6OFyQV25d1mCLZnHIzLhB92qOCRElXIZoLIwyEM4tujKsEjlyEjpiVFFR7IvpCnigoe+Qxzg3I6M2JF7Tg3I9zwAtTJIgmM0ZdoB/OAMToAEA0HD7sfFga/5wgeNCiqkBsSR3mFzVV1gkcugxYQCrqMweyLYPnGsYxTtAOVBfHNdG04M2It7aiBIVcrlUUSGqOfuh0wccX77u+wamP09up6UtHJZiTagRULHilGvBI/2NKKGc+fP6uyHTUG8e/a3cY8iH3WQhjEX0s7amG4GYn51/qM0REIBVMnnC94BAcDKWP0ocnGbQHBAxk39DEM+9KoKXPw5RZkJLa0AsvazuraMSf4HTIk+J0ztZ7LoP1L86AnDG4FdSxjiXbUwZCcfvS2zZIZ3jnbsU2+2vkwFBI8UgeD91NG3N0juCiPW/BIMMI8Gj+Ve8Aa2lFLEB/MDVJZC52fZO3tqIUxtG0WbzYP527HYAc498NyBI9UnbvdqysmirbTgSRpU/Jpq4LHCCO53ZQZ8lYheKQYqC2IL7teB1kL3SD+2sSIczGs2ovUtllDgtIS7ZAj2QEmPmy24CEnPBmktMbo6BqjgxLRljoFj2MYcq1yhYIxhsT8TNyvdVta2StahHGKduQGv+cyABNgHwvZpBi8ebKLzL4hwpKZFpdgLNGOGhgy8ksZoyfu78XaYTvZ+o3RizEuTPBIMYKYHzoeHu2a2tFlLB3E52Zr5Mkga8FPRni1YsQ5GHcPd1tutqbzU2P0vqgyZoxOYM3wmMEAOFi4GyiYI/HUGttx7swIM2qB6/UoCOKD9yjBWKIdNTDQPmzNEiI1Rk+LERPG6MHNpoLH1JTUdX7x1kOra8eZg/hv/OUvRs+MZBB/hWLE2RhqjD58wtLVB6mXcNth8b5BZYLHMYzSgkeX8WLAw2NoM4Ta2hFOgejMQXyXu4ogjiVB/BWKEedi8OZJq8bok6JKajssBu3upPyjEjzowOyLQQ+PxHTjUMYp20FB8NseZ8mMkLeGvC9KMJZoRxWMzc09KO0Twsu2Y33G6KFtngoe04xB0/JgBFh7O2oK4odZCxQE8dfWjnMy+iva1Bh9fJ4ucSwGZPnGGEOmWbmM2wKiSg4jiJXNZtiX5mdfDJqWF2QUbkddWQvmIGDS7HsN7aiDEWaC+JUKaoxuDx4zRr96Wp3gsQQDB4oRQ6blIBU85jAgniojZt9raEctDDVGH127NmyM3tPKE4zHKngMMVKm5TZyX2075CGMSoL4qeykbhD/WMYS7aiBEW+HBTVGH6C4tWsguLVrad8oFTyGGCOm5U2t7agyiN8+bEXwSJl9F2FcouCRYJD7U43Rk+XHjdHLME7djvCpc05GcjssY4wuRaprR61B/G7WQhjEL8VYoh01MLqeKmqM7suPGqN3swVlmpXLuC0geOQwwmDrXIZ9qWD2RdIYvTCjXDu4oqwF1/nZ7KQhY/Tasy9qYgD2PlZj9D6D1RgdKCxGmKtng/hqjH4YQ43RyzHUGD1Z3k+z1BhdjdGH65wliA81Ri/GUGP0/hEPVdUYvRhDjdHVGL02BhBnJ9VmjE6dN6/hR4UvP1zAGP3F61/8hwD/CtxWTnJKDAZ+o3m4+7doH2xs5kkrqTU+dySuQe0O9HB3Yx4zjfElbbZtXC6sy6CHu+2xDG62LToMOaYYvtxxDLS7b4YLdwNj9D9hwpdKMIq3w15cd42ZQbsEwz4ZOawHmGHaACMuN4vxJoC3EGYtBEF8tK++UICxRDvOz9g8eYM3T/6mmfaagsF2WF/9+N03v54SPJA58psj3ADeGB1mYOc3QwDqM0Yn3n8ezfbz3GzdVE6GEOSihf52M9sVMcyQG9aRPjAHcpTAfJ335ul0JEPOPmaQ20JpnBE7Ix/KGDRGJ/5hgL5ZglG8HSFsghF8tL/rLIO39qcVMJLh5EyGN/HuG6Pj6pP/vARjiXbUwnD3m3z/9iOWFG6wOmP0jk+IvBneQn6rco6zSDpbQblyrq7tNKxQcAwjlX0ho8suo2ta3huZCgPDQePLY6Q9Iwa3UHIfMMEI7lNlVMhQY3SARozRmRH5B9jePrqQ5iHdutXlbo0RYpndBLJtXTZLRLpCwaGMVPbFkBjhtB0p5+pKp5He0upiGXKpE985h+fgvkO2r/UZgPnMlIeHMipkqDG6o/tRdWSMHq7Ed+cJn/EA/9RhH2wFBVtBSbmwrmVQUUYv+yIpRvTK2bopBj8GRmK7qVT2RUqMSJmWh+WiusqojqHG6HIMGKOja4/J5uI57wt56rDzvgCo6ZTr1A0YkVBwLIOCG1sYlGCE5YSBNMO8e/mM7nZTqeyLlBiRMi1P1lVGlQx7qDE6GEgZo/uxG0M29ow7po73hYwyXLmgLthtbxQyeuUOZgDgHIY5phlhuctmIMFws3D2jKGMgrhcWFcZNTPUGB0Ajxujf8DAf3DDZ1uH2v0V7V9twS1A1GJzs2Nq9v4W84cdom/QvrqWITc1V7t2s3nwHWwwRC/IYMsIO4Gw/hijy8lhEPA17tS1sZk/o/39PyvBOGk7mDZw5VnEMfNau29CBm9udjbALt9JXJdxOIOazzFtPjcSxP/60Ywl2lEH42cZ/BYBUGP0RJ0JY/Rvffzum+9PMThjUS0XyCKZyHEtkhlxDOONd771NTc1Idf5gZj/z9P//Bu/WoJxinbggA0aMG9HolmMu8/88lewefI58ztEL4j/nffe/OqxjCXaUQPjs+988DYx3lJj9CGGGqMDMzIjxhgSZzNiROvECHtF1Rg9k6HG6OUYMvJTY/R+HTVGL8wYESPUGH0GQ43RyzHUGD0Nd6KKGqOXYwyKEQNTjVrbce6toMyoBa7XC4P4aow+j6HG6IkThhqjn8Zfw3V+8Ur81bXjzFtBqTF6YYYaow+fsHT17oErwz/ztFVj9BkMNUY3DBTIKJClHEAQx1Jj9PnZF2qMniOqkB0EkvwPAKsx+kyGGqOXySiQt9QYvQBDjdGfAWqMvghDjdHLMoB0ZsTa2nFOhl/RJiWDLBI1Rk8cEsdiQJZvjDFkmpXLuC0gquQwgljZbIZ9SY3RB45Dgt9zGARMZkasoR11MCgQkfxKBQKrMToAsBqjFxMj1Bi9DMOo6WqMXooxtG2WGqMDIDVGL8rwmSCESFCquB3yEEYlQXw1Ri/H4GDKa64fu22zoMbojuLWroHg1q7xyHRDGPRIBY8UY2RLKzVGn8NQY/RiDHJ/9rfNUmP052qMXpIxuKWVGqPPZqgxejmGGqMPl1djdHOoMfrAcY7MCDVGL8cA7KTAbqgAACAASURBVH2sxuh9BqsxOlBYjDBXzwbx1Rj9MIYao5djqDF6sryfZqkxuhqjD9c5SxAfaoxejKHG6P0jHqqqMXoxxpiHx5race4gfi8TBHEQf41ixLkYQJydVJsx+rb7Juz0hAh3Hy5gjI5m2wbDvmg7LHudqhI8ahZVXgx5eAzkAh/CWKId9QTx094XZRlLtON8DDPDu0LKJ0Ru9aXagcAYncisfd4Gb1ZnjI79y+uQgQoEj2MY9qWTiRGDxugFGadsRy1BfAJcoqpkLYRB/DWKEWdjbJ/eG2HTi0jwfyzaDmBtxuj7V00uI7jZHo3gkWQkTMu7/eAq2nHuIL5cM1m7FgTxVylGnImBZtuqMfqBxuj2qErwyGXIiGlJUUXyVZ1+5CMLxRinaEeNQXxzg/qshSiIv6J2nJsRZ4KQGqNjljH6VXWCRy6DzrDd1KBpebB841jGKdqByoL4ZroWZy2EQfy1tKMGhlyt3nZYaoweHAPG6O3V9aSik81ItAMrFjxSjGQmiN2P6PnzZ1W2o8Yg/l2725gHcZiX7oP4a2lHLQw3IzH/UmP03sFAyhh9aLJxW0DwwIm3zbIvnWG7qYRpOVjWdlbXjjnB75Ahwe+cqfVcBu1fmgc9YdDs+1jGEu2ogxFuh6XG6L1jwhg9eQQX5XELHglGmEfjp3IPWEM7agnig7lBKmuh85OsvR21MJKeKmqMbupMGKNnMR6j4DHEGDBGB1CH4JFioLYgvuysHWQtdIP4axMjzsWwai/UGH2IocbowAyhYIyhxujpIP5YyCbFUGP0cgwZ+akxer+OGqMXZqgxepkgvhqjl2PUboxOiTeuAVyzyQqZ7DTYb5gqgsodMvOHmYG7n/3CV9A8+XKwDiYcBX4J4N+ihxdNc/dHN+B9A9pg//RH77B92oKC3Y8B//d2h+b7f3xND9+7Bgh89dqu/cSPvJT+Xsr5uozyDHTiRiOMeKcRX5dnM74bL9yFTUOiPwDTXynEKNuOYBjgv3cG7YYZiXtnmEHxMz6LQfR3wfh78cJdOGP0zZ9992eOZizRjgoYfPXaL/Dmya9KdlInrPXV77z75teBnngqbpV3yJx92ZdyBjmhMXq77ZTZIjMtTMrTaY3RvwHmb3Bzjfa1T/eWJHBQh2BjNTbgyk8+Bb75lHvqSGFfLqjLjGMZ/eyL8OcTMD756cFtgeK65oW5jJQxOoP/PBG+W4pRtB0UTt3lA8YZ4S3kA+wwn99hxOXyGXHnFwfx2x/48d8rwViiHedmAIAao4+csGjbcjO4u4eDqRzgd5HtXDYzkvN1KLEVFECCib4tw2uLMNw0yZZLihGA+wEJI+XhMbSl1UUy3PVlW6fPAMxnpsQI6Zi6AXYOz0EZVTKARYWb9RmjO4c4wO8iS25y5zopGUXIE5qAjp9Dp5zU5ZKMTvaFaVWSwT1Gz8MjuaXVRTIS202lsi/CcgAGTctTHh7KqJNhBz1O8LDHWY3RI9PgAXgU/GbOGqoOBr8ZvDdPA3OBTMcUjsqCDVPZXHjZ4snlGZJdXd7a3VCaeCuoqJzczDK65AIMd+Lh0D7NEL+TaAoQ1h3a0uqxMOBH4qDGjjSCSrY4kdycnoEuI6qrjNoY1J7WGD2xTGuHTh8XxgBbTG+B1ZOn7YeO1Ym2m+LOujKKarAfacA/dSDTqu7NJq9JFgkBva2gwnLRl7szOCrAcFN4aU2nHcJALKhEdQGAfTbMY2H4TQf637lMvcOxhtmbD2aU0cbfhwwiXDlXF8qokBEaoyNz2ht2fshY1WHjiq6DRaePkw/LMkZHgeyL/tq1ONgaGaOHOZhkLqL9q3vNXHjjfSFZJHKVfTnydU/AYIJrBYcMpHwQgnKubp/RFSMeJcPeGb47NjeRmVb3GXG5oK6siVRGVYzQGH2JzKHU7DbLGB2d1f40IXjc3poT5szV/uGOu2ZUJhee/isYfyi3GYWPEHBD7a4hthtVYrsDbQCmKMDu6gIAtw3t7xv7Wovmyo7Xg3IHMMKvmsAxY+MZobRC/s8GA4y43DSDGc9cTM72SDaW/RLt7t+VYCzRji4DQwyKGb6cZ+AQBu/+Irj9cTBsDMuPZgAGMX37aMYS7aiCwT9GRH/JxYkDUQVELXP2LHL2umQyv/8WIzPVwVS4TplekntOkNJ2fhNBSun8OtMsIjDjH3383pvvpxi2dw9Xft9NrPwWm08ReybXK85l2B1XZjHQX8F+MOOz73xgf6pemIB5Qv/Ra7/3T39+Le04N+Pupz7/VWyuv8w2O6nb5X/nvTf/6hraUQPjjXe+9TaAb5qYehtPrTc3OxrZhu+QDA90wnQ0IdAOdoBLZV+8aPebrjG6X4XEyTphIJRnbM0lI9gc4WZpBuYHdHuM6Clt/9o1Rq+xHTh98Hs2I7k+zse+V9OOGhhmWudHfsHUej8xADlpO6RC77i9fQZOGKMfK3ikTpj2L7dorqJgaxQ97ZwXbCBUGJixpVVOOw5lMOcz5gZ0ZzESYkRxRuF24LTB79kMMUYfCuKXYCzRjhoYUyLXmduR7gAp2N4o94mADMGjc3hj9E6wVVoQjmgOYYTtQEHhJsWgzO2/DgnozmGkxAgxRi/FWKIdhzIwczu2JMNmJw0G8UswlmhHBQwaM0Yn6pVfoh32GDdGZ+8Ql7W9Ue4Jd4OUbush+YEZaTDK2kgxckaXOGBLq1Myjt1oYophBQ84TxWC21y2FGOJdhzLoIzg9xiDARszYCMAULDY24xajmYs0Y4aGF1jdLZAl0VynnY00r8NGqOHw8gczwj70qxts5hhjNFNTwjAjGA4UGOHVn6PjcqY49XlNGNLq6UZuQHdHAbEa4H35t4lsxJ/yMfiEMYS7SjFoJkBdmEQ0cb8IikY+fnMiBKMJdpRAwPy6JAsq/CaEm3O0I6tvXfBPGKMDuQZo3OcPzx7uyluNg+xxhbkF5qTVMEjk+GM0YF+psqK2lFBEH8fCh7dIH4hxhLtODsjNEaPrykAO9Jeqh3wu1y1sGufm/ADmQM/z+mskBtgducXLachwq5/e9runBnYv7wmOszDQ0awY8NhmfaeknGMUDBXgOp7qqQ7v6MYS7TjgOA3UC6IbwQPk+bHrvMLgvgnFCNKtqMGhjNGj66pOZh50XbA91cu602gBxujT52wPcaM0aPblAFZu9YzRq9F8DiUgSWEgtSWVqUZlyR4JBhTmRFraUcNDIgxenhNAbmaRYzRZ7SjZcZ9OAMJN0NoMRZfwvGCBw/4hIR5pUsYo6fasTbBI8XgMAfT9n5OGFlRO+YwZga/sxhjW0GNxVNra0cNDLeZiHscW2EJwBxj9ILtiMqHIsikMTodKXhI5xfXCeVwG8R32+lMG6M/VsEjxYi3HmLzH3GYmbSKdhzCKBnEJ6LN0Nq1iZhqVe2ogSHXS66cEUGAucbox7YDdo/To4zRjxU8xtfmsNtOx0yDN+BtnjH6YxQ8UoxkJogdBj63xuhraMe5g/gv2h262UkDQfyq21Ebw5Tx9/mS7cBAfzXLGP1YwSNV3sRZGKExurPNG5htqOAxwmA2IYUonZAbFTzyGbR/uU1lLUgQfy3tqIEh18tveGK3zQKQY4x+6nb0FkKnPgwnDFKadc9pY/ShaIsKHsOM9HZTD1DBY54x+tRWUGtoRw0Mif+RCJvBtlmHGKOXbsdgB1giEJoSPMLj9vYZvm+N0YFw+YYPRA8xgMcteKQYHGYtsNWBxR5zRe0YYiwVxJfspChrIQzir6QdNTBMLjC8sMnwW4ylU4EXaYccyQ4w8WGFBI8Eo33Y0ubabrUuCegmUNpNleHOBg05AXY7fHYBXaJpwWMuA+gzcgO6RRnWwc2MAFu38au9nutpRwZjThB/LkOykwgUx1Lt39bSjhoYJsTlZ3idLcY2yUoLtMPWqcMYnTu7yEomSIqhgscww8X8ZNpr0+GQYYxeUzuGGFgoiI9m+5ASPCSIv5Z21MC4e7jbSjeT2GJs3y1/6nYAUXw/9gW2J3ANPzLMFjzmBr9h5vdu66FwiaQ7aNktrQ5l2JeyhYJcxtyAru/8+pvLlmIs0Y4w+G1HAMAJg/hdxqT3xUraUQMD7cOWmy2GfEKWbgebVLitDdf0psBbexKTnUZQ/jgxImWMTsHaIRU88mMarvOLtx5aXTvOHMR/4/UvAggfyZ0g/kraUQ1jwidkwXY0RLiWzo9DY3TAG6PbTiPbGJ2O8Alhor0EmgFE22ER7xtUJnikGKhEKHiRylroa0lHMZZoB84cxPchmCBrIQjir6UdNTB486Tteqq4LcaYl2yHbPPXN0a3b8o6vx1GOj979Nb5YSJISTaLJGDYE46fBG47LDBod3cto2Q6IMCOiZEfryTDI5cRmZa76D13fXCqb0fIoDNkRsTbYcEF8Qk2iL+SdlTB2Nzci6Dkr6kd7JjtsJZqx1PA+Z0kjdFb+8bURghHCR6Y6K3N07a1DnFttYJHjaJK17QcCCcdZRhLtIPOH8Tfi+ARZi1IEH9F7Tg7IwpvRcISA62Z4S3YDhncuT4uDBC5LWImPsz11pgpeMBOSaOnbVQjDuLbd8+e4XEog5fOvghNyxNLyYswTih4AKcP4ucwUlkLTF17zPrbUQMjygTpbDG2lDG6ZSS3+ZMPq9MY/eppdYLHHMYpA7opxpBpeUlGdQH2EzAoFDwIySD+GtpRA8NnggRDGjVGj48hY/SxrYeEgYUFj9KMkmIER5kgZhEvS0aICh7ZjDvJTgqzFlyJZC5wle2ogRFvh4XqjNEnN0NAUcEjdcTG6AjXro2nypxF8JhyuivBOFiMoGjlmvnP+IQ4rxcVPDKzkwCftdAJ4q+mHRUwou2wgvAWA+ADjNFLt6O7DrALP6ng8fy5GqMfE5juMtQYvRxDjdFLZl8E2Unw97kao0ON0e1L5RisxujCoAMzCtQYvRxDjdGHDzVGN0dRMUKN0dUYvSZG7cbovTN4bryBn3LHGH2oE7i99TG/nBPuTq3vPvPLX+HtJ75sOj0XtbfTDfo1AP8a3ILu/9+W9q9MLGD7iZavXntpniJwF9I9pRmg9gHN/f99Cmbjj3v9gy/RXLXy5CHPMCd2Ekbn8g4y4lCsr8vAPp/BjN8mayvgwgpm+cYfguhvlGAUbwdgvnf3fZiGADzIiMtJXR7+PuYyQH+Lid5GmLUQBPGbl//r51fRjgoY1N7/NTRXf7+XnWR+W1/9+L23vi6/lxKCIJAVu3TG6NvOm7ON0TsnnB2ktCecNEaHrMAHvszgLxO3wOYGvLkBNw242VplyVRzP04SJzS7cPXqB6yifBUoyuzKRXVLMCDDL446TJ+U0QLbG7SbGyBg9Mq5TpnnMQhu+QYzbDs2INCPAfjtIozC7Yg8oeWvBKA1DN7e+AXeElCnbgXINwW+/kE7zbpC+LuazZD/l7aAIMs3+PoH/1URxhLtODOjG96KthibMEan02z/5ex/uXZjdIDNELr1W+U7s2+GeR/kd0Fmv5wm2ArKlGICE6frFmAMZl/Ilz1lWh7eaGHQ+MIZ4WG+dk5mX4Q3ZyhGRAwgnmZF5ZRRIePsxujb8AODN+8xnRVyA5zYGN0G8ZkAuN2i3R0WdVCQZR/tDrIMLhZVOF23LcBAYqqYECPMaLLDkHLBCBVh0PjCGfLZ0XZTbfx9SFfpyslXCowG2H25xJZWyqiCsaRwA69puKw3gdZpjN7xCZGr7MqTV5LchWd2C6ldTIrgy7m6iISCYxip7IuUGJEyLU97ePS3tLpoBtKeEWNbKJkOuR1mhOWUUSdDjdHNMWaMHvqEwMbfTJiJfdjCbZ6AOIskKtepKwwqwKBU9kXQjoBhB5S+nKtru5OhLa0ulsExg5HOvgjrQjrYFIODcuTrKqM+RgXG6KEIMmmMjiMFj3SQMpxyMcQY3dxsLogfX3zTU5lLKk+dYFTmBA/rkdGrK6MZIBQKjmKE6T6O0Rcj3IjHlXOvJhi4fEY00rDfRz/vltzQIRQj7O2UDrC72mS4yqiPERijn0jw6HZ+6zJGR7P5HQC/b542DBk4mOIMQrul3avGdFhNi+bKmNlE5XxdAA3a+y215jS4udpxs2275WYz5DDfbcRAyAjK+WYzkGSkhYIxBoHe7jKscPM9oP2gBOOU7eDmaodm2wKy9Mg9OIcZm+tdN8Ae1QUfwODX0T68Ho5mOoz3j2cs0Y4qGD8J4HOe5e9ze5zVGH0wFa5zAkUEj1R5M9y2I7+OMToDv/nxu2+9361ze/sMFC9yBoA7jDwRbJ0bGCUINJGpcghjbnxUGMwuQHsU4413vvV2UowA/+nT3/0nXyjBWKIdI+XD+M/JGHef+aWvobl6PRzNhEH8j9996xfX0I4aGJ9954O3CfS5lKhCM4zR7agPKJypMtoBLrEq20wx1Ri9FEON0Y9nQI3RizH8dljoiSpqjH6rxuglGYNiBKsx+hyGGqOXY6gx+tSQW43RyzHUGL0IQ43RyzFMiEuN0VN11BhdjdGr3AoKaoxejKHG6Ok6btssNUYvF9D1nZ8aox/DUGP0cgw1Rk+cMEIxQo3RizF856fG6Mcw1Bi9MEON0dUYfQ7j0DCEGqOXYagxejmGGqPbEyA1Rj85Q43RyzDUGL0gQ43RnwFqjL6IUKDG6MUYaoxeiBGFtyJhiaHG6OhOz+Igvn1XjdFzGWqMXoShxuhqjJ46TiJGcHibSufHaoyOA8QINUYvw6BQ8CAkg/hraEcNDJ8JEgxp1Bg9PtQYvYwYwVEmiFnEy5IRooJHNkON0csx1BhdjdHVGD2TUU0QX43RizHkehFIjdFT5dUYvZwYMejhocbosxlqjF4y+yLIToK/z9UYHWqMbl8qx2A1RhcGHZhRoMbo5RhqjD58qDG6OYqKEWqMrsboNTFqN0bvdYDPjTfwDXeM0Yc+RUZMuSfcDVLCrV2zP7AgE0R+bSnGYxc8UuW5m7VAfvlGLYLHEgw6MojPLkk/yFoIg/grFCPOxbh7uLvB9qaTncQuE+RM7XDG6E3nzdnG6ETRCWcHKQFzw6aM0VlWi3O9gkcpRkkxwgoe1vAJzlNlTE2fy1iiHecO4seZIP0g/hrFiHMxAI6mvYlMkKXbsbX3rs8FDt+Eny6e3RjdxF5U8MhlvJgyLV9JOyoI4u9DwaMbxC/EWKIdZ2eYGd4VajVGb8IPZA4W1U5nhdwAJzZG37+8pgozPOYwjhEK5gpQ4qnid9ZOd35HMR5BFkkqayEK4p9QjCjZjhoYvH16L4KHv6bmONYYfW474Psrl/Um0DqN0fevGtvIqgSPQxlYQihImJYXZ1yS4JFau+amvUDK7Hst7aiBgWbbqjH6EcboUMEjmzFoWr6ydsxhzAx+ZzHEj2bQ7Hsl7aiBEWeC2DG0/CYrMEYPRZBJY3Q6UvCQzi+ukzZGJwCwtnkqeOQxOMhaQJAJEmyHtYp2HMIoGcQnos3Q2rWJmGpV7aiBEWWCyJ8Ec58HxuinbgdM57cuY3TeXk8qOnikgkeKkcwEscPA58+fraYd5w7iv2h36GYnDQTxq25HbQxTxt/nS7YDA/3VZC5wScEjVd7EWdjuvhEbow9tvaGCxwiDGfF2WAyAGxU88hm0f7lNZS1IEH8t7aiBEW2H1dliDDOM0U/Vjt5C6NSH4YRBSrPuWY3RSzHUGP14Rio7SY3RD2OoMboaoy/G4DBrgQE1Rj8uO0mN0Y9nqDH6VJBSjdHLMdQYvQhDjdHLMUyIq15j9N4s89hRAJAX/Lblt3c/9fmv8PYTXw63HgqXxdgXADeagd8w1d7sTHYXZJb1Rfa1dge0icyIbjlZL3IgI/SM6GZfsO/Szedzn+E2gQDSdR8LIxIZAgamxYhUgH1qSytlnJ3x1e+8++bX5R+nFjzkuL19JmGbyo3R3b/ZbqGN2OybzfvuJnIzFDZLabg15buZEWG5cMnIoQwkGGwnTRS0i9kvrRAGKNnhy4RLtrS6VIabWHJoRi6xy/QWSr5cwrS8jb9z93nKqJIhRyh42FEfcALhhtdkjG5ekKcIRyMNADADN7n0cK+FW0GJqCJX3pfzu1FQAUY3+yItRvRNy1MeHqktrS6agbRnxNgWSr47TgfYx4y4lVEXwx5qjA4gNkYHp31C7HtEMB0Z4MpTYisoQqIcwd59bRGGHRTaDhNpMQJ+6uAYrhz5ugBSW1pdJiMUGaSDTTESYkSXwUh7eITnp4x6GKzG6EDnSRAao7sgPiFOQyK2nZK1+wHDbQXV7m1cqoFkRvTK2dfC0eWxjJ4PB8zzLmwHAz3TcikX1U1saXWpjNR2U/KuTLN621LJnwTHIGDQw0MZlTLUGL1/mCdI6586siQBBOJYjHBdJcEJHuaLigWPqJzt+PwSkQKM6OSDjoD7jEHTcqk7taXVhTHMETDgRxorCOIr4xhGBcboYQzQbREz8WFFfULiaykX3jrEMf4Em+333DpBDuJMUpEZ1O4bMf7hZtOGQXwp5+oyA+BG1sfBfLntUQwb9HUj2SGGfapGI16pCwB8NOPHgaQYsQPwB4UYp2/HZtuC5LsKD3l4AUh8H/YDXTl/cpjFYOCHCPxDQ0F8Av+3YxlLtKMGBjN/koh+OCWqLGWMbsN6yW3+5MPqNEZv6Evfee+vv5/LQEYg1ObEnjTD41yMF69/8SFpjE70B6/97q//RK3tOHXwey7jjXc++BXw/mtDQfzvvPvmT6yhHTUw3njnW28z+JtqjD5ywmqMXib7IhYtyD3c1RhdjdHPxVBjdDVGV2P0TMaJgt9qjK7G6GqMjkewbdagGKHG6LMZaoxejuFj+2qM3jthNUYHMGO7qUkGqzG6MGzwezZDjdHLMdQYffhQY3RzTAZ05zDUGF2N0WtiqDF6//OBxNZDrtNj83/shjEqeOQyjOABqDH6cUF8VmP0Ygw1Ru8fbkrKDDVGLyhGDGVfqDH6PIYao5djABxNexOZIEu3Q43Ru3XWKHik6qgxerEgvhqjF2KoMXp8wtFyGlJj9EEGqzH6JCMMfgPlgvhqjF6Oocbo5lBjdHOcXihQY/SjGWqMXo4BNUaPg5QS/wnLqTF6GYYao5dhqDF6OYYaoweCh3R+cZ1QDrdBfDVGP4ihxuhlGGqMXo4RZYLInwSoMXrvYLedjpkGqzH6XMbgllasxuhzGGqMfhqGKePv8yXbgYH+So3R1yp4qDE6cKIgvhqjl2OoMfpEb23WPasxeimGGqMfz0hlJ6kx+mEMif+RCJtqjO6P21s1Ri/J4DBrgQG/67Uao89hqDF6OYYao08FKdUYvRxDjdGLMNQYvRzDhLjqNUbvdYDHjgJwwLZZ3NlxVzJBUgwVPIYZIx4e7amD32sVPFIMNNuHlOAhQfy1tKMGxt3D3Va6mcQWY/tu+VO3A4ji+5Ubo9OyW1odyrAvZQsFuYy5AV3f+XVMy7t38hGMJdoRBr/tCAA4YRC/y5g0+15JO2pgoH3YcrOFGqMj6vy8GDFijG7XDKngkcnwnV+89dDq2nHmIP4br38RQPhI7gTxV9KOahhqjH6gMbrZyr0qwSPFQCVCwYsh0/KCjCXagTMH8X0IJshaCIL4a2lHDQzePGnVGP35M5dFEjDsCQ8bo9Pu7lpGyXRAgB0TIz9eSYZHLmPItJw7PWDt7QgZdIbMiHg7LKBn9r2SdlTB2Nzci6Dkr6kd7Kgxev8wT9vWOsS11QoeNYoqk6blBRhLtIPOH8Tfi+CRMvteUTvOzojCW5GwxFUYo4cBIrdFzMSHud4aMwUP2Clp9LSNasRBfPvu2TM8DmXw0tkXzRaw+yn6Z25hxgkFD+D0QfwcRiprgalrj1l/O2pgRJkgnS3GljJGt4zkNn/yYXUao189rU7wmMM4ZUA3xXBZC2EmSGFGdQH2EzAoFDwIySD+GtpRA8NnggRDGjVGjw81Ri8jRnCUCWIW8bJkhKjgkc1QY/RyDDVGV2N0NUbPZFQTxFdj9GIMNUaf6K3VGL2cGKHG6OUYaoxeMvsiyE6Cv89rMEZPzjEl+E3k7DEB4A6Z+Xj2BLKmi3ef+aWvobn6B2b5xhVA5JL6AXwJwG/Jyny0ezTf/+NrevjeNUDgq9d27Sd+5CUk1caW8/UZ9PCiae7+6Aa8b0Ab7J/+6B22T1tE5XzdogwglL18NgFnMKK62YzvgrvG6HuA+X/Qq/99W4hxsnawLDsx/zD/N8GQcr7u8Yz9D/yFL6C5/jtspyQUfu/m2v7EGtpRCeMXwPwNv0Af4X3+1Y/fe+vr6ByHTnuDmB+Q11+lR4ChUJD7RAhPOEcokBPGiDE6gG8A+IbEtQgAP/kU+OZTYLttlgwSCRL/AiB7dzCDm2u0r33axRUlMyIq5+oewfjkp9FtR0+MCH5MIaPn4REUnstIG6Nv/xy/9mP/pRTjVO0In8ZM0snCfH6HEZeLhbRSDN/MXhD/u2tqx7kZqewkNUbPMEYnGQ2C7UgmNvuW0QUDvpwJ1MCvJUQsqkTlOnUPZETTd2EkxQggZVouD9dwVNrb0upiGYntprqMITEiZADDHh7KqJPBvnbQNywh3Dhj9G3nzdnG6J0Tnr1tVsoYHQiG3sR+NAOAm8ZtmBpdfFvP9J9+K6ieomy3jOrVLcFAzAjVL8fgvWl3wDA/kKCce/XyGaHxuKso33l6C6WgHHxd595m+mB5qA5taaWMChgTxujjcUUAnY1YKG/bLGf/y7UbowMMandA67fKd2bfdrhBIL8LMvvlNMFWUKYUkxue9+oWYAxmX8iXPWVaHv3wGC5ofOGM8DBfOyezLxAwQjEiYsCPNIY8PJRRFePsxujb8AODN+8xnRVyA5zYGJ2tTwgBcFNSd4dFHZT5B9sFloi3gorKdeq2BRgQz4igNT0xwps9RQwpF0abXdzk8hluoiWCiWRfBN+HdJWunHylQG9phXznk1taKaMKxjEZHnbUB2RmkcBrwwKxsAAABiVJREFUGi7rTaB1GqN3fEKi2RXgLiwQXPhgmuW2giL4cq4uIqHgGEauGJEyLU97eAwEjS+VAa/Aj2VfDGUUjAXY47rKqIqhxugAMf47CN+Wu4EYDdpdQ2yKMG13oA3AJLNie5gK9sI3tL9v7GstmqvW9HpBufAxBW4oZOA4RicSIn/G7QgYcTn/kyBwzNg8UgbFDCQYyGQELGXUxth//3/izMbooQgyaYyOIwWPVJDyO++9+T6A90cYd2OM29tns9cr2idIGGwtzkA/oDvKeG58e5WhjMfKOIXg0e38esbo/a55+MOOEjw4I6MAM7NI0AmE5jD4DBkep27HY2bggKwFZShDjrMbo3cZNtzW2zYrPOxU3DEkEDrGkOk7Xbox+oUywuA34BmoeCsoZdTPSGaCdD8MC26nQ5VtaXUoA5VsN3UpDKxwKyhl1M8Y7ABLrMruCh7dQ0ZlnLltVndqzRe4pZUyhhlHBr+VoYzekewATyV4DDFs5zfJYDVGV0YFZt/KWD/D1ml6IsixowCo4KGMEzGwsgC7MupjAGZWaMuf3xidJrbNkgA7jhA86JEYo18KIwx+2xEAcMIAuzIeD4OrM0ZXwUMZ/eMiAuzKqI5RnzH62gSPFKN0O2oXI5ZgyA8UKwywK6NKRq3G6OMMltxcNUZ/lAxaifeFMqpnJI3RKegdG5gtYqY2QlhM8JjDWFrwUFFlXcFvZSjDjipffliTMfoQI3j57BkehzJ45dkXSzDC4Dew3owCZVTPaC0j6uPkw85mjN5lHBMIrU1UWbsYoYKHMi6M0RvgVWGMngqE5jKwsOBRmlG7GLEE4wIC7MpYKaMCY/SYwTOzSGydxQSPqo3RV85YcYBdGStlDG6HpYKHCh4qeCjjkhlSoXfc3j7r5cRipuBBmcboOELwoBNneMxhdAO6pxIjLpGBFWYUKOMiGOkOkAKhILe3hgoeqxYjLoWByw7iK6MAwx51GKOr4FGPGHEpjFoC7MqoluGM0ZvOm7ON0YmiE340gkcpRo1ixKUwzh1gV0aVjK29d82DuPPmNfyoMLluplP+5D4hKngoYy4DFQTYlVEfA4iM0XcffvhtMwIMekY3h8ZCxuhTDBEjphgSYBdGThBfpr2nZBwjFMwVoB4bIwx+AxeVtaCMEzDg+yuX9SbQsxmj5zBqEzwOZaASoeBSGKgwwK6Mqhn1GaMPMTjIIlHBQxlDjAoD7MqomxGVD0WQSWP0JQQPSmSRqOChjClGJQF2ZVTKgOn81BhdBY/LYqCSALsy1slQY3QVPFbBqD3Arox1MrbJVzsfBhU8VisUXAoD9QfYlbFCxmAHWCJIeYjgkcsAVPB4bIwVBNiVsRKGHMkOMPFhJ83wCAWPMQarMboyVmrErYy6GLaOGqOXZCzRjsfMwMoC7MqojwGoMXpxhn0pWyjIZRwjRqyZEQa/qb4tlJSxYgarMXp5BioRCi6FgQsJsCujOoYao5+CUbodtYsRSzDkB4oVBtiVUSVDjdG7B2uGR/UMqiyjQBmrZagxeoqhokqdDKwwwK6M6hnSWbo+To3RT5hFwivPvliCEQa/gfVmFCijekZymz/5MDVGPwFj7WKECh7KuDBGb4CnxuiaRXJ2xgUE2JWxUkaOMXojw0j43aKzBI+cEw7OQ7JIXOc3lzEheIgKBMAzZvid5IxgZzOYD7tWl8iYE/xWhjJKMAa3wwqlY2B8GNmpcw3TAzf2hKeW0yzCyBkOl2yHHSlmM6yo8igZWPHvShnrZQD9hdDhIQ5xrR2V3SNPJGmkPPP4DtO27LUNULZAPiMoP7qRa8iY2445DMAssIR56tzbNikjg4GM74O9mc3k78qWlQWv2b8rZTw6RroDvPVKaSvy8VRPCuu1CfOjbseCmnICbBZey+dOMmwjZWTSji3FEAbgGTntOJTBwQLLOQwg71o9VgaC31UO49bmeSpDGRmMfgcYPNXDTmPwU4Khp/TWo8tpQkan88tiSA8/NjIB4k781IzOhZ/FsCMhZYww5v6ulKGMKYaMLlMjQOl5gbzlMXJIb51T9iCG3Gw55YORySIMO1rM+XxR0pWRycgtD9shK0MZOQwA7f8HSyOWQIJmnWcAAAAASUVORK5CYII=;labelPosition=left;align=center;" vertex="1" parent="1">
          <mxGeometry x="843.74" y="428" width="72" height="72" as="geometry" />
        </mxCell>
        <mxCell id="xLPijeGfnM_CjZ15K6nw-2121" style="edgeStyle=orthogonalEdgeStyle;rounded=0;orthogonalLoop=1;jettySize=auto;html=1;shape=flexArrow;dashed=1;" edge="1" parent="1" source="xLPijeGfnM_CjZ15K6nw-2106" target="xLPijeGfnM_CjZ15K6nw-2103">
          <mxGeometry relative="1" as="geometry" />
        </mxCell>
        <mxCell id="xLPijeGfnM_CjZ15K6nw-2106" value="" style="shape=image;verticalLabelPosition=bottom;labelBackgroundColor=default;verticalAlign=top;aspect=fixed;imageAspect=0;image=data:image/png,iVBORw0KGgoAAAANSUhEUgAAAPoAAAD6CAYAAACI7Fo9AAAgAElEQVR4Xu2dB2BTxf/Av/fSyd67QKGbLvZGEBkioIAsERAVUOTv3gvBrTj4uRUnioqKgoCA7L076B7svVpGd/Puf9+rSV6uSZu2aZO099FH8+4uaZO877vv9+47CKUUJK5FaGioRx5160QU8KV62hyI2oBStwYE1IZAoBGh0EAltB4BUgso/kdrUYW4E/yqCdThL0LhBiXsVKUFQEg2a2fdNFuh5BprzwAVMihRMggpzASqZBIdOU+oku4O+YlxcXH55n+RxNkhUtCdF//QLiFEXxhJgfgTAr4qQGsmj62YkLZm31x9cXxVQCm5yv6W0+ymcEYh5BRV4SgBmkp1upjUuEMJ4niJcyAF3QkgjIBOnbqr4N6dqmqowmScfSsBrKsNdovjnRR2H8IbACSzPzgVFCVegYJ9KfHxB6i8yByOFHQH4OPTx9urTvYANj92BQU6sxm6M2vuAK4j1LZD4BT7NwooSWB2wsHcaxmrTp48mSMOk1QuUtCriMDQLhEqFA5mF3xvpvb2J5Q0F8fUCAi9AqpygN3ktio63erkuEMx4hCJ/ZGCXkkMGjTI7fTFq7czVXwQ+4z7M7u2E2vWieNqOHp2CR5mM/0ORVE2tWrS8O/NmzcXioMkFUcKuh1hprbiHxQxQlXUUWzGHsKafMUxkhI5zS7H7SqBDY1quf9w4MCBAnGApHxIQbcDHULChuhAGcPs0WHM3kZbW1JRCE1nZs46VQ/L05NjNordkrIhBb2c+Pt3aQruhfdSooxjH2I3qI4Lac4BrubHUKr+o1N1nyYnR58WB0hKRwp6GQkMDB+h19FJTE2/jc04jcR+RxAQHAJBwaFQu3Zdfv7zkq+FEdUEQi+z63W1m6r8nJQUs1bsllhHCroNFNneYZNAIQ+yj6svNoljHMmQ4aPglltH8seFBQXwwpNzhRHVkij2JXzvoeg/k556paOIDRIToaGhjfxDwp/pGBQeQwn5iQl5P3AyIUdu3LhufOzm7g6enl6a3mpLZzZFfZinKtEdgyNf9u/CTCmJVaSgW8A3NLRFQGjYO3l6XTyT67cIgVBxjDNx47pJ0JE6dYtU+JoBCVYInU9y1Gj/0PC3OoSF1Uz/hFKQgq4BZ3C/4LDX3VRdFFWVp9jc3UIc44xkZZkLeu06NUnQi6CEtgKVPKPodVH+wREL/fwimoljajJS0BlBQUF1UUXPYwLOzPHnWZNLCLiBYjN6DRR0AwRoS/bPE8QdDjGBfyU0tI9TLJg6mhot6IRM0AWERDyiKh4xqKKzprbiGFdAa6MjNUt1twLBCD+Yl0ez9gd0ivw/XFAVh9Qkauyb9w+OHOYXnLINF3QoEJf2YMvJzgJVxe3mImrXKQo5LyvuHu5Qy7sWP3Q6N7HbNaHQgVL6P2aSbfcLihgudtcUatz2WkhIZ/8CSuexdz6RnVaTqxngxVffgbr1ikLUt2/ZAKv+/E0YYZluPfvAgJuHQN36DbiAa8nNyYFLF8/DubNnIDUlERIPx0JeXq7ZGBejkACsdAOPeQkJ++PEzupMjZnRMSuLf6fw+fmg7mNCPgWqkZAjN27cMD4ui+retn0HaN6iVTEhR7y8vaFN2/b8ZjB56n3w/IK3YdjIO1x5tndj09rYAijYhltyGHgkDqiu1AhB7xgY2S9P1W0DSl5md/QGYn91IEtjp5dlMa5+fds/Di8vL7h5yK0w+/8eBw93D7HbhaANcUvu9LmMXUydv1nsrY5Ua9U9KKhfXT25Po8QeIC9y9pivyOpV78+RHTpzmfUFi1bgRubJfPyc+H4kSMQHxcNKYlly8o0efr9EMleDzlz+hQseudVYYRlbh83idv3Z06fhLPsyLxyBbJzsrkg12/YEJq3ag0dOvpD1+69+QxvYO+u7bD81x81r+SqkBwA9XM1z2N+evqBq2JvdaHaCrpfaMRwQmEhUB4H7jTUa9AARt0xAUIjuoCiWHeyO370CPz+yw9w4dxZscsio8dNhL4Diiana1evwusvPy2MqBho/9/34CPQkgk+our18Ob85/jvsoUW7DY7IZjCntMA0RcI5OvFEY6GxgGlT6QmHl4v9lQHqp3qjnZXQEj4i6DCH84m5P5BIfDEc/MhvHPXEoUcaefbAeY+/iwEhYSJXRa5cV1jo9epg/75mt6Kc/3aVVjx21LjuaLTQXtfP82IkundmkLfNhSe6Enhq1tVaODlbBMMCWUf2gr/kMiPcT1H7HV1qpWg+3eK7HTy/OVNFMir7DIvvrrkQNp38Ifp983hdi6CmlRSwmFY9tO38OHbC+D9N+fzqLNjR9KNz0Gf9Sn3zoJWbXyMbdbQ2ugohN5eJjXbXhw/ls5ncgMNGtnui9K7jUmwL2YDZOba90ZkHwj7cuhD+apuY0Bo50ix15WpNoLuHxr+EFFhMwHSX+xzNBhoMmHKNL5PjeC+9+JPPoRvv/gYDu7bA2fPnIbz585A9IF98Nmid2Dd6hXG56KtPHXGbHBzK3mBOOvGNbPz2mVYedeCfiW4D9+oSVOoX7+hcV8dbx7cytNoCnq9ae++JFrVYRpKPdP5vjMEQpoATA2lMK8fhS/ZDP/1bSq8N5jC7M4Uwpo6NnKIvc1+VK+u8wuOnC32uSoub6P7+Ph4e9Vt/C77eh4EJ71x9R0wiNnQk/hj/Lw//997bOZOFUaZM2bCFOjVd4DxHPfFcX/cGu07dIQHHzHZ5Z8veheOHknTjLAMbpVFdu0GAcGhTBXvCA0a2j5LL/vpO3aj2i02F2NsAIWJIabrrIDdH9xL+abSMwi8sJWg0DkSlI4fblyBh86di8kSO12JUj5u5yYoIiLQs27DDahugRO/l87dexkfxx+OKVXIkdUrfmeztMnuvmnw0BLtetHf3ZYZHdcMnnn5NaZtzOAr9mURcsTWhbherc3FtTQhR67kYokZh4P6y/R6jWAtXmtipythw0funPiHRozSF8C/TFXvI/Y5E+4entDGp53xPCHOtuzG+Xl5sHP7JuM5rnp3DAjWjDBHa6MjtWuX7AYbHtkV7p01F+o3aGjWnpl5hd+I4g9HQ2z0Qf4zLTkR0lKS4Mqli2Zjr13NNDu3REt2v2mnqSmD9vmqVALv7CUwd70C961W+M8P9xPYy1R6/X/Svee081yaqMqza21Tx9Au48Q+V8F5Ps0ygF5NoNJl7GHpq1QOpkmTJmYr4FevXNH0lsyh/Xu5qm8AhdMaOTk5UFhoypRcp67GKBbw9vaGcZOmcrsbwd+BawUL35gHb857Dj5btBB+WPwZ/PTtl/znV59+CF998gFs+vcfs9e5djXD7NwSvVuZz8tv7FZgSTyBg2cJF/obBUXCv/s0gff3Efg/JvQbjxE4cM7sac5AK0WvX+IXFP6i2OEKuJSgd+vWzZ3N5F8phL5StEJaNdRisyO6ieLiVFnBGV1LWRTSjMuX+EKdAXSuKYlsjapfUkx6SFikmfPL1g3r+Or/xfMlSxf6ABjIL8jnN5fSwG01A8eZpn/GXPEoxmX2kl9GE8h1xuzuBLyJQhbgNehqW3AuI+iYFOJqdsEKUOF+qIJFWVyk6tlnADz+3DyY98Z7/OfzC96CZ156jedoszVdU16ueRBI3fplq42oteebNW9ZouupNly1JH933KM3gF5xmzfalmdR6y57NaP02RzV9rYaxWLPmYp9bbXcAcYFUXhroArf3qbC9yNVeHsQ5av3fg1tv4FWEILXYB7VLQsODm4sdjorLiHofqFd/fKpglfjrWJfZdC4STN46PFnYOzEKXwm14LbTpiI8amXXoUO/lgHsWSuMztWq363bl22kPdzmhkdF+NqlRCCql2QKylUtXFTU/KVSxfO8yg1W6in0WjQgaY0+giLcBURdJ+6FBberMIEJui+DYqE3ssNoH19CiP9KLx+E4WX+lHoYLvrfsWgcLueeKzGa1PsckacXtD9Q0J6Eb3+H0pJkSN3JYNCPpcJees2JQtkXWYDz3zwUejctafYZQb6jV/WLGL5+pV+c9CSlWVSx5GSNAltSqk6dazb6FrrwcPT3LQoCfTPN3DdhhV3rX1+7CopVW23Bgr0070oNC7FByi0CQq8ChODKZSwQWE32LvrSdTCNYGBoVVybVYEpxZ0/+Dw3szK/RUIrZK7JqrF986ey21yAxiLvXHtalj+60+wa/tmLrgGcDFrwpTpfJuqJI5r9rPb+LQt0zaWTnCUyck1/X4R7YxekuqOzjkG8G/xCwjS9FrGp207aNzYlGg1s5SFuFbs1/to1fYKlF0Y0YFCM01IEvrKP/yvAtP+VuC5LQr8nUYg+7/iTSjgYwMpPN5DBc+qqXTnTxXdn35BoYPEDmfCaQXdPzhsKFVgOVRBeidFKfoYBg0dDk2aFSURLcgv4ML94duvwvp/VsLeXdtgxe+/wMLXXoLkxHjTc5mw33XPTLPZTiQ2+pDxMa7Ad+3ZW9NbMk00ajYugJU0k97QzOi1atWxuu8ec2i/2fmUe2fzmHPP/9xzDeDn4h8YAtPuf5CZMs+ZLeCV9HcgfQW1fe9Zy3+LLfTSuM/m6QH+t5/A+ayix0cyAX6MI/DoBoXfAAx0bwnwVE8V3KtA2CmB1oTofu0Y0vk2sc9ZcEpBDwiOHMkkYimhpFKTNKIdO/6u6TB95hzwrlUb+g8cyttxm+qbL/7HhZtSczdPdGL57qtPICn+sLENXUTHTZ6mGWVOSlI8XL9uclHtf9NgvsVVGnhTCAvvYjxPTUows/dFblwz/Q4UcnxPlsDIOHS3NYB/P34Or7z5ITz6zMswc86jMOfRZ2D+O4vg/jmPQKewyGJBMldLmdF7FQW5cSqitiNNNR8VrtxnWSi9eDUP4K1dBP49avo7w9g98sFI29x0KwyBpgqo3wWERRZV0nAynE7QgzqFTaCE/sg+uUpd0WS/B5588VU+k2GE2N1sVjb4ov/95zI4kpYiPMMEBnYs/X4xXLp4wdiGJZHwNS2BK9tbNphWtlEAx4zHJDcl07NPf2jZuo3x/NCBvZre4oj2fElbbL//+iN3gtGCNwcMQ/ULDOYr84YVfnTeiY06aDa2pBkd1fY2dU03pN0VUNuRzDzT49bstWsXfU3FwN/4dQyB7SdNwt7HpyhEtopoQlW6JKhT+Hixw9E4laB3CI4YVUiVL9hD63qwncDVZu1WFV7cyPGj6bB35zZjuzUwd9pvS38wm/GHDEdFxLKKumfHVrMbQ0TX7kzY77KYlglfo0//gXD7nZONbdxbLSZKM6o4aKOjep9x5QqcPH4UdP+ZJJYoyM+Drz9bxF1tr2Va9nDLzLgCG9ethrcXvAAxUebq/tUSVt1FtX3Pacufia2gx5wBFPL7wlWr+6v4m7+KJnDyetGIXScBzlWllzqFBsyiWBwQHOFUXnROE9TiG9x5oBtR0dutykrrDLttNNw81NysWswuflSRbUWb2QX55IO34cSxI5oRJnC2RJVYu9KNwr9/z044feoEuLu58xm8c9ce0LS5yWrBrSz0Vrt8yXSjsCc4k+MePa5PYKRdQV4+nDl9gt8wDPi0Lcodhy6z6Avw2aJ3eZ03S2AUmmFGP8ruIc9usX7DsQUU7jcGqmYz81r2EX9/mCnLVi7fIKYPPtdbhcc2KnDFtt1Du8JuM5dVBe5Oi3OOYpBOIeh+QaF9iaL7gz2s0nI6OKM//vwr0LBRkZWAs/PC1+eZzbylgQL5xHOvGGfyLf+uhX9W/SmMMoEr3HfPmGXVfhZB//Jvv/wELpy3LdOMo8GVdtzvNrA0gcCKFGvzr+3gPvprN1G+1WZg5ykCnx4iUGjFDA9sTCH5csV/d3lhJug50Kt3piXF7RT7qpqK3WrtQGBoaA+mY/4MVSzkCKq5fy9HJaIIjMUeNQ6zQNsOuo2eOHbUeF6aEw3axR+99xYkJZacbRhj1jetXwPvvz3fZYQcaV2HmrmvVlRtN4Cq+Nt7COQUmF4PM9Y814dy5xlLOFLIEVxMZhPYMn//CFP4ooNw6IzuH9atIyksWE0JODQEcMbsuWYpmzCQA6O2bEVrAqCa/dpLtuVrw6i2wE6h0LatL08sUagvhPNnz8AJZl/jqr42SMWVwC2tyGbs+21I+YxeFroziyUjj0JahuXnoefbs31UqK/xBE7PAJi/Q+Hbbc4JTaOK+61pcQdLTxBQSThM0NF3PU/VrWEPS3YtqwLQGw592Q1ZXNA2ff+NeXzGtwW0XXF7CsH99xefqhH1ye0O3iDeZ2o/7pG/tsu6stm8NtrfFFrWMV27+8+x5+61brM7GqbG79cVeoxITj5wSeyrCqx/mpUIRv7kqsoP4ARCjuAi17ZN64znDRs14s4ztuLhYZpesrIrsGFcwxnVscgDDve/tVFvIngjWLCTwAXNajpqAv19rD/H0TA1vruqK/jWUUUjHCLouaD7hABxKi+izevXspn8svF8wM3DzLzSSkKbDfXyRfPkDBLbQEV9UDuToN4fSaFpCek9cSX9XWEGH6x5vpMy8uSFjI/FxqqgygUdk0YQFe4T2x2NuDCHarwtC3MYzRYa2dl4jpldJWUHRRSdXQyCW8cd4KW+KjQqwYHwxDWAZE0eD20mG2eF2cqz/IIiXhDbK5sqFXT/0IjRCtBnoegG7nTgApx2NRy93dD90xroOjrtvtlGp5fc3FybkiVKLIO+6rg3bgBt8fn9VKux5ngRNda45xsCW5wc3Nx50S8kcozYUZlUmaDz5HoqfIRZOsQ+Z2Ll77+arXaPGjvRYrIHjFh7+OkXoWUrUzarjetWmSV0lJQddIT5Ic40s6PNvmAAhXvCioepDhei2mJdx2ryYu/wo4CwMOtJAO1Mlay6t27dupZ3/Sbr2B24n9jnjIgec5vWr4Z1q1dCw8ZNeErkvjcN5mGbWnAm/23p9yUGnUhsp0crCg8wO7225h6LiSNTmap+6jrhgS7hzalRNcQU0s9sUuC0C91n2dvZfe1So6EXLmyu9L+6SgTdv1P4N0DJDLHdWRE95vT6Qh7YYcmbTWVTz4a1f7ObwT/FIt0kFQPLNs0IB+jZyiTQlsDZH/3bNx0vaZRzQgj9NiU+9l6x3d5UuqBjBRVQyUfgpHa5NdA2xzhsa6Dwx8fGMCFfZZbIQWJ/MHXUSD8VurUoyjaj5eQ1gJ/iFYg6b97uQqiUkjlpidEYzFVpVKqgYy00osImSqht+1ROxowH/o8vyBnAOO7kxDiexw2roGQLYaGSysVDV+RL39SbAupOKORnb7jU/GGNS0RRhqTERdnujllGKk3QMTXz1ez8f9mvuEnscxUaN2kKjz87j0d0IRi2ufCNV3iIp0RiVyjd5alTB8XFxdnmjllGKm3V/VpWwRuuLOQIJnXcttlULhvzq908ZJhmhERiJwjpk0d188Rme1Epgu4fHDmUqevVwuEbq5NgIQUDNw0eZswrJ5HYE2bmPuYXFGG773UZsLugM5W9Pij0fajCSiqVCQap/P3nb8ZzdI6547/KqBKJPaG8Egx9t2lQP+s5wMqJ3QWdqewLgEInsd2V4R5zmmSQ6CxTksecRFJ+SGgDcu0VsbWi2FXQAwLCB6iEl0yqdqxc/qtZ6qTR4yYWq6smkdgH8mCHwIj+YmtFsJug4yo7dVPeJAAlxBy5LnJhTlJlMBXeTaHv2bOQo90EPTM7/yVmZTh1rfKKol2Yw3TQMYcOCCMkEvtACemer7o/JbaXF7vso4eGdgnJVfU72WxeVSXuHEZgcCfwqlULYg7uF7skErvC5OmK3oP0To+Otl5kwEbsMqPnqeq8miDkCJZjkkIuqQrYFNxIKaB22VuvsKB3DOk8gv1JY8V2iURiByhMKJKxilEhQSeEKAqhz7OHDsmDJZHUANwUUF9GWRM7ykKFnuwXFPYoUNpXbJdIJHalp29wmPVQShso92Jc586dG2Tl6Q9RIL5in0QisTMEjkC+d+fU1D2mkrlloNwz+o18eFQKuURSRVDoQNxzHxGbbaVcM3pwcM/GhUpONFBiqukrkUgqFwqn3CA/MjEx0ZSX3EbKNaMXKtmPSyGXSKoYAm0KFfeHxWZbKPOM7hsa2sJNr4tiv9RU11cikVQVZ2g+dE5Li7G95C+UY0Z3B/K4FHKJxGG0Ip7qo2JjaZRpRsfCiPl6tzhKaEuxTyKRVA2EwunaXkpoVFRUpthnjTLN6Hl63QNSyCUSx0IJtL6Rp58ttpeEzYKOYajsVnK32C6RSByBMq0slVltFvTrufkzmNJQZSVkJBJJSdCQE2czpomt1rBZ0PV6YvOLSiSSykfR0elimzVsEvTAwPARhEC1TiohkbgcFPr7B0falObIJkHX6yimPa0WJTEkkmoEoaDalJK41O01f/8uTcG9MJENLao4KJFInAdCr+gVGnLk8OESq8+VKuh+QeFPE4W8LbZLykbtOnXA08tU4Ds3Kwuyc7I1IwB69bsJWrU2eRYXFuph/+7tcPbMaWMbhiXXb9CA2Wc6Y9vVjAxe9FFSQ6H0idTE2PfFZi2lCnpASMQeNqKn2C6xna49esH4u6ZzITWAgvn9V5/y1FSIf2AI3D+neHDSubNn4IO35hvP75k1F4I7hWlGFGWoXfTOa5CXl2vWLqkpkF2pCdEl5oUo0UbvGBgxmAl5d7FdUjZCwjqbCTmCFV9CQiOM5/Xq19P0mqhfv77xMRZ7DAoxVXc1gMUgW7XxMZ4TQqB9B38Ij+xqPNr4tNM8Q1K9oL38g8NLrHNY4ozuHxLxKftRocwWEoDpM+eYCbWBvbu2wfJff+KPcdafMGWGMAIgJzsLXnnucf7Yw90DXl2IpeaL89XHH0BaahJ/fPPQETDsttuFEQA/L/kaog/sM563adseWrdpazzPz8+DhLgYyMstm2aAf1dweAR4eZpMk3NnT/Ey0wbq1qsPd941DZo1NdWty2bvbdWfv/ES1JKKweT4o7TEWKuRbVZndEImoBE4VGyXmNOIzab9B90CA28Zzg8swti+Q0dxWJXStn0HsYnT3tf0d6GQz338WRg7cYrxmDT1Xpg6o0yelZw7p0yHu6bdb/Zacx59BvwCgoxjuvfsw2vN4+dlOPBvuGX4SM0rScoL0xiH/yezFrEq6P6dku9gPxx7xboAsx56DEbeMR5uHTWGHyNGj4XZ//ckV6cdhS37oC1atuIqvkhLjQmAoPC/+cHn8PaiL/jx1oefcQ1FUUzPbdXKcmqClpqFRXcPy0VHxLJWKPzDRt5h/DxvHTkGAoJDzMZILEH9/UNTbhVbDVgVdKoHmzbiazJoZzdsVHzXUVEUPmO5OnXq1IXO3XqaCTWuNaAZ0qRp6ZHKlm4kJYG/5/4HH4abh9xq1JAGDhkOM2Y9zD7nRuJwiQDVU6tpoS0KOjrLUwJDxHZJzQJvZNYoqa+8eHp6gXet2mIzvwHUb9BQbJYUgwy3FuhiUdBPXbxyB7sXtxfbaxL16teHmXMehf978nmz45Zby25TaheltBw/mi42SWzAzz+ImUdPmH0vuH2Ji4I1G+p78nymxQvUoqCDCoPEpppGh44B4BcYzLeltEe/m24Rh5bKlg1r4fNF78JP335pPD567004uG+POFRiAyPH3gkd/ALMvpduPftAWJdu4tCah6IOFJsQy4JOSImb7zUCjV2qxXJr6eAWUmz0QeNx6sQxcYjERjw9vMQmjpeneXtoZBeTrc+O/gNvgbp1LfsrVBtU6Cc2IcUEPTS0cyRQWtwrQ1IhvLy9zbaWPDzNV5sl9gWr3uJWoXH1nh0jx4znuwjVGQIkwi8iopj8FhP0fFWPe+dW9+OqA+hhhqofquaGw7ejv5n/uD2J6Nod5r3xPjzz0mvGY97r7/HfK6kcGjdtJjZxrLVXH6gb0dNi/i/FBJ1SYnHqr06MumM8X8zBxTbD8cDDT8KQ4beJQ+1CeGQ3vuWmBW82YeGdzdokVU+X7r3g3gceNl4H9z/4CPS9abA4zKWganHT2+zqa926Wy029/fWtlVH6lix0+rWq5wS79p9aC3ESrukakBnHVytRzXfoNn5B4XA6LETHOrwVGEo9PP39zezDc0EvVbDAlxSbqJtk7geWVk3xCZO1nXL7TUVLy+vYpqWAUv7+a4CIdCMetYy2zkzf5d6kLpkNWDt6r9gz85tZqv82zdvgO1bN4hDJdUUpRC6mp1rT6giBb06cC0zE/5c9pPZvv2qv36D3JwccWi1RV9oORGHtfbqBtWZy7JR0AlCIVLbKZE4IwWFBWITp6Ag3/g4PjYaTp44xrP4GI7r16/B5g1rNc+oxqjQGUXacGoU9IBOEZhgwhScLHFpMFRVu32oTVHl6qz/52+4cP4sXLl00Xhgpp7DzEQxcOPGdfj4vTdh/rOPGY/XXnwKDuzdpXmlagwB36CgsC6GU6Og6ylPFyWXgasBg4YMh4cee8Zs+/CRp1/i+/nVgbjoQ/DeG6/A26++aDy++fx/kFODTBMbIAWgGHfQTKo7pdJ7o5rQztdPbOJoE0/YE5w9LXH96jWxqUoJCgkzc4HtM2AQ1KpdRxxWKt7e3tC730Cz17KUMcjZYLa4UaZNi3EUAo2PJS6NNbWsrPHhtvL7L0tg3+4dZqv861b9BTFR+8WhdgMj1Wp51zIeoq8CJtucMXuumQvs7eMmlcsFdtzkqXDH+Mlmr4XJNzqFOfuSFvE3POKCzo12BQJMAyQl5dKTmHPpwnn4gwm7dpV/07//gKqq4lC7gIkpFrz7P5j31gfG4/n5b5slAWna3JSbTkuz5qUnzBCxlmSjWQvL7c4DDTAsyHFB9+vUOZjN6K3NB9Vszpw8ARlXLput2uKByRMrA2v3FXnDKU6XHr2LaSeYfDLQQobcGo5PYHg4n8CLVPfCQtxzqxy9zkW5yGapt+Y/b7Zqi8evP34rDrULp04et1iE4fixo2KT04HBQOhGqk0v3axFS3GY3dBZ8WbTKaUT+bQAACAASURBVJUTlOTCKLSgaD+96BPTKVJtdzAXzp3lK8k/fmNSf7/94mP48dsvxKFOx50T7+aBIVNmzDIejz/7Mvh2sLwoKKk66H92epGNTmm1ye4vrrTi0avvgGIFFEoDZykskSS+FoazVhZYceVwjGlBKynhMBQWWHYOcSZ82vuKTfzzbtOuvdgsqWLofynh+NWvQvWwz9Fum3rfA2aro3iMmTAFfP3KNruEdAqDMePvKvZaOFtJzCFWrD7Rjq5KMi5fEps4GZcvi03Vm//W3v5bda8ego6XnJubxSSY4OFWtsSBbtbykFdSAkIUCkx1dNc9M43qL4ZQaiup2BOrbqT5lttdjaSEOFj207c8X5/h+Hft3/DLkm/EodUbQosEPTQ01INJfSuxX1K1+AcF81RHEZ27GRe0MOHhpGll3/e1haT4w5CalGC2o3A1MwM2MGGoDuBuBSbf/OfvP43Hhn9WwdWrGeLQag1T3Vt369bNXckHdyyDYarkJ3EI1pIWWmuvKFhfbfFni8x2FN6Y92zN8QWvITDjqWFOTmGAAkTpIHZKJPbGajKMLMvusxUF3VZxJ0Cbp++J51+BsAizMG270bxFK5j7xPNmvw/zzTtDMFEeJf4K1VPLLkSSUqFUBVW17NCi6vVik1OCAmFwI8U8dpXF3l07YOum9WZusqg9YDXVyiA0ogvf29dm3m3WvCUMHTFKHGoX0I/ep2078yKSWAdgoOMLHlFCWygE9LKoVTlBF8/9e7YX815D55eTTu7ogp5kT734Krzy1odGN9JX3/kIbh5aOQkyC/LzYM2KP8zcZH9b+j3fUqwMrBd1tNxeUdyt3CTdPSy3VyUK0IaKSpTKyYjozFhxKxUF1hawvvlLTz9itHPnPfsofLTwDcjXJEFwRvwDg6GJkPoYA0N69x1g1iapBlBSXyFUrXGCHnVwL88+gjOv4Th5/CjERB0Qh9oEzlaGlWtXSddkLSmi4lZ5bqToFqtNhtHOt6ND99prCuwjbqAA+0fsqO7ExUbz7CM48xqOj99/C9KSE8WhEjsRFBwKjz87zywZxpxHn4bhI+8Qh0rsDFNUG7IZveYJuj3B+t0vLHjHaOe+/Pp73OnF2oxZU2nXoYPF2bsyXYolRnBGJzVuD71ps+Yw7LbRZq6tQ0eMhgYNyrYuiTbtsFtH8xLLhpXr2nXqcKeXtu0rJ5uL61JcyIuw1u5aoLORJa5mWG6vSgihDRSV0hpX7W/I8FF8dVkbrDJ4GDsfMkwcWiKE6KzWa3OG1daaR9kXU+3Fpn/X8qw6e3dtMx7r16zkbreOhgLxUJg2VTn7DU6Mzoo/vJubcwtnoaq3uj+fl58nNrkcJYmpdkPk3LkzphMNZ8+eNp1Y20Gx1l5BcEEWs+rgLozh2LhuNfdAdALcFfbpOvfVLTGCQr5m5XKeusmQ5hj3offu2g6nThwXh7scKBT43kQwuysmAjHwyw/f8AQgWqH6bNFCOJKaYhxzkn0elpyZjh8vu39Dfp5lYc3NsdzudFDwwBUjKeguxPYtG+Dd1182pjl+hx3Lf/2Re+m5OujH8Mn7b8EPiz8zOtUs+fYL+ODN+ZCtcaHNY4J3aP8eMzX52JFUzSsB3y794O35Zg46mMhj2Y/fGcfkshuLJQ0J/w6ty+7qFX9Aemqy2XYs/n48XAGCMzoBIgVdYpGc3GwotFDCCGfKGzcqJ5Uz+iLEH442usliDvfyRpxh1h6tyy0m8tCm60J1++clX/NIPtxaxQMLQWA5K208+/Gj6fDlx++bbceiRoE3HNeAyhndFfH08jJLdWxp28oe5OflwRI2u6JpoJ09f/ruC7h+7ao43CWJjToI3375MXz16Yf8wEIQ+H6rF4QLuqSc4OxgKZMJ+sBXlg/35On3w4K3F5mlOn70mZd5re/KICkxjpsGWns4LiZKHCZxclDQq0dKEQfxxScf8EqlhuQGuFj2+f8W8oUye4PZc3CPXqRFy1aVlonGXpw9c0ps4pw9fVJsktgdmq9QoC4h6Kie4t63NtPoXdPuhw5+jk1gizM61h43pCvaunEdt+kqA4Wgf5NlNd3Nyn5+RUEHoNDwSGPWm9CIzjzyraygivzVxx+YaQY/ffclrFy+TBwqsTsk32Vm9I4BQdybTZs7HIsGTrx7hjjULlC95VVsVVjdRq84TPnUs88A49HSCZIN2AN04334yRdg6n0PGm+uU+99AB5jpoKHZ9lNhbTUJDNbH4XfUi57iX2hTMYxqMUlBL12rdpiE6d2bcvtFSUlOZEnRtCu2vKaYkw91zJr7hM8iePYiVOMx9zHn4MGDcvmTuuM1KlXz+L7wFm+cZOmYrPEWSHAVHcKzh047SBysrN4YgTtPiwee3ZuM47R6dy437wI2tJNmzl7Xa7SIdSymcApqU/ibBQoCiGu7zspkUisQnAxTqW0emyIVgKYA0ybKAGP8ixESSSOhALJwKCWTLFDAlyoMaunNlECHg88/KQ4VCJxbihkYlBL+fwLqzl16tYVmzh1ypFn3VJwBUKttFcF1nzjaSXVNJc4DkogQ6GgyBm9komNPsC95bRg8cTDsY7zMEtPSYHr14v7q0cd2Cc2SVwcQuGqoiOqFPRKJubgfljw/OPGiDM8FrzwpENz1GVmXoE35z1n9je99tLTsHrF7+JQiaujMNVdpTqpulcBGFNtiCHHwxkin9BZRfs3VZdAFYk5Ktroik49J3a4LtSqPayXtqekhqIAOasAVY6IHa4KJgxY9eeyYt5su7ZthmNHzRMTVCUtW/nAg488bVaXa+ZDj0HDxk3EoVUG5rTDSLinNX/To8+8CKGRXcShEhfHA2ia4g75aChWG51t57ZNxbzZVvzxi0PrfmPSyfYdOprV5fILCIK+AwaJQ6uMkE4RENmlO3dlNfxNeEMaOXqcOFTiwjD9NsPb2y1FiYuLywdCNFn1JPbGw0q9L2vtVYG1GmTu5QhWkTgvBOD0gQMHCnjiCabyWk6r6YK08+1gFkmGB5bKtRbe6SwUFFjWOAoKTNFdPAuslTWIgkLT8y2lf0IKNa8lqSFQ4IkAuKArhFjOCuBioDCj95o2kgyPu++dBe19nbugAuYqS0tJMtZwwwNXwTeuW2Ucg4kMN69fAzduXDeOweCbwzEHeTJEAzu2buQZbrSvdfbMadi3Z4dxjKSG8J+2XjSjq9T1cwVziNWUSp6eXmKTU4Gpjr/65ANjVVY8cF9bGy2HrP9nJbz6wpPGMa889zj8+M2XZg45R9NTeXZY7Wt9+PYCnixRUrNgeuwx/MkFnQA1JcSWSCTVBkr0XLaLkkO6uaMvptxolkiqF3pKPA7hAy7oqXGHktgPh9rpXt7eZimMMaWxRCIpPxTgZFrcwTR8bFh1x3whDvMowQKH89/60CyFMaY07j/oFuOY8+fOWIy4OnNa7gxKJJYglCQbHhvzujPpNzZWNS1atRabOC1bmZIsnjt7hpfr0WYRXbb0e/juq080z7CN3NxssYmTk225vSaB3oWSaoJimrxNgk4Iqu9ODRbO02YRPbh3l1lNLltZ9dcffKVa6z2HNb42rDVtZVV3Th4/ZjEDq1jDTOLCUJNMGwVdRwqxYpxT387d3N3N7PiickRlLzZj2HvW+sNjjS9niCirKtAUevf1ecZSRHh88dF7sPT7r8WhEteEeiqw03BilJKU+PgD8N+emzOCftjz3zTZ8IZj9sNPiEPtgxUPtPKotteuWg4luHrVsakAsPiEobggHkfSUixWF5W4IvRIfHx0jOHMpLojQKMN585Gs+bN+Ywu0qaNj+aMWlXl0ZusLKCXGtYY0woCHpv//UccWiprV/0Fm9avMTM71q1eCds2bRCHuiSXL1suP3X5ouV2SRVASBQXacOpdoYKCIl8iQn7AmNDFYEVQLDyisjBfbth2U/f8cdYc+yue2aa9SNY+vbFpx42njds1BgaN22mGcFU9awsOH3qhFmbPcC87m+8b3kxcPGniyA1OUFstgqaIANvGQqtNDXU9IWFsHPbZjP31qqkfv2G8PyCt8RmzodvvwZnzxTVTatbtx5079XXbEv0zJlTEHvogJkGhFVt6tVrYDzPZabSpQvnjecSO0LhhdTEmDcMp+YGLgXHJTGzExlXLhebhStDyO1NYFAIDB85xqzkVOduPWFSJZWcsieYe24T03QMhSbxwPRZWiHv4B8Az817E/7vyeeNx1MvLICbh47QvJLEbripaIobMRP0nBuXN7IfUt+yMzhbB3cKM4uow3TSWmrXrWN2bgDLH1UH/PyDQLFQCDIwOFRsklQQdns950npFm2bmaCfPHkyBwjs0rZJKs4tw26De2bNNYuowyi7nn36i0NdEm9vb+jdbyAzPYYbj6CQMLMx1sKErbVLyg/7SHfyPBMaiu1NsbuBjGW0EfTUsxYfrt2jbuWjXTA00drHuWua28r4KffAHeMnw62jxhiPGbPnFhN2SRVBi8twMUFXiLKB3RPkHosNYGjonh1bign7sSPpcPKEYxbQ7ElW9g2evVYE03JdvWpKHtzMSkHJps2LF6CUVDakkE3p/4qtxQQ9JS4qmqnvcWK7xDKYj+65xx6AZx6ZbTw+W/SOQ3PU2QssMvHFRwth9Yo/jItsa1YuZ23vWt3G1CLV8qqHAo1JjY+OF9uLCfp/bBcbJM4BrsQ/8MhTxpXruY8/C0NHjBaH2Y2zp0/Btk3rYcuGtfzYunEdd0WWOCfEiuxaFHRFgU1im6vQq+8AeOL5V4wpjJ9+6VUYN2kqe0+uP7so7Iu5k70X3w5+0ManHT982vny6D98XB3AiMUnn59v/P6eevFVGD1uktQObMWK7FoU9JS4gJXsR7rY7uzgxTDyjgnQrHlLYwrjxk2aQY/e/aCdr5843OVw07lZ9A5EvLy8xSaXA9/biNF3Mtu+hfH7a9K0GU+L3dJKhKNEC0lNiw9cI7YiFgWd0mV6SmmV+WeKBQgNlN2vHHPGWRYETyu55CTOg7ubm1XNy0OmoS4dAutQdsVmxKKgc4hurdhUWezatgmiD+03iyZDz6pd2zaLQ10Sa2mWraVllkjKAwXV4myOWBX09MRopr5Tnoamsjl+9Aj8/P1is/jwpT8sdgnXVVvYuW0jXLxw3jz98ulTsHenxXUTiaTsUJqUnnB4ndhswKqgU+4NUnw/TlJ2cF994esvm6dffudVHhNeHbBmYlErzkQS+0MVsp7LrBWsCjqiUPgDZHZYSSmkJBWP0sM9+PQ0h2Unq2motJD8JjZqKVHQk5NjMMhlr9juCPSqxTUGKNSb7kN4Q7NW4/vqNccmeSiNq1aSU2Rmmv7uAmbTY3YcEZxRHfn+Vv31G3zw1nz4aOEbxuOtBS/AmVNFYayIte/luib5Rl5eHuTmFs/yg9/rtWvXxGaJAUp2pydHF3N71WIWj24Jv+CIJwmBd8X2qgYrsNwybAR416pl1n4kNYUv5BnwadseuvToBTpNpNTRtDSIOugU96sSQR+AVppEGoWFeti3axtPjGmgnW9HiOzaXfP+CKSnJEFMlFlUotPh5ubG98gxX4ABFOodWzaYZeDx7egPEV26cZ+BIgikJCfwVF8Sa9DHUxNiPxBbtZQq6P7+XZqCmz6Rfd6mb0gikTgHlFwCbyUk9dChEsPLS1TdkdTUQxcpUVeL7RKJxAkg6srShBwpVdARN1X5GXCbTiKROBMqUOVXsdESparuBvxDwrey4QPEdolE4jC2pibEDBQbLWHTjI5QqvtJbJNIJI6DTdHfiG3WsFnQ05P8v2bTf6zYLpFIHACFOJ/mjZaKzdawWdB5oIsKaKtLJBIHQ0H9fvPmzTYHS9gs6Ii3J3xBKKkefpsSiatC4FSD2p5fic0lUSZBj42NzaA6dYnYLpFIqg5C1O8PHDhg2dXQCmUSdE6e23sUyFmxWSKRVD6EwmlVp/xPbC+NMgs6OtAoiipLbkokDoAqyuK0mJgLYntplFnQEZ3e+0N2azFFLEgkksqHkuPeOv0isdkWyiXoiYl7LzMlQs7qEkkVQgj5CtfJxHZbKJegI/W93dmsDkfEdolEUhnQtAy1dpltcwPlFnRc9SMA5VIjJBJJ2aBEWXgxacd1sd1WbPZ1twRTJRT/4PCt7BX6iX0SicRubEtLjB1UUqqo0ij3jI7gL2b/v8oeun79IYnEOcnXg/paRYQcqZCgI6mJh9ezGf13sV0ikdiFX44kHK5wktYKCzqic6MLmL1+RWyXSCTlh1ByiSpuqDFXGLsIenJsbBIl9GOxXSKRlB8C6ntpcQftUlvBLoKOtGnWmN156C6xXSKRlANKd7Vq0Xih2FxeKrTqLuIfEtGLqfAb2CvWFvskEoltUCDZOj0dnpwcY7dSPnab0ZHUhJg9VIUyhc+VBqYJtlZBVCKpjiiUfmpPIUfsKuhIJtR9md2T4sT28lCnTl2478FHoL1vR7FLInEacDIaO3EKr1tfYQiJybzcaL7YXFHsLujovaMCPMb+4uIlRcpAi5at4N4HH4aN61ZDWkqS2C2ROA2Dh4+E2OhDcOrUSejaozc0aNBIHGITzOTNVgrpExcubL4h9lUUuws6kp4Qu4EZ/5+J7bbiHxQC46fcAz//8LUUcolTU7duPWjWvCXUqYva58PsZz0YNWa8OMxGyHv/lUGzO5Ui6EjrFo2eY/eoLWJ7aQQEh8CwEaNh8aeL4OL5c2Z9Nw0eBi1btzFrk0gcRf36DWHi1BmwbvWfUK9eA1j63ZcQHxsFN26UwyWdwOb0xAC7q+wGKk3QeeI6xe0hpo+UKUg+PSWFfVA3oEHDhsY2rLs2adq9cHDvLl5XXCJxNFhDbuzku2HD2lVw4dw52LZpPfi09YXR4ybB+n9WisNL45yio3MwAavYYS8qTdCR1LhDCSol86AMpZf1+kL4bel3MJKpP6gWedeqDffMmgPxMTHlu1NKJJVAZsYVuHD2DER27QGKQnhbSnI8fPflx5B1o0wmNtYJfhGdzsQOe2LXfXRr+IdGLGaifp/YXhJo93h6ecHosRNgzYo/eMngwcNGgKpSpir9xe6iMm2dxPH0HTAIOvgFwi8/fg0F+eWK7fosNSFmjthob6pE0H18fLw96zVcRyjpL/aVRDvfDpCVlYXhsDB+8jT46duvmMAXwJ2Tp8Kyn76D3Jwc1qfw+tkSiaMIi+gKmZlX4OTxo2JXaWzLvX5l+MmTJ3PEDntTqaq7AXwj1F25n91Xjot9JXH86BG4dOE8+yC7wOZ//4GrVzMgNzcHdG5uEBQcymx3d7hn9kN8UUQiqUxwy2z0uInQuWtPYxvuDvn5B8HhmINlFnJC4ZjqqdxfFUKOVImgI+nR0SlM657L3qDNbwxn605hkZCalADde/eDJs2aw90zZkFs1EH24UbBXdNn8gU6vAFIJPYGrz+kbr36MG7SVIjavweGjbwdBtw8lLfnZGdD3fr1tU+xCXRxpYryaHpUVKrYV1lUmaAj6YnRq1RK3wDuG1A6qJJHdO0OHp6esHHtapjzyNMQfXAf/8DvmnYfX/QIDevM7XmJxJ60at0GJk+/jy+0tfFpC2v+/gM6hXfhJmOrNm2YsA+BUyeOQdSBveJTS4Oyye7V1PioFWJHZVKlgo6kJcW+Rgmx2R8eV+CDQsLg5qEj4PvFn0JczCGYOGUGJCfFw+8//wDr1qyAEbeP42MVRYHadeoIryCRlJ0zp0/B0bRUuHPydEhKiIPLFy5AsxYt4EhaCuTl5MJFZlKWB7z2UxOj3xLbK5sqWYwTIWSCzi8keTmb10eLfaWBQt+4SRPYuW0zP7/l1pGQn5cPp04eg779BkFcbDREHSzzXVYisQheX7W8a8Gqv36DmQ89zq61PDh35jT8s+pPcagtrGrTvNGYshRHtBcOEXQkPDy8YXYhWU0Aeot9ttJnwCBo06Yt/PbzEhh+2+0QFBoOK/74GY6kpohDJRKbiezSHcK7dIMb16/B6hV/wC3DRkJW1g3YsXUj1KvfAK5cuig+pVTYdb7Xy43eWt687BWlylV3A/iGdXrPuwmBcjkKNG3WHHzatofff/kBevTuC7WYyr7o3degSZNmfPFEIikPzVq0hA7+AbDk688h4XAsTLlnFvzz93Jo0rQZNGjQsFxCzkilOvcpjhJyxGGCjiQn7zui6NWptBzlndBG+vXHb6FhoyYQHtkV/lz2E6h6PZw8fhwee+ZlflfW6dzEp0kkJYJbtZkZmZjhmNnmh+H6tUzu7orrQZculsmbm0OBHHcHmJR6+EC62FeVOFTQkaSkwweUAv14Qslpsc8W0PAoLCwEd3cPHr8+btIU+PyjhaDodHxl3kDjJk1NT5JINKAGOPW+B2HS1HuZMJ+HwOBO0L6DP094Urt23XK7XrMJ7JxOT6cmJMQcEvuqGocLOpKSEr9Xr9LpTNjLrBehKrVh7d9Qr15dmDz9fmaj/8rdY3GltF6DBnwMJgbo1rMP97CTSJB+Awfzn2gCDh95O6xb9Rfs3rEVJk+7H5Z+9xV079WbCf4M2LxhLeTl5grPLh12pV0mRL3H3pliyotTCDqSnhyzsRDofRST1JSRkyeOQ05OLmzfsoF7KOHe54Qp98Ba9uXVq18f7pn5EKxfs5KrYxIJ4uvrx68TDHtuwFTzC+fPwvGj6ZAYHwOtfHzgt6U/wI/ffMnbygyh19h0Pis1Lm6d2OUonEbQkSOJMX8TRTeT3Q7LLOyoXiXFH+aPR9x+J6QkxsHR9NQigV+9Aho3bQa9+t0kPEtSk+jKtDoDJ04cg9Y+7bmX5Wk2UfQdcDNv9/Ly5lto5QavXeJ2X0pi9HKxy5E4laAjqXGHfgeVTGT2Tfk8EhiYlWbX9i3ckeZw9CEewz5+8lRo2rQ5zJg1F1q3aSs+RVID8PMPBE9PL/44JTGBJzlB1q76EwKCQrjpl8eEPD01Wfu0snCJKOpUfg07GU4n6EhqYvR6otJJzGYvVywqzuzcQ45p6nt3bYdbR42B/Xt2wd9/LoN/166CvjcV3b0lNYvjx46AT3tf/vjc2VPQomVr/hhDn39d8g1fsI06uE/7FNvBBCuUTEk5fHiV2OUMOKWgI6mJh7eolIxnH+AJsc8W0A8evZl8O/pDvXr14cDeotoS3Zn6lnA4mt8IuvboBc1btBKeKamuoPtqhw7+/DGu16CK7uXtzc+zc7Lhj1+W8BX3MkPhFLtdTMQJSuxyFpxW0JG0pKidiqq/kz0sd5QP3sV//3UJfxzcKYynpTp18gRX4dGgumnw0P9W5J36o5CUE1yXwQQmCOYgbNq8hbEvLTmJq/MG0MTbs2Or8dwWCECyO4HbcWIS+5wJp7+6k5Pj9rtDwRD2gZZrmwKdaPDOjVtr3Xr2hRW//8wDZFb99Qcc3LcbVvzxCzu/Fby8PMWnSqoBHuzG3rBhUfplnMX1aiHfbkUw9VNH/yDt8LKyVw/KKGfYJy8Nh/m6l5Vu3brVz8zK+4bNvGPFvrIyfeYcJvC/8LxfY8bfBSlJCRDP1HkRjIUvLCyA5MR4sUvipKBJdtvtqAQS+G3p98WyD+H+OYaXHjtStG2GASuotpcVJjervXTqtLi4OJeoIuwygo5g1FtASMo7KqWPQjm1EbTJKftv2IjbebYa9H76+fvFcPudk+D82TOwd9cO8Gaq3sixEyA7Owuys7L4Kv4JZgJInB/0blv/z9+Qcfkym809IC8vt6iSyoQpsPy3pdC8eUvwDw6BLf+uFZ9qK5QQ+n3rZo1nOiIKrby4lKAb8AuKeIFp4i+wm3bRSkoZuH3cJC68qUx40SNqyTef84U7jGXHvdTs7BuQeDgWHnj0Ke7bvPKPX/nML3FecFG1bfuOsG3Tv9B/0GBo1Lgp30Zzc3fjCUsS4mL4GMxKVFiQz/vL47fOyGZi/qoj4skriksKOtIxJOw2hSqfMmEv86Y47p/6tPOFQ8xGz7hSXIhR9Tt+NI270bZp2w4G3XIr7Nu9w6J6L6laUCO7cuUiz7jasFEjGDBoKFy/fg2OpqXAbWMmwOJPP2SXBIWcnBxeHgnXZgw7LhWBAjnGjrnpCVGrxT5XwGUFHQkM7NFBr+R9xb5Lu22MN2rSFMYyu33xZ4t4YAxuzaHX3YjRY+FIajJPbCGpegzZfnEVHdXvWrVqw5pVy2HWnMfgg7cX8MAm7CssKIDMzAzox7Szs2dPw79rVvB98orAnr1D5+Y+Mzn2QLlCqp0BlxZ0xNfX10tXq94HhMIsKKfdrqV3v4HcX/7UyeNw7wMPw6UL53gEE27RoAp48sQx6NGrH/eBjok6wFdyW7ZqDefOni228COxD5hVqGXr1ux7OcZm9JYwYPBQ+OjdN/gNuE//gfyGvGPLRp52uW69urBn13Y2qxNeDKSCsG9XWaLPyZx99OjRske2OBEVFgxHg19AWnzMg5SSOdw7qYLs3rGFCzna7Lgts+bvP2HZ0u+hDpvZow7uh+GjxjA1ficX/OEj74A2Pu1gzIS7oShgVlJRsDIPJn7Qgll+h464A1qzz3o/U8O3bVwP4Z278j4U6ojO3dh3MQa69uzNkzXilmpFhRxDTPUAM9MSoqa7upAjLi/oBtISo78gbm4DmZKyRewrD6qqwrp/VsLEu2fA/Q8+wjPPFuTnwb6d2/kiHpbJ3bphHXTp0YvPKIOGjDB7Pm7zoBkgKRuFhfkw/LYx3GMN65jdOXkaV8Uxy0t21g3uE7F39w72uffmn3FHv0Aetejp6cnLIaFtXmEI3eRF3AYfSYj5WuxyVaqNoCMphw8mtmnecAhT217C3Nlif1mJY8L807dfwsb1q2Hvrm28HhzmmN++dSPcMX4y33/FGf2rj98vlpCyR+9+MG7CFJh2/4M8yb/ENnCRDbcyp977AJ+dUbvCskd7dm6F7sxkQlsdZ+x/Vi6HCXfdw2z1WjxwCVNAGQJWygsBwS6bnQAACZNJREFUmsv0skX1vT2Gx8UdShD7XRmXt9Gt4R8cNpRdFe+xtxgq9pUXzDoykNmH+sJCOH36FBw7kgqhEV1g5R+/iENh7hPPsRvAB3zPfvzk6TwfvVy1tw3Mz4aRhz8s/ozHjM959Bn4dNG70Lf/IAgI6gQ52Vmw9IfFZs9BrQpvAOWGkBi1kD6BeRHErupAtRV0pEWLiNp1GqrPs1ngEXZaW+wvL1hQAlXI/gNvYapidrHtG1ycu3nYbVwbQDDF1eRp98FXn35oNk5inRmz58Jfvy3l2583D7kVLl+6yBc/Me0TZme123VLIYfN5ItpYa0XU1P3XBO7qwvVSnUXOXcuJist8fALVFWGsdPdYn95MSQmOLB3J7T2aQv+gUVxzQYiuvSAGE24ozu7MQCbmXDWuWfWXF7rHQtIIpjuqshls/rj07ad2Tmq4RhdiGaQ4fMwsG/XDq6qI7t3boMTx4s8E69fu2o/IQfYpqpkaEpi7MPVWciRai3oBjAKrk3zRgOY3f4SASjuIVNOcOEHfeZTk03mHDpoBHUKgySNf3z/m26G+NhooKoKPzOV86/ffubCjUUi77hzMjRp1qyYEBjAnGYoDOiT7WpgVh+MGDQwbOQdml4ATy9PCAjuBHt37uAFNbVgSifcykRQVbfk2FReCCWX2Ez+Qlpi4M3pydE7xP7qSLVW3S3RsXNnf5KnvkCATGJ6m91D1tB3HlVNnOnR1RZn7EsXLsDfy39j6uhDTAW9AG46N+jgHwjvvPoCjJs0jV3Usfx56Irbu99NcP3qVdiycS2/uHHbqG69erzfmwn75vVr4OiRNPHXVhod/AJ4HHdJoKZSu3Ydo0o98o7xUKduXbh2NZP9rMf9D+JjY5g2Mwe+/eJj8elVSQH78/5gN/x56YnRJb+pakaNE3QDHQMjBjN5e4W9/SL9sBKoxS7+goICvi2HcdA4i+MWEOYOHzVuPE8+iAtNny16x0wdxcWokWMm8LFoq/7+8xKusiIo8O5ubvbZRhLA0sBDb7ud/b7vYeLUe3mwzwOPPAWfL3rXbBwWtSwoyIPIrj3Y33UNOoVHwrXMTO5rsOTrz2D23Cdg5fJf4OyZ01xruXfWw7Bh3Spm0nSH5b/+aPZaVchuFZTX0hOi1ogdNYEaobpbAldXUxNibwKFzgUClRKahvu+KOQI1nnHml24bTRlxkxIio/jC0sGmxP3hB94+Em+bzz01tGgqkUryE2aNofxd03n+/m4TYdq/IzZD/M85OgVNmXGLJ7rDD360Gyoy2ZQfN02bdvzxwguBqIDkAG0jb3/y6yiJTcvh29XoQ+BoUoomhtYf2zmQ49xWxrBSD/0G8Dsu7HRB3jxjCtXLkPbdr78dx47msq9CRHcLlu+7Ef+HsoZSFJBKKo/c9ISY/vVVCFHauyMriUoKKiu3s1jJqgE084UJRWrRFAQcUEPhej+hx7l9nsGExR081y3eiV3+WzVxgd2b98M0+6bA198/B6/ESiKDkLDO/ObAObCQ3AHACOybh83ma9KY1WRHr37Q0pSPISEhvPQWybZ3Nb/jM3MGMwzYOAtcPVaJt93xphtA3ijmPXQ4/z3PfjIk2z8Qn4TwV0F9B8YO/FuOLR/N3Tp3ht2bt0E58+d4emSh992B6xd/Rezx8Ph9Mnj/LXwRrNxnSn+Y9CQ4by6TlxMlLGtcqGn2bX9fS13stCRpZCchRo7o2tJSkq6nhoX+763G+2qUjKvvHnqbAVncYyTzmcC+sVH70M8s2ExuUWzFq3hrntmctdadBrB5IUYmIGg/Y7PwwSGZ04V/XlYe+6uafczLeAeaNOuPS9BhR5iu7Zt4kKGtvX+PTt5TW+ccevVawA3DxsBe/dsZ3ZzLD/HG4MBvOkTpajIRS67EWHarUz2PMMuA6blatqsRVFKphZFKZnQUQVzomNQCUb64Q0Kx+mFPW2c4XGLrLIhlJyhVH3DU6kTjjsuUsiLkIKuAS+K9MToBVCo6wZEfZNQKFeZqLKAPtmo1qPgo32LVUK+/OQDOHYkjdv3mMhSS+OmTeHyxSKB6dl3AGxcv4YJ8rdsJj3BF788vLwg7z9zQafTGR8rTF3H34VqvJenN1/F379nB+Raya6Sdf0GX1DLzMgwpmJqzWZvVL9R0Js1KxJ01EbQpwzNCPRW2797J3vNHNiywTyxw+GYQ3Dh3DmzNrtC4BT7zt4gqlsECnhc3C77LdNXA6SgWyA19dDF1PjDz9PC7BD2Ec0lQGPFMZUJ2vY4Q6L7J2a30YLJFQypj6IP7INRY8bzffnAkE5M0DPA08PDOAN7MNXc9NiDz9LH0tN45VlcuVcx2s5KUswbN67xm8KVyxeha48+MHXG7KK47/RUOHIk1WjDY1jo6hW/821GVM2t1SnDaL+KBppYhiYwDex5N9Urkn1nLyQnH7gkjpBIG90mmO2q+AWGTWZq7Qz2aQ1kTTpxjKPB1XgUusZNmkFW1nU+q+Li3YkTR7mw9+wzgCfPQNUcU143b9mKaxLYhjcVA+i7jzcYtN8LmGmBC3NOCF607E5Dl7Vp3vgjV0rp5CikoJcR/+DIYRTUSQTIKKYumgxcSeWDji6g/q0nup+PJET9K3ZLrCMFvZy0a9e/oUfta5PYxzeWED7Ly2LslQOqFDh7r/DS0e8OHz5c7lJdNRkp6HbAPzj8JvbjTqYXD2UXpHnWBEm5oJQks3/XqUrh70fi48uV019iQgq6HUFb3j84dDBTMUexT3Uka6j0PfnqBU2nBDYSnW5Dm8YN/pS2t/2Qgl5JYA76jsGpo0BRBxIV+rOmcJDqvUghu/pi2M8dRIGNafGBayhdVoGgcok1pKBXEYHh4UH6AuUWotCbmFralwBtKY6pEVC4zC67g+zBVvAkK1Kjo2UZnCpACroD8Pf396S62n2Im9pZ1UMXhSid2YWP+aYsb2q7MujIogL6vR4CRYmC/BtrU1NTizb3JVWGFHQnITg8vGthoa4XE/hgdhrw36KeD7iO8OsJwEkKBMM/U9mlleDmpt+bGBt7UBwoqXqkoDsxHSIiAnUqiYBCwNm+PTtasRmyDQXaiglVQ2F4lcCulgz2u08DJafZ33KaPT5GCUlS3WlMenTNivF2JaSguyDdunVzz8rKDyoguo6U0BYKURsw9bgBoUpDlT0moLCbAK3DhmKcKvuCiSf7wVOkkv9y57HGrKJXI7nsDFVpjGa5xn7coKBmMHMig1I1k+kTGSpVrhJKznkSmurt7ZZy4MCBgqLnSlyF/wdswkpRKUar/AAAAABJRU5ErkJggg==;" vertex="1" parent="1">
          <mxGeometry x="680" y="512" width="70" height="70" as="geometry" />
        </mxCell>
        <mxCell id="xLPijeGfnM_CjZ15K6nw-2123" style="edgeStyle=orthogonalEdgeStyle;rounded=0;orthogonalLoop=1;jettySize=auto;html=1;shape=flexArrow;dashed=1;" edge="1" parent="1" source="xLPijeGfnM_CjZ15K6nw-2110" target="xLPijeGfnM_CjZ15K6nw-2104">
          <mxGeometry relative="1" as="geometry" />
        </mxCell>
        <mxCell id="xLPijeGfnM_CjZ15K6nw-2110" value="" style="shape=image;verticalLabelPosition=bottom;labelBackgroundColor=default;verticalAlign=top;aspect=fixed;imageAspect=0;image=data:image/png,iVBORw0KGgoAAAANSUhEUgAAA+gAAAPKCAMAAAAwGYDrAAAADFBMVEVMaXEArdQArdQArdTnwP93AAAAA3RSTlMApk0KRuKcAAAACXBIWXMAAHJkAAByZAFUE4h3AAAZCklEQVR42u3d4XLcOKJDYZN6/3eeSpxkZjex3bFbEgl85+etrb2bFsEDoR3n5QV9zDnG8YMxpg8EyEv5r4z/QtaB+Jh/R9SB+JiLOpDDOzH/VuB9QEB8zkkdSKjtx8dIOpCfc0kHGnIu6cDWHIekA+mMh4N++LCA/Jz7lg2IL+7KO1AhdOUd2JP5dzlX3oH44k7pQENxp3SgQuj2OKBA6JQO7MY8DkoHCN0eB3QKXXkHtuL4LMo7kF7cKR0oKO6UDlQI3R4HNAhdeQc24fgaPkAgvbhTOlAhdHscUCB05R1Yn/n1nFM6EF/cKR2oELo9DmgQuvIOLM14UtApHUgv7pQOVAjdHgc0CF15B5bleCY+TiC9uFM6UCF0exxQIHTlHViR+eycK+9AfHGndKChuFM6UCF0exxQIHRKB9ZiHgelA4RujwMIXXkHluc4Dx8ukF7cKR2oELo9DigQuvIOrME8N+fKOxBf3CkdaCjulA5UCN0eBxQIndKBu5nHQekAodvjAEJX3oHlOa7CRw2kF3dKBwqKuz0OqBC68g40CF15B27iuBYfOJBe3CkdqBC6PQ4oEDqlA9czj4PSAUK3xwGErrwDy3Pcg/IOpBd3SgcKijulAxVCt8cBDUJX3oHLOO7Exw+kF3dKByqEbo8DCoRO6cAVzOOgdEBxt8cBhK68A4SuvAO3M5YIOqUD6cWd0oEKodvjgAahK+/AiRzr4GEA6cWd0oEKodvjgAKhK+/AOcy1ck7pQHxxp3Sgobjb44AKoSvvQIHQKR14NvM4KB0gdHscQOjKO7A8x6p4NEB6cad0oELo9jigQOjKO/As5so5V96B+OJO6UBDcad0oELo9jigQOiUDnydeRyUDhC6PQ4gdOUdWJ5jDzwoIL24UzpQUNztcUCF0JV3oEHoyjvwaY6d8LiA9OJO6UCF0O1xQIHQKR34DPM4KB1Q3O1xAKEr7wChUzpgiaN0QHG3xwGtQlfegQahK+9A+hJH6UBHcad0oELo9jigQOiUDqQvcZQOdBR3exxQUNyVd6BD6Mo7UCB0SgfSlzhKB0qEbo8DGoSuvAPpSxylAx3FndKBCqHb44ACoSvvQPoSR+lAR3GndKChuNvjgAqhK+9AgdApHUhf4igdKBG6PQ5oELryDqQvcZQOdBR3SgcqhG6PAwqErrwD6Uuc8g50FHdKBxqKO6UDFUK3xwEFQqd0IH2Jo3SgROj2OKBB6Mo78HI04DFDcad0QHG3xwGErrwDhK68A5Y4SgcUd0oHCN0eBxA6pQNNSxylQ3G3xwGErrwDhE7pgCWO0gHF3R4HELryDhC68g5Y4igdivtB6QCh2+MAQqd0wBJH6YDibo8DFHflHSB05R0gdEoH2pc4Sgeh2+MAQlfeAUscpQOKO6UDhG6PAwid0gFLHKUDirs9Doq78g4QuvIOEDqlA5Y4SgcI3R4HELryDljiKB1Q3CkdijvscSB05R0gdEoHLHGUDiju9jiA0JV3gNApHbDEUToIHfY4ELryDljiKB1Q3CkdUNztcQChK+8AoSvvgCWO0qG4g9JB6LDHgdApHbDEUTqguNvjAEJX3gFCp3TAEkfpUNwF1x4HQofyDkJX3gFLHKUDijulA4RujwMIndIBSxylA4q7PQ6KO5R3EDooHYRO6YAlzh4HELryDhC68g5Y4igdUNwpHYQOexwIHZQOSxylA4q7PQ5Q3JV3gNCVd4DQKR2wxFE6CB32OBA6lHdY4kDpUNwpHVDc7XEAoSvvAKFTOmCJo3Qo7rDHgdChvIPQQemwxFE6QOj2OIDQlXfAEkfpgOJO6VDcYY8DoUN5B6GD0mGJe+r77phzjEHpQG5xn7s2EXscCP1zBXhs/L8dIPRHszIpHYhb4jb/n0/pUNw/GZTNLyqA0B+qvkN5B5KEnvtHACxxH73hUjqQXtwTZgaA0B9ovfY4IF/oyjuQvsRROlCwxFE6kCP0kfNHsceB0D8bjknpQEE2KB2IXuLscUBHcbfHARVC9yPvQIPQKR3oWKntccDG+ku8vJR3EPpna67yDhQMV5QOZC9xlA7sLPSR+gezx4HQPxsHP/IONKRhUDqQvMTZ44Ae6dnjgOwlzh4H1LzFUjrQsEtTOhD5Q+72OKBN6Mo70PHbGSgdinvB+yulQ3FvSIA9DoRe0Gn9yDsIveH8+5F3WOIKRipfsUFxb9CcPQ6E3nD27XEg9IKjT+mwxDWcfEqH4l4wT9njQOgNVVZ5B6E3+I3SYYkreGOldCjuDWfeHgdCL2ix9jgQekOJ9SPvsMQVmI3Sobg3iM0eB0JvOO32OBB6wWGndFjiGs46pUNxLxik7HFQ3BvKq/IOQm8wGqWD0AveUSkdlriGU26PA6EX9FZ7HAi9obYq77DEFbiM0qG4N7ydUjoIveF82+NA6AXH21YBS1zD6aZ0KO4FE5Q9Dop7g8TscSD0hpNN6SD0grdSSoclruFc2+NA6AVN1R4HQm8oqso7LHEF9qJ0KO4N76OUDkJvONH2OBB6wYG2XMAS13Ce3YBQ3AtGJ3scFPcGbdnjQOgNZ5nSQegF76GUDktcw0n2FRsIvaCb2uNA6A3VVHmHJa7AV5QOxb3hDZTSobg3nGF7HAi9oJW6DkHoDSfYCw4scQUzkz0OinuDqOxxIPSG02uPA6EXHF5KhyWu4exSOhT3goHJHgdCbyijyjsIvcFQPjBY4greOSkdinvDqbXHgdALeqjLEYTecGa97sASVzAs+YoNinuDmuxxIPSG82qPA6EXHFdKhyWu4bRSOhT3gknJHgfFvUFKyjsIvcFJPj4QesFbJqXDEtdwTu1xIPSC5mmPA6E3FE8vP7DEFdiI0qG4N8jIHgdCbzih9jgQesEBtXTAEtdwPikdjmfBiGSPg+LeoCF7HAi94WxSOkio4L2S0uG1suFk2uNAQQVd0x4H57Khairv0DQL/EPpoJ+GN0pKB/s0nEl7HMin4Ei6PuFENpxI9yd0zILZyB4H4mkQjz0OhN5wGikdtFPwJknp8CLZcBZ9xQbSKWiX9jg4iQ3lUnmHbllgHEoH4TS8Q1I6+KbhFNrjQDcFvdJlCmew4Qx6PYJWWTAU2eNANQ2qsceB0BvOnz0ORFNw/CgdXh0bTh+lw+ErmIjscXD2Guqk8g5Cb3CMjxsUU/DWSOlQ3BvOnT0OBFPQJF2tcOoaTp2XJeiRBdOQr9hALg1ysceB0BtOnD0O1FJw4CgdXhYbzhulw3ErGIXscVAgG7SivIPQG6ziwwepFLwnUjq8JjacNHscKKWgO9rj4Jw1VEevTtAcC3xC6aCTBp3Y40DoDWfMHgcyKThidhI4YQ0njNLhgBXMQPY4KO4NIrHHgdAbThelg0YK3gwpHV4MG86WPQ4kcrh2PQ4QunvX84D5x8XrgSju3gk9EUrnD6dKx7LH0YdD5fKFM+VMuX2hJRp+7HGgjjp12OPQKvThwVA6CN2TcQXDEkfp7mBC1w9dwh6Os0TobmFPRzvkDEoHZXgLpHQwhnNkjwNhFDdDVzGcIncxpcMS5zL2kEAWnpLaRehOkMdE6VRB6J6TC9nLn/PTqnR7nOOjEdrjoBASumcFQvewPCxY4jwtSocljtLdyxShC7qYXczOjXPjZqZ0TZDQXc0eGT3Qgz0OhO7M2ONADo4MpcMSR+nuZ1jiXNAenApIDJ6cKkbovODReXS0QOieHaV70XNW7HEeFylof65pOClOihcvmHNc1B4gCMETVMkI3SnxCN3VdOCQeIYuay94zgilu60dEUOO69pjVPqoQHkHoTsfmhkIHZQOSxylu7Phh9xd2h6ms0Hobm1K1/Y4wLXtcVIABXieChoDOBf2OBCApufqhlMBSoclzuXtocIS56mqaYTuRHislO7qJ3TP1QXuZc55oHQ3uOOg4bnCPVqngdCVdxA6KB2WOFA6FHd9zT3uytftXOQucufAOXCTU7pmR+iuco/Yde+694yVNkJ3BrQ2EDooHZY47K9097lOB3scVDp40iB0j9qjds17c/OsKd2Lm2dP6W51l7w251p3rXvynrx7ndJ1OUJ3sXvgLngXvD0ODUL31HU4EDooHZY4bKl0t7sWB3sc4kqcJ668o0DoHrgmhwKhCzqlI/9Vzc1uj0OB0D3v2kue0quETum1t7wrvqa9udmrr3mPq6e4u9rtcagQ+usjH8Juj0O20KWd0hG+xAk7paOluAu7PQ4txV3YlXc0CV3Ym46Bp1Ut9H/DPoWd0pG1xL0Zds/WHodkoRO7PQ4lQif27DvfY61e4mSd0lFW3GXdHoeS4i7r9jj0CF3WAy9+Sid0Wad0dC1xsm6PU9yPUmTdHkfosu5QULrLW9SdCkr3OibrlG6P80BJgQCUd8+T1pV39zShOy4UQOmWOFqndCjuhh17nEsb7LClBjw0QtfgGzzgkVninBt7nAsbyqA9jtBF3RGhdNe1l3VnxL3sBUzUKd2u4hGKOh0o70oZVTgnyjuhi7qDQumELuqUDkucqNvjXNNwjLaUAqUTugW+wQqUbokTdV+xuaIh6vY4Qkf1WaJ0F7SoOzGejVcuUad0e5yH5rs2clDe1TCrnFOjbRG6E+XYUDqhizqlW+LgVd0e52IGfeyrCEondMeqwRH1SpdK58pXbC5lkLo9zp2M7pOlZLmSUXC0KJ3Q0XC23LseEwoOlz1O8UKD1JV3QkeD1CndZYxXkUyniNK9XunvlK5duYpJnTDcuITuiDEGpVviJJ0yuvc4xZ1N7HGKOxwye5xLGE6ZPc6TQdkxc9l6MCg4Z/Y4xR0NUrfHEToaDhqlu35RUN8p3QsVGo6ai9Yjwe9Jn/ShvHsi6rvy7sMndPWdQCjdEqe+O1n1e5zirkHqigXlndCJhUTylU7ozhuLHH5nJxw4e5wrF6RujyN0tJ84SnfhouB7Nkr3CoWGF3WfuoeAArvY49QqNCRdeSd0FBw6SnfVouGVkdLdtGhIuo/cRXvVRf0L9Z1SupQ+g/M8v/PhJ/CdtS+AwSmUbon7me1HYv3A1fcj9pJuj1Pc14n3U8L9ZubXSfx02lytZUJ/zfeVKpoL5H06bpTeIfST/b163KfzRunZL01XG/yjuDt6vmLzsT854nPJz/ueuA9qUd7DitRYNeK3pn04cz7tGKFvEPHb0r7/X1GndJfrZhH/37R7c6R0r0sPZXz7D/Qate/+OdnjWq/WEfQrk65Q+yQYSt/s8x4j8K8JnR72yTCUvk2Disz4f3s80fiKrfxaDc/4BWYfzp7yvvatWhLyswe6vc8fpUdfqmUZP7fFD6eP0hcUemvIzwv71gfQV2yRH3R5yE/K+s5Jt8fFVSchP22eG06g8r6E0IX8ZLFPR5DSb75Od/2p9b2yPp1BSr/vBUnIL8v6vh+0PW7vj3jo65dmfdtP24+8b/wJC/n1Wd/2I/cj73sKXV+/KeuUbo+76iLV12/M+rbf/tjj9rpHhfzmqG/7+dvjtrlGqXyFrCvvlH7mZyvkizwbSqf0sz5aKl9I66PuarPHXfLJCvlaWd/3h7HtcesKXcrXi/q+f1hKX1PoUr6k6Hr+pJR+QdClfFWtb/wHtcetdX8K+cIPy6+gUN6fEnQpX/tx+f1xlP71D1XKl/fdzP8jUvrJQR/Ctv7LetfyaI97+mdK5ltEfffL2B53a02S8l0u6N0flB95v+/ylPJ9oj7C7zFKP+0jlfKNHl3AimKPu+Ej5fLNop7/aqK8P/0jlfLdnl7ItyKUfqXSxXy7qI/YG4zSz0q6lG+XiaCb2Vds1ySdzHfarsZ3oh6ZPe6Kz9SPv0F5D/xx0SHmoPSGX0ExdHZQesGvoPj2b3VP/7YK7HHZv4ICUN47lA4o75QOUHro7wAAKF15B06F0gFKp3TMt/HhULo9budgv/7I92MW+PGfHYJvj1Ped4j3w9H+MPYir7wr76sF/Cn5/nPkBV55p/TbI35SwOWd0im9KeK/5d0nT+n2uMuK+q0XNbvb4yg9OuPkrrxTekvGuZ3S7XFnvY8v3M+ondKV9+yQ//tAqd0eR+nZIRd2Sqf0kpALO6Xb4z6T8mNfvLPb45T3VJUb6JR35b1E5cSuvFN6V8qJndIp/Y8hj0s5sVO6PS5c5bJuj6P0rpTLuvLu4ZfEXNa7lX5I+VGFrNvjpFzWYY+TclmHPU7MN8u6mFK6lNM67HEmFFmHPY7MVXjlndI1LVqndJe6Z+IEULo9TmendS3Rha6zu+4VxdpnTOa0TiLpe5zOLuo8El/exVy7s8fFP14xd+sr7/EP1wKnwSvv8UoXc1F31uL3OJ3d1e+4xZd3MRd1e1y80sXc7e/MxT9UMXcqKD2+qZngRN3Biy/vYi7qmmS80sVc1J2+eKX7KThRp/T8pynmDoc9Lr68i7moK+/xj1LMnQ/nMF7pNjgHxEmM3+NscKJO6fnlTMxvOCKinrDH6Urwqk7pPlaIuq/Y6Nyruj1OeadzUVfe1TI6t8op75RO55zgaBY9PjrX3yk9/+nRuf5OQ/FK96NwTovynq90tV3UKT1/j6NzZqD0+Duazh0Ye1y+0ulc1Ck9/7HJuf5O6fFPTW33VZs9Lr+807kiqLznPzM5d2yU93ilq+2iTun5D4zOrXKUnv+85NwqZ4+LV7raLurKe77S5dyrOqXn73Fqu6hTev6jknNRt8fFK11tF3VKz39Oci7qlJ6/x6ntom6Pyy/vci7qynv8M1LbRV15z1e6nIs6pec/IDkXdUrP3+O8nos6pec/HTkXdcN7vNL9Aw3pUe/66y5bPRs3IES9oJ8OOcfeu4+gL/Vc5NzLuqDnPxWv56Iu6PlKl3Mv64Kef/vKuZd1Qc8f3uVcgxf0+MdhhtPgBT1f6XJO635gJv9RyLmoZ2p9w5Pt0wCtFyxPQ85B6+nN/USlyzlStT48Al+rIV/rez4BOYesFxzu6aOArOe/lA45h9f1gvFJzkHrBSPzlHPIev6XSUPOIesFXxrLOe7J+mZh3/1XnE45B7Gnx/yp3V3OEZn1jN9XLudQ4tNT/sTuLueIE3vSvz0y5RzC/qeQZ53pIecQ9mCVPzPoco6Yd/bUfytQzrFg2O9Je1pff+5LupzjJLVfmPaZ/q/+TjlHd5GfySJ/2ku6nGNft3dk/BlBl3NsGfeiiD8j6H4PJK6O+5hfCfz8lvBGPQ05x56B/4vIv8Z7VPdPOUdC6N/E5/PVoMs5kB90OQfygy7nQH7QM3P+68VuvvLWsjN/rjveAZEd9JEV7vml72ysuggN+ojI9wk/cFX7PS0Sgz62DvgVf1lC3rF/0IeA+0lLxAd9iLi/54z4oM+NIj7X+U1k0o6tgj73iPiav1lU2nFTIuJyvpTGhR2bBl3GhR35QR8y7veNIj7oY9GQv+zJFHZcw9w75xuKnNixetDHaiF/ycAbO85m08E9J+TEjsWCPoVc1pG/xQm5rCM/6EPIZR3xW9zNx68j5LKOm1/Rx60hb0q5qOO+5j5vTPlLJ7KOy4M+hVzWkf+KLuV3Ieq47hX98tM2pJzWcXVzv/ikCbms44bmPqVc1BHf3KeUyzrym7uUizryhT6kXNYRL/Qh5aKO+CluSrnv1hHf3KeU0zryhT6knNYRL/Qh5Str3RnGU4Q+pVyDR7zQp5SLOvKFfk7MhdPLOi5j3HKAyNzLOhYT+pRyDR7xQp+X/3+EBo/LlzgyF3XkF/ch5V7WobiLuZd1bF/cp5SLOhR3+5uXdexf3J9xUMhc1BH/gk7moo7Fc/7lb9bI3ASP5Ye4r7pAzO1yiB/ipFzUsUPOv1L4yFzUsUfOvyB0A5xdDvE5J3NRxzY5/2Rx19lFHRvl/HPfrOnsoo6tcj5O+u+FL9ZxCeOcf5ZFZxd1rJTzh86BmIs68nM+zvgvhS/WsVTOp5iLOsJnuL8s7jq7qGPPnD/+7L2aizr2rO1/UdzF3Bfr2DbnL2Iu6kiv7Y8+cwucqGNjnT9W3MVc1LF1zl/EXNSRXtsfedZiLurYXOcfF3cLXPq3bQJTkPMXMYeop9f2j5qbmIs6AnT+/gMW86aoe1nP1fm7QhdzUUeEzt97QxdzUUdMzl/EHKK+W8w/EU8xx1/Ns9hQ538Ouh+PEXVE6fxPz1TMIephOv/96zUxh6jnxfz/HqiYQ9Rzvjt/43mKOd6te9hW5//5RkXMIerBMQc+1gDEHKKOJb9SA0S9ZYMDTPBiDoi6l3OIOsQcoS/roifmsMtBzCHqEHN4WYeYQ9TFHLDLiTngZd2PxwCiLuaAl/VrOruYw8u6mAMavAUOEHWv5oCXdZ0doHUxB0RdZ4cGDzIHrdvZAVEnc2DhrMsymYPWyRwwzJnZAVonc4DWpRygdSkHTsq6lAO0LuaArEs5YJmTcoDW7wm5lEPWqRxoyLqUA7Qu5YCsrxpyKQeys07lwPtZH0IOELuv0QBZF3Jgq6zvFHYhB8Lf2M3rQHbYiRzIDvsgciA67TIOnBz2m9OuqwPJaR80DtwV9yHigLx/OeASDiyX92ckfgg4sEXkXzP/cOp//KelG9g6998Z/+Hn/6032f8AT6wHr3xuNZwAAAAASUVORK5CYII=;" vertex="1" parent="1">
          <mxGeometry x="849.4800000000001" y="312.1499999999999" width="60.52" height="58.7" as="geometry" />
        </mxCell>
        <mxCell id="xLPijeGfnM_CjZ15K6nw-2129" style="edgeStyle=orthogonalEdgeStyle;rounded=0;orthogonalLoop=1;jettySize=auto;html=1;shape=flexArrow;dashed=1;" edge="1" parent="1" source="xLPijeGfnM_CjZ15K6nw-2113" target="xLPijeGfnM_CjZ15K6nw-2118">
          <mxGeometry relative="1" as="geometry" />
        </mxCell>
        <mxCell id="xLPijeGfnM_CjZ15K6nw-2113" value="data/raw/&lt;br&gt;stock_market/&lt;br&gt;XXX.parquet" style="image;aspect=fixed;html=1;points=[];align=center;fontSize=12;image=img/lib/azure2/general/Folder_Blank.svg;labelPosition=center;verticalLabelPosition=bottom;verticalAlign=top;" vertex="1" parent="1">
          <mxGeometry x="851.4000000000001" y="536" width="56.68" height="46" as="geometry" />
        </mxCell>
        <mxCell id="xLPijeGfnM_CjZ15K6nw-2131" style="edgeStyle=orthogonalEdgeStyle;rounded=0;orthogonalLoop=1;jettySize=auto;html=1;shape=flexArrow;dashed=1;" edge="1" parent="1" source="xLPijeGfnM_CjZ15K6nw-2117" target="xLPijeGfnM_CjZ15K6nw-2127">
          <mxGeometry relative="1" as="geometry" />
        </mxCell>
        <mxCell id="xLPijeGfnM_CjZ15K6nw-2117" value="&lt;span style=&quot;background-color: rgb(255, 255, 255);&quot;&gt;mutate_feature_engineering.py&lt;/span&gt;" style="outlineConnect=0;dashed=0;verticalLabelPosition=top;verticalAlign=bottom;align=center;html=1;shape=mxgraph.aws3.android;fillColor=#FFD44F;gradientColor=none;labelPosition=center;" vertex="1" parent="1">
          <mxGeometry x="1000" y="312.15" width="55" height="54" as="geometry" />
        </mxCell>
        <mxCell id="xLPijeGfnM_CjZ15K6nw-2130" style="edgeStyle=orthogonalEdgeStyle;rounded=0;orthogonalLoop=1;jettySize=auto;html=1;shape=flexArrow;dashed=1;" edge="1" parent="1" source="xLPijeGfnM_CjZ15K6nw-2118" target="xLPijeGfnM_CjZ15K6nw-2117">
          <mxGeometry relative="1" as="geometry" />
        </mxCell>
        <mxCell id="xLPijeGfnM_CjZ15K6nw-2118" value="" style="shape=image;verticalLabelPosition=bottom;labelBackgroundColor=default;verticalAlign=top;aspect=fixed;imageAspect=0;image=data:image/png,iVBORw0KGgoAAAANSUhEUgAAA+gAAAPKCAMAAAAwGYDrAAAADFBMVEVMaXEArdQArdQArdTnwP93AAAAA3RSTlMApk0KRuKcAAAACXBIWXMAAHJkAAByZAFUE4h3AAAZCklEQVR42u3d4XLcOKJDYZN6/3eeSpxkZjex3bFbEgl85+etrb2bFsEDoR3n5QV9zDnG8YMxpg8EyEv5r4z/QtaB+Jh/R9SB+JiLOpDDOzH/VuB9QEB8zkkdSKjtx8dIOpCfc0kHGnIu6cDWHIekA+mMh4N++LCA/Jz7lg2IL+7KO1AhdOUd2JP5dzlX3oH44k7pQENxp3SgQuj2OKBA6JQO7MY8DkoHCN0eB3QKXXkHtuL4LMo7kF7cKR0oKO6UDlQI3R4HNAhdeQc24fgaPkAgvbhTOlAhdHscUCB05R1Yn/n1nFM6EF/cKR2oELo9DmgQuvIOLM14UtApHUgv7pQOVAjdHgc0CF15B5bleCY+TiC9uFM6UCF0exxQIHTlHViR+eycK+9AfHGndKChuFM6UCF0exxQIHRKB9ZiHgelA4RujwMIXXkHluc4Dx8ukF7cKR2oELo9DigQuvIOrME8N+fKOxBf3CkdaCjulA5UCN0eBxQIndKBu5nHQekAodvjAEJX3oHlOa7CRw2kF3dKBwqKuz0OqBC68g40CF15B27iuBYfOJBe3CkdqBC6PQ4oEDqlA9czj4PSAUK3xwGErrwDy3Pcg/IOpBd3SgcKijulAxVCt8cBDUJX3oHLOO7Exw+kF3dKByqEbo8DCoRO6cAVzOOgdEBxt8cBhK68A4SuvAO3M5YIOqUD6cWd0oEKodvjgAahK+/AiRzr4GEA6cWd0oEKodvjgAKhK+/AOcy1ck7pQHxxp3Sgobjb44AKoSvvQIHQKR14NvM4KB0gdHscQOjKO7A8x6p4NEB6cad0oELo9jigQOjKO/As5so5V96B+OJO6UBDcad0oELo9jigQOiUDnydeRyUDhC6PQ4gdOUdWJ5jDzwoIL24UzpQUNztcUCF0JV3oEHoyjvwaY6d8LiA9OJO6UCF0O1xQIHQKR34DPM4KB1Q3O1xAKEr7wChUzpgiaN0QHG3xwGtQlfegQahK+9A+hJH6UBHcad0oELo9jigQOiUDqQvcZQOdBR3exxQUNyVd6BD6Mo7UCB0SgfSlzhKB0qEbo8DGoSuvAPpSxylAx3FndKBCqHb44ACoSvvQPoSR+lAR3GndKChuNvjgAqhK+9AgdApHUhf4igdKBG6PQ5oELryDqQvcZQOdBR3SgcqhG6PAwqErrwD6Uuc8g50FHdKBxqKO6UDFUK3xwEFQqd0IH2Jo3SgROj2OKBB6Mo78HI04DFDcad0QHG3xwGErrwDhK68A5Y4SgcUd0oHCN0eBxA6pQNNSxylQ3G3xwGErrwDhE7pgCWO0gHF3R4HELryDhC68g5Y4igdivtB6QCh2+MAQqd0wBJH6YDibo8DFHflHSB05R0gdEoH2pc4Sgeh2+MAQlfeAUscpQOKO6UDhG6PAwid0gFLHKUDirs9Doq78g4QuvIOEDqlA5Y4SgcI3R4HELryDljiKB1Q3CkdijvscSB05R0gdEoHLHGUDiju9jiA0JV3gNApHbDEUToIHfY4ELryDljiKB1Q3CkdUNztcQChK+8AoSvvgCWO0qG4g9JB6LDHgdApHbDEUTqguNvjAEJX3gFCp3TAEkfpUNwF1x4HQofyDkJX3gFLHKUDijulA4RujwMIndIBSxylA4q7PQ6KO5R3EDooHYRO6YAlzh4HELryDhC68g5Y4igdUNwpHYQOexwIHZQOSxylA4q7PQ5Q3JV3gNCVd4DQKR2wxFE6CB32OBA6lHdY4kDpUNwpHVDc7XEAoSvvAKFTOmCJo3Qo7rDHgdChvIPQQemwxFE6QOj2OIDQlXfAEkfpgOJO6VDcYY8DoUN5B6GD0mGJe+r77phzjEHpQG5xn7s2EXscCP1zBXhs/L8dIPRHszIpHYhb4jb/n0/pUNw/GZTNLyqA0B+qvkN5B5KEnvtHACxxH73hUjqQXtwTZgaA0B9ovfY4IF/oyjuQvsRROlCwxFE6kCP0kfNHsceB0D8bjknpQEE2KB2IXuLscUBHcbfHARVC9yPvQIPQKR3oWKntccDG+ku8vJR3EPpna67yDhQMV5QOZC9xlA7sLPSR+gezx4HQPxsHP/IONKRhUDqQvMTZ44Ae6dnjgOwlzh4H1LzFUjrQsEtTOhD5Q+72OKBN6Mo70PHbGSgdinvB+yulQ3FvSIA9DoRe0Gn9yDsIveH8+5F3WOIKRipfsUFxb9CcPQ6E3nD27XEg9IKjT+mwxDWcfEqH4l4wT9njQOgNVVZ5B6E3+I3SYYkreGOldCjuDWfeHgdCL2ix9jgQekOJ9SPvsMQVmI3Sobg3iM0eB0JvOO32OBB6wWGndFjiGs46pUNxLxik7HFQ3BvKq/IOQm8wGqWD0AveUSkdlriGU26PA6EX9FZ7HAi9obYq77DEFbiM0qG4N7ydUjoIveF82+NA6AXH21YBS1zD6aZ0KO4FE5Q9Dop7g8TscSD0hpNN6SD0grdSSoclruFc2+NA6AVN1R4HQm8oqso7LHEF9qJ0KO4N76OUDkJvONH2OBB6wYG2XMAS13Ce3YBQ3AtGJ3scFPcGbdnjQOgNZ5nSQegF76GUDktcw0n2FRsIvaCb2uNA6A3VVHmHJa7AV5QOxb3hDZTSobg3nGF7HAi9oJW6DkHoDSfYCw4scQUzkz0OinuDqOxxIPSG02uPA6EXHF5KhyWu4exSOhT3goHJHgdCbyijyjsIvcFQPjBY4greOSkdinvDqbXHgdALeqjLEYTecGa97sASVzAs+YoNinuDmuxxIPSG82qPA6EXHFdKhyWu4bRSOhT3gknJHgfFvUFKyjsIvcFJPj4QesFbJqXDEtdwTu1xIPSC5mmPA6E3FE8vP7DEFdiI0qG4N8jIHgdCbzih9jgQesEBtXTAEtdwPikdjmfBiGSPg+LeoCF7HAi94WxSOkio4L2S0uG1suFk2uNAQQVd0x4H57Khairv0DQL/EPpoJ+GN0pKB/s0nEl7HMin4Ei6PuFENpxI9yd0zILZyB4H4mkQjz0OhN5wGikdtFPwJknp8CLZcBZ9xQbSKWiX9jg4iQ3lUnmHbllgHEoH4TS8Q1I6+KbhFNrjQDcFvdJlCmew4Qx6PYJWWTAU2eNANQ2qsceB0BvOnz0ORFNw/CgdXh0bTh+lw+ErmIjscXD2Guqk8g5Cb3CMjxsUU/DWSOlQ3BvOnT0OBFPQJF2tcOoaTp2XJeiRBdOQr9hALg1ysceB0BtOnD0O1FJw4CgdXhYbzhulw3ErGIXscVAgG7SivIPQG6ziwwepFLwnUjq8JjacNHscKKWgO9rj4Jw1VEevTtAcC3xC6aCTBp3Y40DoDWfMHgcyKThidhI4YQ0njNLhgBXMQPY4KO4NIrHHgdAbThelg0YK3gwpHV4MG86WPQ4kcrh2PQ4QunvX84D5x8XrgSju3gk9EUrnD6dKx7LH0YdD5fKFM+VMuX2hJRp+7HGgjjp12OPQKvThwVA6CN2TcQXDEkfp7mBC1w9dwh6Os0TobmFPRzvkDEoHZXgLpHQwhnNkjwNhFDdDVzGcIncxpcMS5zL2kEAWnpLaRehOkMdE6VRB6J6TC9nLn/PTqnR7nOOjEdrjoBASumcFQvewPCxY4jwtSocljtLdyxShC7qYXczOjXPjZqZ0TZDQXc0eGT3Qgz0OhO7M2ONADo4MpcMSR+nuZ1jiXNAenApIDJ6cKkbovODReXS0QOieHaV70XNW7HEeFylof65pOClOihcvmHNc1B4gCMETVMkI3SnxCN3VdOCQeIYuay94zgilu60dEUOO69pjVPqoQHkHoTsfmhkIHZQOSxylu7Phh9xd2h6ms0Hobm1K1/Y4wLXtcVIABXieChoDOBf2OBCApufqhlMBSoclzuXtocIS56mqaYTuRHislO7qJ3TP1QXuZc55oHQ3uOOg4bnCPVqngdCVdxA6KB2WOFA6FHd9zT3uytftXOQucufAOXCTU7pmR+iuco/Yde+694yVNkJ3BrQ2EDooHZY47K9097lOB3scVDp40iB0j9qjds17c/OsKd2Lm2dP6W51l7w251p3rXvynrx7ndJ1OUJ3sXvgLngXvD0ODUL31HU4EDooHZY4bKl0t7sWB3sc4kqcJ668o0DoHrgmhwKhCzqlI/9Vzc1uj0OB0D3v2kue0quETum1t7wrvqa9udmrr3mPq6e4u9rtcagQ+usjH8Juj0O20KWd0hG+xAk7paOluAu7PQ4txV3YlXc0CV3Ym46Bp1Ut9H/DPoWd0pG1xL0Zds/WHodkoRO7PQ4lQif27DvfY61e4mSd0lFW3GXdHoeS4i7r9jj0CF3WAy9+Sid0Wad0dC1xsm6PU9yPUmTdHkfosu5QULrLW9SdCkr3OibrlG6P80BJgQCUd8+T1pV39zShOy4UQOmWOFqndCjuhh17nEsb7LClBjw0QtfgGzzgkVninBt7nAsbyqA9jtBF3RGhdNe1l3VnxL3sBUzUKd2u4hGKOh0o70oZVTgnyjuhi7qDQumELuqUDkucqNvjXNNwjLaUAqUTugW+wQqUbokTdV+xuaIh6vY4Qkf1WaJ0F7SoOzGejVcuUad0e5yH5rs2clDe1TCrnFOjbRG6E+XYUDqhizqlW+LgVd0e52IGfeyrCEondMeqwRH1SpdK58pXbC5lkLo9zp2M7pOlZLmSUXC0KJ3Q0XC23LseEwoOlz1O8UKD1JV3QkeD1CndZYxXkUyniNK9XunvlK5duYpJnTDcuITuiDEGpVviJJ0yuvc4xZ1N7HGKOxwye5xLGE6ZPc6TQdkxc9l6MCg4Z/Y4xR0NUrfHEToaDhqlu35RUN8p3QsVGo6ai9Yjwe9Jn/ShvHsi6rvy7sMndPWdQCjdEqe+O1n1e5zirkHqigXlndCJhUTylU7ozhuLHH5nJxw4e5wrF6RujyN0tJ84SnfhouB7Nkr3CoWGF3WfuoeAArvY49QqNCRdeSd0FBw6SnfVouGVkdLdtGhIuo/cRXvVRf0L9Z1SupQ+g/M8v/PhJ/CdtS+AwSmUbon7me1HYv3A1fcj9pJuj1Pc14n3U8L9ZubXSfx02lytZUJ/zfeVKpoL5H06bpTeIfST/b163KfzRunZL01XG/yjuDt6vmLzsT854nPJz/ueuA9qUd7DitRYNeK3pn04cz7tGKFvEPHb0r7/X1GndJfrZhH/37R7c6R0r0sPZXz7D/Qate/+OdnjWq/WEfQrk65Q+yQYSt/s8x4j8K8JnR72yTCUvk2Disz4f3s80fiKrfxaDc/4BWYfzp7yvvatWhLyswe6vc8fpUdfqmUZP7fFD6eP0hcUemvIzwv71gfQV2yRH3R5yE/K+s5Jt8fFVSchP22eG06g8r6E0IX8ZLFPR5DSb75Od/2p9b2yPp1BSr/vBUnIL8v6vh+0PW7vj3jo65dmfdtP24+8b/wJC/n1Wd/2I/cj73sKXV+/KeuUbo+76iLV12/M+rbf/tjj9rpHhfzmqG/7+dvjtrlGqXyFrCvvlH7mZyvkizwbSqf0sz5aKl9I66PuarPHXfLJCvlaWd/3h7HtcesKXcrXi/q+f1hKX1PoUr6k6Hr+pJR+QdClfFWtb/wHtcetdX8K+cIPy6+gUN6fEnQpX/tx+f1xlP71D1XKl/fdzP8jUvrJQR/Ctv7LetfyaI97+mdK5ltEfffL2B53a02S8l0u6N0flB95v+/ylPJ9oj7C7zFKP+0jlfKNHl3AimKPu+Ej5fLNop7/aqK8P/0jlfLdnl7ItyKUfqXSxXy7qI/YG4zSz0q6lG+XiaCb2Vds1ySdzHfarsZ3oh6ZPe6Kz9SPv0F5D/xx0SHmoPSGX0ExdHZQesGvoPj2b3VP/7YK7HHZv4ICUN47lA4o75QOUHro7wAAKF15B06F0gFKp3TMt/HhULo9budgv/7I92MW+PGfHYJvj1Ped4j3w9H+MPYir7wr76sF/Cn5/nPkBV55p/TbI35SwOWd0im9KeK/5d0nT+n2uMuK+q0XNbvb4yg9OuPkrrxTekvGuZ3S7XFnvY8v3M+ondKV9+yQ//tAqd0eR+nZIRd2Sqf0kpALO6Xb4z6T8mNfvLPb45T3VJUb6JR35b1E5cSuvFN6V8qJndIp/Y8hj0s5sVO6PS5c5bJuj6P0rpTLuvLu4ZfEXNa7lX5I+VGFrNvjpFzWYY+TclmHPU7MN8u6mFK6lNM67HEmFFmHPY7MVXjlndI1LVqndJe6Z+IEULo9TmendS3Rha6zu+4VxdpnTOa0TiLpe5zOLuo8El/exVy7s8fFP14xd+sr7/EP1wKnwSvv8UoXc1F31uL3OJ3d1e+4xZd3MRd1e1y80sXc7e/MxT9UMXcqKD2+qZngRN3Biy/vYi7qmmS80sVc1J2+eKX7KThRp/T8pynmDoc9Lr68i7moK+/xj1LMnQ/nMF7pNjgHxEmM3+NscKJO6fnlTMxvOCKinrDH6Urwqk7pPlaIuq/Y6Nyruj1OeadzUVfe1TI6t8op75RO55zgaBY9PjrX3yk9/+nRuf5OQ/FK96NwTovynq90tV3UKT1/j6NzZqD0+Duazh0Ye1y+0ulc1Ck9/7HJuf5O6fFPTW33VZs9Lr+807kiqLznPzM5d2yU93ilq+2iTun5D4zOrXKUnv+85NwqZ4+LV7raLurKe77S5dyrOqXn73Fqu6hTev6jknNRt8fFK11tF3VKz39Oci7qlJ6/x6ntom6Pyy/vci7qynv8M1LbRV15z1e6nIs6pec/IDkXdUrP3+O8nos6pec/HTkXdcN7vNL9Aw3pUe/66y5bPRs3IES9oJ8OOcfeu4+gL/Vc5NzLuqDnPxWv56Iu6PlKl3Mv64Kef/vKuZd1Qc8f3uVcgxf0+MdhhtPgBT1f6XJO635gJv9RyLmoZ2p9w5Pt0wCtFyxPQ85B6+nN/USlyzlStT48Al+rIV/rez4BOYesFxzu6aOArOe/lA45h9f1gvFJzkHrBSPzlHPIev6XSUPOIesFXxrLOe7J+mZh3/1XnE45B7Gnx/yp3V3OEZn1jN9XLudQ4tNT/sTuLueIE3vSvz0y5RzC/qeQZ53pIecQ9mCVPzPoco6Yd/bUfytQzrFg2O9Je1pff+5LupzjJLVfmPaZ/q/+TjlHd5GfySJ/2ku6nGNft3dk/BlBl3NsGfeiiD8j6H4PJK6O+5hfCfz8lvBGPQ05x56B/4vIv8Z7VPdPOUdC6N/E5/PVoMs5kB90OQfygy7nQH7QM3P+68VuvvLWsjN/rjveAZEd9JEV7vml72ysuggN+ojI9wk/cFX7PS0Sgz62DvgVf1lC3rF/0IeA+0lLxAd9iLi/54z4oM+NIj7X+U1k0o6tgj73iPiav1lU2nFTIuJyvpTGhR2bBl3GhR35QR8y7veNIj7oY9GQv+zJFHZcw9w75xuKnNixetDHaiF/ycAbO85m08E9J+TEjsWCPoVc1pG/xQm5rCM/6EPIZR3xW9zNx68j5LKOm1/Rx60hb0q5qOO+5j5vTPlLJ7KOy4M+hVzWkf+KLuV3Ieq47hX98tM2pJzWcXVzv/ikCbms44bmPqVc1BHf3KeUyzrym7uUizryhT6kXNYRL/Qh5aKO+CluSrnv1hHf3KeU0zryhT6knNYRL/Qh5Str3RnGU4Q+pVyDR7zQp5SLOvKFfk7MhdPLOi5j3HKAyNzLOhYT+pRyDR7xQp+X/3+EBo/LlzgyF3XkF/ch5V7WobiLuZd1bF/cp5SLOhR3+5uXdexf3J9xUMhc1BH/gk7moo7Fc/7lb9bI3ASP5Ye4r7pAzO1yiB/ipFzUsUPOv1L4yFzUsUfOvyB0A5xdDvE5J3NRxzY5/2Rx19lFHRvl/HPfrOnsoo6tcj5O+u+FL9ZxCeOcf5ZFZxd1rJTzh86BmIs68nM+zvgvhS/WsVTOp5iLOsJnuL8s7jq7qGPPnD/+7L2aizr2rO1/UdzF3Bfr2DbnL2Iu6kiv7Y8+cwucqGNjnT9W3MVc1LF1zl/EXNSRXtsfedZiLurYXOcfF3cLXPq3bQJTkPMXMYeop9f2j5qbmIs6AnT+/gMW86aoe1nP1fm7QhdzUUeEzt97QxdzUUdMzl/EHKK+W8w/EU8xx1/Ns9hQ538Ouh+PEXVE6fxPz1TMIephOv/96zUxh6jnxfz/HqiYQ9Rzvjt/43mKOd6te9hW5//5RkXMIerBMQc+1gDEHKKOJb9SA0S9ZYMDTPBiDoi6l3OIOsQcoS/roifmsMtBzCHqEHN4WYeYQ9TFHLDLiTngZd2PxwCiLuaAl/VrOruYw8u6mAMavAUOEHWv5oCXdZ0doHUxB0RdZ4cGDzIHrdvZAVEnc2DhrMsymYPWyRwwzJnZAVonc4DWpRygdSkHTsq6lAO0LuaArEs5YJmTcoDW7wm5lEPWqRxoyLqUA7Qu5YCsrxpyKQeys07lwPtZH0IOELuv0QBZF3Jgq6zvFHYhB8Lf2M3rQHbYiRzIDvsgciA67TIOnBz2m9OuqwPJaR80DtwV9yHigLx/OeASDiyX92ckfgg4sEXkXzP/cOp//KelG9g6998Z/+Hn/6032f8AT6wHr3xuNZwAAAAASUVORK5CYII=;" vertex="1" parent="1">
          <mxGeometry x="997.24" y="529.65" width="60.52" height="58.7" as="geometry" />
        </mxCell>
        <mxCell id="xLPijeGfnM_CjZ15K6nw-2133" style="edgeStyle=orthogonalEdgeStyle;rounded=0;orthogonalLoop=1;jettySize=auto;html=1;shape=flexArrow;dashed=1;" edge="1" parent="1" source="xLPijeGfnM_CjZ15K6nw-2126" target="xLPijeGfnM_CjZ15K6nw-2128">
          <mxGeometry relative="1" as="geometry" />
        </mxCell>
        <mxCell id="xLPijeGfnM_CjZ15K6nw-2126" value="Detla Table: &#xa;data/stage/stock_market" style="shape=image;verticalLabelPosition=middle;labelBackgroundColor=default;verticalAlign=middle;aspect=fixed;imageAspect=0;image=data:image/png,iVBORw0KGgoAAAANSUhEUgAAAUAAAAFACAYAAADNkKWqAAAgAElEQVR4nO2d38ssyXnfv0/PvO95dVY2RtjYRImJwRfBss3mTguKOeE9dybsBnyTm2RNZINykyisQArEQgKDg3ZxCCGBYKP9A3yxCuQisItFMGgDIXEw+XFhUAgmMbbjJI7Oq3Ped6afXFQ99aO7urt6pqanet6n0eqcM1M1n66e6eqq51tPfQmZx/Pnz9zfP/zw27PqzCnPbP7+0UfrZxCd/lpdAkMOZShjacZ26oNub5+BCA0AuRnaHDizqWOP0Tr2ZBvA3GxT5UOG3KBTdW5vPcNyijPCds9pR3hej5GRU77LsA+x7N+VMpSROpqxNwFI59cAaHJGAvYEtkG9yUYCaJixlfOZw7CcLIac09x25DKYPQPIY9h2S9uVMcKwn7+F+Q5P9rtSxuNhDI4AO3AAuMd079sgvgnux04gwdjlMJhdB1sVw174WQz4a7V7pIzs35XtNLMZMA+w7HYo43ExpMLQh10H7+8+/PDbU1PMxtaZcyM4BtE0w16U66BjmsWw5XenYsiFn8tgxm4sHnnhjKzvHJjPsC8pQxlDdZpeB2inMzfwP9J7+9/YB20B3AAAM1oi3I+dgDCIolHAKMOOGG7sSzIqG2XY8oswbHzinij/Wgnjo4+U0T1s7Dli5PyuQob9fGUoo8eB+f22UQfYeUI39oMGp3+dG0HEgjuMDD2DE74GAGbDGOrhQ4YdDgPAHfM0gxnXRIZhL+RJGPalSYadVkcMZFyrx8hA4vsYY9gf9Q2Aa+lgkfnbVcajYkiYrhVgeIRz6HsALyeCiK7zg+mtX2b21tfCsHUmGcGUtEoGMq4Vkb9Wyhhn2DoS/8lmAG4UoAxldA+ZWgPmt2tGgLd+qUs0XczorZ8CZtoL4CURBmNG3RPGxI2QYhDhJVCWYae9izBkGVEuQ0awj4mB4DuH7WBzGDjwd6WMR8NobJ0WQWxf1nq55QgWPKp6wsy3b4J/v7QixuAJ2PJywruxE04x5GYryZCp3FIM2wlMMhCPmB4NA3FccRbDvqQMZSQZzHgarDt1n09B79gAaDOGnVtmPCW/QPblmFpo6zxFPLqc/URQhjKUoYwjGdJZuj6uYY5WWE92fjCxMth6uVOgrS2fO80SRRnIGA6Lam3rzGLYoypGENB9FAz44HcWIwh+K0MZuQyZWkd9nAge7cQQ0n0YYsEja55+aIA9l0EUqYuHBPFPxpC44hxGbtD4UhjoB7+z4z/KUMYMRm+At53q+LrT3rlCQbA2Z/CEbe/em1rnMDpLXWYNuZnzhJtDGIcKBY+ZgQOC38x4mbGEShnKSDKSmSDdMmwWLQPIEwoQ99ZZQcpQjJATnhNgz13qEjKmhJtjGIcKBcqYZtiXdsDwjaAMZeQwaOhTLjgQqgxlKEMZkApjHxaJEZnTRXfCU1OgcGlFLoODFLqcaVZ3qQsyg/hLMXJCBI+Z0Q1+5zAQBL/DUYAylNGpk+4Agx9pI4ucP/pIBY8pxtrFiFoZWEeAXRkrYdijkYrRcXv7rOn+SJEZ/M45YRU8lDGHgRUH2JVRLcOte9523mzgE4tnCR4S/IYKHsooyLAvrTLArowqGeEeg74DDOIzMiW9S62b6XzY6gOhylCGMh4N4xo+HNZ++KHNBZYPDDq/3orpxIe5zIicE2aOc3s5M4sEmLfym7k/uqyFYV/KDug+NkY3+K0MZZyCIaM/+SDxZwD8LgmjnZ9V/q5t3VnbTUlcMVdUAeYFQonmCR5LMnKvlb2+j5oxN/itDGVkMGSDVVd+K3KwPXK8L6Ig5VTw2y6LcYLHIcFvHDAczmHwAts0hYxcoeBQceiSGLnBb/uSMpSRy4jKh65wOd4XswSPoTVfcwOhcwWPXMYc4UYZyzJyg9/KUEYm4x7o7zw/mAmS+LBLCYQqQxnKUAaADF9gifnNOWEVPNYtRizNuKQAuzLWxdgmX41PQAWPSoWCS2FcSIBdGStkDHaAcwUP2/Oq4HFhYoQKHsq4RIYcyQ7wUDFCBQ9lHMK4gAC7MlbGsHVGjdFnjZiY1xsIVYYylPE4GB1O2hidaJ7gQeQ3TM3ddACYt9UNB5uyYmaA/dQM+9LqxYg1MxKr/ZWhjBSjsX2WzwQJji1m9KTBCavgcQFiRE0MXECAXRnVMRobI5RMNzMC7PSM4nrWWzQoR1fw4AVMy6GCx6Ni2JdWGWBXRpWMBmaQI52fN0aH7fzkDaLhzs8esw3FMVPwOCaL5BKFAmXkM84dYFdGlYyn8Oue3ee7XGDbM05uhAAVPJShDGWsk7GD2e/A9XENe2Nit0XM0IfZUWIkeKDwav9uFglmCh45DFu2qqyFSxEjziF4KEMZGQyZWkd93EHG6EsIHnxiz4hTiyqXIkao4KGMC2L0BnjZxuhYSPCQDjmXsbTgkcu4FDFCBQ9lXDJjcjMEdKaLKngooyZGJQF2ZayUMbgd1gUHQoszbm+fgUgZp2SwcRGczeDALUwZyuge29SLMiVNjcomTniWSTaOCLDPZfA8w+STrmBPCQWZw/qLY0xlDt3e9n9Xcxg2bKMMZaTqpDtAUXsxI0jJgU/IXKHg1IIHTmzKXEIomBrWXyrjECEtcwqkDGWMHWlj9OfGG/iG2X8YCgse6ExJTyl4hMPhUzGkHVOM29s+o7RQcGkMBB0sRm6EUEhThjKGGLZOA7uaZdt5s4HvyCAfdqrgdzglvQQGM3YTw3RlzGQAAHOe+TpRHOpQhjISjG0w62yp8+Y1/KgwuW6mU94Fv6fWfF2K4KGiigoeylgnA4iM0XcffvjtNjJGD958yTyZFRIFvzM7v9miCg5Y+c0+u+VkGR6HMOxL98zjDPvlHi1GrI3RDX7PZUjwWxnK6DIQ/HZt39YCdhnM7e2zxgamG2TkA4eCx9TIz9YZFDzeeOdbz8D8c1EFwoZ2rxq0D+aEN1dA8+QeRHsAm87Hm9faHWj/cgvmBtSAN092aLZtr5w7GCUZDOypU4/B+2b36irBQFwuqPvIGAzek3kNKQYT7c275sfKbuUWg9r9psvgZvPQLefrKqMmBhj/5rX/+I8/RqZ+AJi+BIdnkfTKb22HJkdxY3RMCx4/B6KvyYUBA2j3YCJQcw1uNgBt3CQf7lxl4s8AM8B7MF0BDdmNrsmW5XRdNgxsru3nH85gAJ3vFwCDEgwmki/fF5cXHiGD7CNcGOF37hhSgRkggIYYRCBQUC6uq4y6GGhf/RqAf2//eXJRBaaDjco3gLvvixujI0+M2PibDQDvQbw3f20ae/GDkQYBTGGnxma0YS+yXHgQxeXCupZBAEDHM4gAYoDBEQPtHsQxo1tO6qYY/BgYCBid75xsh2n+Y/eaZyBiMCgqF9VVRnUM2j/I7bWjjCVURHHoiXlc2CTqdX69AZ7kAg9OeeXDcErBg2yr2h2I7anQBmg2kGcOADOCILav2adO+wBiBlNjO6amU65TN2AwbcClGASQ/cIdgxKMsJybbKQZ5t3LZ4BbE8sJGIGyB9i6zOaWMgyYjlW+j6hcp64yqmTYY9Jtkk4oqhxkjJ7Z+WUHv8Gwo4zW3EYyJQ2Hy3bEEHdMu/jCy3uuXFAXDEoweuUOYYDdZ4wypBwSDIQ/IOqUu2BG6x9G8p0z2FUlZv8aDMM8fBAxonJBXWXUy0BztTu3qJLMBAlPAJhvjD4keKQPO+Tmvbk17MgPFihTzbiK3GyceOp0DpIb1E+tPYM65Q5jmO/axE1CRnd0aX8T/pVguhgyOIqZPCZGWM5OncIbr8NgItOfdn4ijst7UKuMWhntZvNw7iySwQ4w/DDb9hKCR6/O3e5VwxIjaDojPwkcQMbQfkqK7qgsKodgkJLoYKPRZVDuQAYBQJvDCEZBo4zw13PhjM537v+fHY647TOI3OiTbZ2wrjCA/u9KGXUxuscSWSRyJDvARE96uuyL9mGLzTW4aYBmIw8Q9ySJ4mzJkQYBbkgejujMV2GmcvbC2yB+styRjG7QmGA7dWIQBXWlE008PaOYWrfuo2DIhTXlKWLATbPYfh9huaiuBPFJGTUzRo6TZ5Hc3j4DEdLG6OhLx6fNjAimvT5QzsG//EijCsEjxaAEgxB3BmDzX6VixLkYaw3iK+M4RrcPtJ3S0YLHVOcX9FlpY3TMSAvjI7fN4s1VZzjM/g8ZCo6KETL0BmS9EYAoiC9TuV65YNhenOEb0Gcg/AH5X0GvLkus7HIZbEcNANxIMifA7soFr4FNgJ3tzRYH8ZVRI0OOBbfNaiynZe5PgbfI7PyC8jfAvC2tKNw2q3lyb+4k9gWJzAiQZaRRj+AxxLgsMWJphn3IyINlJUF8ZRzPCI6TCx5AbIxOZEeAt7fPYMHhJqCDWSHhtNe24eDtpmBSzwBZCxgdXJ3gkc8IRkFrECPOxCD7PQhujUF8ZRzOWHDbLGeMbvu42BidyGWF7DCREofEOj/5wKETwHAWSZAJQkE/4586IJwlw2MOY1XZFzUx7EOm9qwFZZRn2OOoDA/OzyJxxuhhX+WM0e2xy5jCHid4pKbW7gqz6VjsU4eAOgWPFIPMc3DNYsS5GGsN4ivjSAbvr3BCweP29llXVJHBnUtD6RqjT8FnZXhkb2nF4d/ZB1uB82Z45DKCBhwmFBjWY2TkBNgh5aT/FMaFZUY8NgbtX20BOMEDp902S6bWUdrvUcboswWPIVGF4DubFQgeXcbliBHLM9YexFfG4QybD7yYT0hqm78sY3TmMoLHAMteOfbTXgQjDbbvydVzAwjTMangcWEMWlcQXxmHM0B0dp+Qyc0QOLHOjw4XPFLHJppmAcGUFFUKHt1yRFi/GHE2BiLGmoL4yjiOwZub3YkEj2xRZSoXuLzg0Sn/ot2ZjgaAH/k1sI+IaChtnkwVCB4pBtIMef6tQYw4N0Mu7GqC+Mo4isHU7CdGcscIHuswRqf9yy3TVSfYytL/mUNGIsD5MzzGGAh/QL6zjAUAAlhiZZeb4XEIo/asBWWUZUSDm+C4ve33JXypxuhgbnrb2Ls5ln2cuE7x/ILHIGPlYsS5GGsO4ivjeEb3KCV4rMcY3U2BuldDOkFAOqY6BI9cRvjrcS1ajxixEGPNQXxllGD44/b2GbCwMXrTeXNxY3TePNn5G4WifgZAdYLHGGPdYsSZGPaBssYgvjKOY4THEoJHYIwuU2u/G0zXG5gId0sYo6PZtubymaeCD57bZ1CNgscAQ55raxcjlmasNYivjOMY8rNZQvDoGqMTmbXPdRijux48uGkYSPmERGKEHW3kCR7o1wWXySIJnmaxAGA+o7bsi5oYJnBu/y2MCrMWlFGeQTi/Mbq80NhzbHECY3SM+IS88foXbR/lbyDzbx9vqE7w6DAuQYw4L8O+tsIgvjIOZxCwCae9dALBI2GMfh+Wr8EYfW+vtvmXHfmZzgm9YKsfaMj4209J0R35cViuU1cFjyoYsh3WeoP4yjic8eoaJxQ8gpGfGqNHdQuLKmT771WLEediIGB0vvPag/jKOI6hxuhyyOgvECNkSlqr4NFjkHm+rVmMOBdjrUF8ZRzHsIcao4ORFDxksF2V4JFigN1nrFWMOBtjxUF8ZRzHUGN0ALDDYTVG94zLFjzGGGE5O3UKb7zKgvjKOI6hxuhqjD7ACH89F85YdRBfGSUY3UON0QH3JFFjdHpEDLmwpjxFDLhpFtvvIyxXi9m3MvIZI4cao4ukZP7lRxpVCB4pBiUYhLgzAJv/KhUj1BhdGUsyun2g7ZSOFjymOr8sY3SZ9uIExuiA9wlJGaPH10Y6pn6AneWJk6g7ZVrOQFD3VAzzr2kGgnJBXZZY2WUzXOiI7T8QBNjhRxqO4cqFdRngYeFGGfUxwmNoSytk9CWUofYG5Rs7vfaZIMGxRWbnJ+Vt5zfLJwToGqNH3R2iR8NAgN2/bU6WXD174du9vRvNU8d+cFAuqFuAIaIK+xJBNwDPsJ2CEwrMv3w59+djYtgu1n3ABCP8echrEyKXMipl+MOJpzhA8MBE52cP2eyltR2sGQHKFjF2NCcflmWMbqXmLMEjdcLS1QcPG3tXBNMs+JFG97IRBcNpO9JIBfEtJvqyDK8twnBDf1vOTRtIOo3Y7yQcVZly5OsykBJuLpLhri/bOn0GYD7Tl5N4FNzNBt6b76jxDHcOyqiSAcTTXvtS8S34JN5n67SWs/voo2+bdYBscoElH3hHlG+MTgRI55ezbZZ9qSOqkB0EkvwPQDAqA7zSZKeltjTkHNzqcsnwCFewd8tJXS7J8GueIh0sweAeo1M3zL64dAb5un4kjohh/gvOBWYaFmWqJL6PqJwyqmPYQc8WmL2lVSR4YGLkJx0s/LpnNUYvLqpQ0AEIA2mGebc+MeJcjLUG8ZVxJOMxGKMjEDyQM09PPHVEjJAbxxa0Iw+ezFqI67JnIPxyj2WYI0co8OWCuvx4GVMB9n5w3jOQYPhyyqiZ0TVGt6O55HGI4EEdY3TLONwYnY4VPBInzMDe3RwrETy6DHYU/4NYpxhRIcONHOBfqymIr4yDGYcaoyNP8EiJKscZox8reKRYJL7A4N7q8loFjy7DDelJbugVihGVMADzmWsI4ivjOAYyjNEPFDyyRZVZxuhEKCB4JClumgWCu/BxIN4cYYD9fIJHikFJxmrEiLMxEDHWFMRXxnGMHGN0HCZ4XIwx+u8A/Pv2KzEHo6H2fksSo2iudtxsW3nTF5O/MIB2S7tXRuGgpkVztZOorI9InYLRWELw2X4aMMLw5VzdDAaB3pa6kRjR7r8H3v/LEozTtON6J6JKVIncw6tByKCrHZptS91y8o9jGdT8LNPVT48E8d9fRTtqYDB+ksGfS4kqqzBGD778WYLHUMyvU35L+5dbdIzRfYyJf/Pjd996v9PIaIOGMUZwUWRHCQC4w8gIdmmGfWnU+DmX8cY733ob0hXa6bsNTP/p0//0L/52CUbpdjAbRm6eJ/JTMw9mvPiZL3wFtPnpVBAfRHjtd3/9F49lLNGOGhhvvPPB28T8uZSoQskaB2d4HJJFMjgCdIJHTk+aK3h0GWyN0VmM0W2wFYlLcwijc7OdpB3HMoDpXSvmMMzVs9N3K0Zws5EgcHXtWCj4PY/Ry07qBPGXyVq4DEa7A5jhhjUJIW3pdtijYR4xRkeg9iJj5Mfstso/yBjdrg6C6/+CoWeKMTbS6DKkHZwhsx/CCIfcY4zb29MzhsSI3KyeWtpx6uD3GANEezfiA/pB/NNnLSyRGbEI4+7h7gbbm6Socq52sDVGJxoxRrc/1MWM0U19CuIHZunEECNzI0VYzktkDusPYUiIgCe27JHp4qkYY2LEmtqxRPB7jOGiwgNB/BKMJdpRA8NFfxOiShBRXrIdzhgdqNwY3V6nWaJKilFauDk1I3yyzWG8GMq+4H75QxlLtOPUwe98RjozoixjiXacj2FmeFeo1Rh9G7y5ZXYxv3tg3BgdHcEjs/ObyCIxnaCbfuxfXocMTNxseYxenWzh5liGfWmOUDCLMbylVTnGKduxYPB7lGGUTvuB6GdGlGAs0Y4qGNun90bY9CIS/B+LtgM+rNcyx9thuTmxnZrkdH6zBY8wSCm99Wdf/+I+vFH90pI9aP9KbDtV8MhlJLIvuv3gKtpx7iC+XDNZuxYE8VcpRpyJgWbbDmaRMDYLt6OFyQV25d1mCLZnHIzLhB92qOCRElXIZoLIwyEM4tujKsEjlyEjpiVFFR7IvpCnigoe+Qxzg3I6M2JF7Tg3I9zwAtTJIgmM0ZdoB/OAMToAEA0HD7sfFga/5wgeNCiqkBsSR3mFzVV1gkcugxYQCrqMweyLYPnGsYxTtAOVBfHNdG04M2It7aiBIVcrlUUSGqOfuh0wccX77u+wamP09up6UtHJZiTagRULHilGvBI/2NKKGc+fP6uyHTUG8e/a3cY8iH3WQhjEX0s7amG4GYn51/qM0REIBVMnnC94BAcDKWP0ocnGbQHBAxk39DEM+9KoKXPw5RZkJLa0AsvazuraMSf4HTIk+J0ztZ7LoP1L86AnDG4FdSxjiXbUwZCcfvS2zZIZ3jnbsU2+2vkwFBI8UgeD91NG3N0juCiPW/BIMMI8Gj+Ve8Aa2lFLEB/MDVJZC52fZO3tqIUxtG0WbzYP527HYAc498NyBI9UnbvdqysmirbTgSRpU/Jpq4LHCCO53ZQZ8lYheKQYqC2IL7teB1kL3SD+2sSIczGs2ovUtllDgtIS7ZAj2QEmPmy24CEnPBmktMbo6BqjgxLRljoFj2MYcq1yhYIxhsT8TNyvdVta2StahHGKduQGv+cyABNgHwvZpBi8ebKLzL4hwpKZFpdgLNGOGhgy8ksZoyfu78XaYTvZ+o3RizEuTPBIMYKYHzoeHu2a2tFlLB3E52Zr5Mkga8FPRni1YsQ5GHcPd1tutqbzU2P0vqgyZoxOYM3wmMEAOFi4GyiYI/HUGttx7swIM2qB6/UoCOKD9yjBWKIdNTDQPmzNEiI1Rk+LERPG6MHNpoLH1JTUdX7x1kOra8eZg/hv/OUvRs+MZBB/hWLE2RhqjD58wtLVB6mXcNth8b5BZYLHMYzSgkeX8WLAw2NoM4Ta2hFOgejMQXyXu4ogjiVB/BWKEedi8OZJq8bok6JKajssBu3upPyjEjzowOyLQQ+PxHTjUMYp20FB8NseZ8mMkLeGvC9KMJZoRxWMzc09KO0Twsu2Y33G6KFtngoe04xB0/JgBFh7O2oK4odZCxQE8dfWjnMy+iva1Bh9fJ4ucSwGZPnGGEOmWbmM2wKiSg4jiJXNZtiX5mdfDJqWF2QUbkddWQvmIGDS7HsN7aiDEWaC+JUKaoxuDx4zRr96Wp3gsQQDB4oRQ6blIBU85jAgniojZt9raEctDDVGH127NmyM3tPKE4zHKngMMVKm5TZyX2075CGMSoL4qeykbhD/WMYS7aiBEW+HBTVGH6C4tWsguLVrad8oFTyGGCOm5U2t7agyiN8+bEXwSJl9F2FcouCRYJD7U43Rk+XHjdHLME7djvCpc05GcjssY4wuRaprR61B/G7WQhjEL8VYoh01MLqeKmqM7suPGqN3swVlmpXLuC0geOQwwmDrXIZ9qWD2RdIYvTCjXDu4oqwF1/nZ7KQhY/Tasy9qYgD2PlZj9D6D1RgdKCxGmKtng/hqjH4YQ43RyzHUGD1Z3k+z1BhdjdGH65wliA81Ri/GUGP0/hEPVdUYvRhDjdHVGL02BhBnJ9VmjE6dN6/hR4UvP1zAGP3F61/8hwD/CtxWTnJKDAZ+o3m4+7doH2xs5kkrqTU+dySuQe0O9HB3Yx4zjfElbbZtXC6sy6CHu+2xDG62LToMOaYYvtxxDLS7b4YLdwNj9D9hwpdKMIq3w15cd42ZQbsEwz4ZOawHmGHaACMuN4vxJoC3EGYtBEF8tK++UICxRDvOz9g8eYM3T/6mmfaagsF2WF/9+N03v54SPJA58psj3ADeGB1mYOc3QwDqM0Yn3n8ezfbz3GzdVE6GEOSihf52M9sVMcyQG9aRPjAHcpTAfJ335ul0JEPOPmaQ20JpnBE7Ix/KGDRGJ/5hgL5ZglG8HSFsghF8tL/rLIO39qcVMJLh5EyGN/HuG6Pj6pP/vARjiXbUwnD3m3z/9iOWFG6wOmP0jk+IvBneQn6rco6zSDpbQblyrq7tNKxQcAwjlX0ho8suo2ta3huZCgPDQePLY6Q9Iwa3UHIfMMEI7lNlVMhQY3SARozRmRH5B9jePrqQ5iHdutXlbo0RYpndBLJtXTZLRLpCwaGMVPbFkBjhtB0p5+pKp5He0upiGXKpE985h+fgvkO2r/UZgPnMlIeHMipkqDG6o/tRdWSMHq7Ed+cJn/EA/9RhH2wFBVtBSbmwrmVQUUYv+yIpRvTK2bopBj8GRmK7qVT2RUqMSJmWh+WiusqojqHG6HIMGKOja4/J5uI57wt56rDzvgCo6ZTr1A0YkVBwLIOCG1sYlGCE5YSBNMO8e/mM7nZTqeyLlBiRMi1P1lVGlQx7qDE6GEgZo/uxG0M29ow7po73hYwyXLmgLthtbxQyeuUOZgDgHIY5phlhuctmIMFws3D2jKGMgrhcWFcZNTPUGB0Ajxujf8DAf3DDZ1uH2v0V7V9twS1A1GJzs2Nq9v4W84cdom/QvrqWITc1V7t2s3nwHWwwRC/IYMsIO4Gw/hijy8lhEPA17tS1sZk/o/39PyvBOGk7mDZw5VnEMfNau29CBm9udjbALt9JXJdxOIOazzFtPjcSxP/60Ywl2lEH42cZ/BYBUGP0RJ0JY/Rvffzum+9PMThjUS0XyCKZyHEtkhlxDOONd771NTc1Idf5gZj/z9P//Bu/WoJxinbggA0aMG9HolmMu8/88lewefI58ztEL4j/nffe/OqxjCXaUQPjs+988DYx3lJj9CGGGqMDMzIjxhgSZzNiROvECHtF1Rg9k6HG6OUYMvJTY/R+HTVGL8wYESPUGH0GQ43RyzHUGD0Nd6KKGqOXYwyKEQNTjVrbce6toMyoBa7XC4P4aow+j6HG6IkThhqjn8Zfw3V+8Ur81bXjzFtBqTF6YYYaow+fsHT17oErwz/ztFVj9BkMNUY3DBTIKJClHEAQx1Jj9PnZF2qMniOqkB0EkvwPAKsx+kyGGqOXySiQt9QYvQBDjdGfAWqMvghDjdHLMoB0ZsTa2nFOhl/RJiWDLBI1Rk8cEsdiQJZvjDFkmpXLuC0gquQwgljZbIZ9SY3RB45Dgt9zGARMZkasoR11MCgQkfxKBQKrMToAsBqjFxMj1Bi9DMOo6WqMXooxtG2WGqMDIDVGL8rwmSCESFCquB3yEEYlQXw1Ri/H4GDKa64fu22zoMbojuLWroHg1q7xyHRDGPRIBY8UY2RLKzVGn8NQY/RiDHJ/9rfNUmP052qMXpIxuKWVGqPPZqgxejmGGqMPl1djdHOoMfrAcY7MCDVGL8cA7KTAbqgAACAASURBVH2sxuh9BqsxOlBYjDBXzwbx1Rj9MIYao5djqDF6sryfZqkxuhqjD9c5SxAfaoxejKHG6P0jHqqqMXoxxpiHx5race4gfi8TBHEQf41ixLkYQJydVJsx+rb7Juz0hAh3Hy5gjI5m2wbDvmg7LHudqhI8ahZVXgx5eAzkAh/CWKId9QTx094XZRlLtON8DDPDu0LKJ0Ru9aXagcAYncisfd4Gb1ZnjI79y+uQgQoEj2MY9qWTiRGDxugFGadsRy1BfAJcoqpkLYRB/DWKEWdjbJ/eG2HTi0jwfyzaDmBtxuj7V00uI7jZHo3gkWQkTMu7/eAq2nHuIL5cM1m7FgTxVylGnImBZtuqMfqBxuj2qErwyGXIiGlJUUXyVZ1+5CMLxRinaEeNQXxzg/qshSiIv6J2nJsRZ4KQGqNjljH6VXWCRy6DzrDd1KBpebB841jGKdqByoL4ZroWZy2EQfy1tKMGhlyt3nZYaoweHAPG6O3V9aSik81ItAMrFjxSjGQmiN2P6PnzZ1W2o8Yg/l2725gHcZiX7oP4a2lHLQw3IzH/UmP03sFAyhh9aLJxW0DwwIm3zbIvnWG7qYRpOVjWdlbXjjnB75Ahwe+cqfVcBu1fmgc9YdDs+1jGEu2ogxFuh6XG6L1jwhg9eQQX5XELHglGmEfjp3IPWEM7agnig7lBKmuh85OsvR21MJKeKmqMbupMGKNnMR6j4DHEGDBGB1CH4JFioLYgvuysHWQtdIP4axMjzsWwai/UGH2IocbowAyhYIyhxujpIP5YyCbFUGP0cgwZ+akxer+OGqMXZqgxepkgvhqjl2PUboxOiTeuAVyzyQqZ7DTYb5gqgsodMvOHmYG7n/3CV9A8+XKwDiYcBX4J4N+ihxdNc/dHN+B9A9pg//RH77B92oKC3Y8B//d2h+b7f3xND9+7Bgh89dqu/cSPvJT+Xsr5uozyDHTiRiOMeKcRX5dnM74bL9yFTUOiPwDTXynEKNuOYBjgv3cG7YYZiXtnmEHxMz6LQfR3wfh78cJdOGP0zZ9992eOZizRjgoYfPXaL/Dmya9KdlInrPXV77z75teBnngqbpV3yJx92ZdyBjmhMXq77ZTZIjMtTMrTaY3RvwHmb3Bzjfa1T/eWJHBQh2BjNTbgyk8+Bb75lHvqSGFfLqjLjGMZ/eyL8OcTMD756cFtgeK65oW5jJQxOoP/PBG+W4pRtB0UTt3lA8YZ4S3kA+wwn99hxOXyGXHnFwfx2x/48d8rwViiHedmAIAao4+csGjbcjO4u4eDqRzgd5HtXDYzkvN1KLEVFECCib4tw2uLMNw0yZZLihGA+wEJI+XhMbSl1UUy3PVlW6fPAMxnpsQI6Zi6AXYOz0EZVTKARYWb9RmjO4c4wO8iS25y5zopGUXIE5qAjp9Dp5zU5ZKMTvaFaVWSwT1Gz8MjuaXVRTIS202lsi/CcgAGTctTHh7KqJNhBz1O8LDHWY3RI9PgAXgU/GbOGqoOBr8ZvDdPA3OBTMcUjsqCDVPZXHjZ4snlGZJdXd7a3VCaeCuoqJzczDK65AIMd+Lh0D7NEL+TaAoQ1h3a0uqxMOBH4qDGjjSCSrY4kdycnoEuI6qrjNoY1J7WGD2xTGuHTh8XxgBbTG+B1ZOn7YeO1Ym2m+LOujKKarAfacA/dSDTqu7NJq9JFgkBva2gwnLRl7szOCrAcFN4aU2nHcJALKhEdQGAfTbMY2H4TQf637lMvcOxhtmbD2aU0cbfhwwiXDlXF8qokBEaoyNz2ht2fshY1WHjiq6DRaePkw/LMkZHgeyL/tq1ONgaGaOHOZhkLqL9q3vNXHjjfSFZJHKVfTnydU/AYIJrBYcMpHwQgnKubp/RFSMeJcPeGb47NjeRmVb3GXG5oK6siVRGVYzQGH2JzKHU7DbLGB2d1f40IXjc3poT5szV/uGOu2ZUJhee/isYfyi3GYWPEHBD7a4hthtVYrsDbQCmKMDu6gIAtw3t7xv7Wovmyo7Xg3IHMMKvmsAxY+MZobRC/s8GA4y43DSDGc9cTM72SDaW/RLt7t+VYCzRji4DQwyKGb6cZ+AQBu/+Irj9cTBsDMuPZgAGMX37aMYS7aiCwT9GRH/JxYkDUQVELXP2LHL2umQyv/8WIzPVwVS4TplekntOkNJ2fhNBSun8OtMsIjDjH3383pvvpxi2dw9Xft9NrPwWm08ReybXK85l2B1XZjHQX8F+MOOz73xgf6pemIB5Qv/Ra7/3T39+Le04N+Pupz7/VWyuv8w2O6nb5X/nvTf/6hraUQPjjXe+9TaAb5qYehtPrTc3OxrZhu+QDA90wnQ0IdAOdoBLZV+8aPebrjG6X4XEyTphIJRnbM0lI9gc4WZpBuYHdHuM6Clt/9o1Rq+xHTh98Hs2I7k+zse+V9OOGhhmWudHfsHUej8xADlpO6RC77i9fQZOGKMfK3ikTpj2L7dorqJgaxQ97ZwXbCBUGJixpVVOOw5lMOcz5gZ0ZzESYkRxRuF24LTB79kMMUYfCuKXYCzRjhoYUyLXmduR7gAp2N4o94mADMGjc3hj9E6wVVoQjmgOYYTtQEHhJsWgzO2/DgnozmGkxAgxRi/FWKIdhzIwczu2JMNmJw0G8UswlmhHBQwaM0Yn6pVfoh32GDdGZ+8Ql7W9Ue4Jd4OUbush+YEZaTDK2kgxckaXOGBLq1Myjt1oYophBQ84TxWC21y2FGOJdhzLoIzg9xiDARszYCMAULDY24xajmYs0Y4aGF1jdLZAl0VynnY00r8NGqOHw8gczwj70qxts5hhjNFNTwjAjGA4UGOHVn6PjcqY49XlNGNLq6UZuQHdHAbEa4H35t4lsxJ/yMfiEMYS7SjFoJkBdmEQ0cb8IikY+fnMiBKMJdpRAwPy6JAsq/CaEm3O0I6tvXfBPGKMDuQZo3OcPzx7uyluNg+xxhbkF5qTVMEjk+GM0YF+psqK2lFBEH8fCh7dIH4hxhLtODsjNEaPrykAO9Jeqh3wu1y1sGufm/ADmQM/z+mskBtgducXLachwq5/e9runBnYv7wmOszDQ0awY8NhmfaeknGMUDBXgOp7qqQ7v6MYS7TjgOA3UC6IbwQPk+bHrvMLgvgnFCNKtqMGhjNGj66pOZh50XbA91cu602gBxujT52wPcaM0aPblAFZu9YzRq9F8DiUgSWEgtSWVqUZlyR4JBhTmRFraUcNDIgxenhNAbmaRYzRZ7SjZcZ9OAMJN0NoMRZfwvGCBw/4hIR5pUsYo6fasTbBI8XgMAfT9n5OGFlRO+YwZga/sxhjW0GNxVNra0cNDLeZiHscW2EJwBxj9ILtiMqHIsikMTodKXhI5xfXCeVwG8R32+lMG6M/VsEjxYi3HmLzH3GYmbSKdhzCKBnEJ6LN0Nq1iZhqVe2ogSHXS66cEUGAucbox7YDdo/To4zRjxU8xtfmsNtOx0yDN+BtnjH6YxQ8UoxkJogdBj63xuhraMe5g/gv2h262UkDQfyq21Ebw5Tx9/mS7cBAfzXLGP1YwSNV3sRZGKExurPNG5htqOAxwmA2IYUonZAbFTzyGbR/uU1lLUgQfy3tqIEh18tveGK3zQKQY4x+6nb0FkKnPgwnDFKadc9pY/ShaIsKHsOM9HZTD1DBY54x+tRWUGtoRw0Mif+RCJvBtlmHGKOXbsdgB1giEJoSPMLj9vYZvm+N0YFw+YYPRA8xgMcteKQYHGYtsNWBxR5zRe0YYiwVxJfspChrIQzir6QdNTBMLjC8sMnwW4ylU4EXaYccyQ4w8WGFBI8Eo33Y0ubabrUuCegmUNpNleHOBg05AXY7fHYBXaJpwWMuA+gzcgO6RRnWwc2MAFu38au9nutpRwZjThB/LkOykwgUx1Lt39bSjhoYJsTlZ3idLcY2yUoLtMPWqcMYnTu7yEomSIqhgscww8X8ZNpr0+GQYYxeUzuGGFgoiI9m+5ASPCSIv5Z21MC4e7jbSjeT2GJs3y1/6nYAUXw/9gW2J3ANPzLMFjzmBr9h5vdu66FwiaQ7aNktrQ5l2JeyhYJcxtyAru/8+pvLlmIs0Y4w+G1HAMAJg/hdxqT3xUraUQMD7cOWmy2GfEKWbgebVLitDdf0psBbexKTnUZQ/jgxImWMTsHaIRU88mMarvOLtx5aXTvOHMR/4/UvAggfyZ0g/kraUQ1jwidkwXY0RLiWzo9DY3TAG6PbTiPbGJ2O8Alhor0EmgFE22ER7xtUJnikGKhEKHiRylroa0lHMZZoB84cxPchmCBrIQjir6UdNTB486Tteqq4LcaYl2yHbPPXN0a3b8o6vx1GOj979Nb5YSJISTaLJGDYE46fBG47LDBod3cto2Q6IMCOiZEfryTDI5cRmZa76D13fXCqb0fIoDNkRsTbYcEF8Qk2iL+SdlTB2Nzci6Dkr6kd7JjtsJZqx1PA+Z0kjdFb+8bURghHCR6Y6K3N07a1DnFttYJHjaJK17QcCCcdZRhLtIPOH8Tfi+ARZi1IEH9F7Tg7IwpvRcISA62Z4S3YDhncuT4uDBC5LWImPsz11pgpeMBOSaOnbVQjDuLbd8+e4XEog5fOvghNyxNLyYswTih4AKcP4ucwUlkLTF17zPrbUQMjygTpbDG2lDG6ZSS3+ZMPq9MY/eppdYLHHMYpA7opxpBpeUlGdQH2EzAoFDwIySD+GtpRA8NnggRDGjVGj48hY/SxrYeEgYUFj9KMkmIER5kgZhEvS0aICh7ZjDvJTgqzFlyJZC5wle2ogRFvh4XqjNEnN0NAUcEjdcTG6AjXro2nypxF8JhyuivBOFiMoGjlmvnP+IQ4rxcVPDKzkwCftdAJ4q+mHRUwou2wgvAWA+ADjNFLt6O7DrALP6ng8fy5GqMfE5juMtQYvRxDjdFLZl8E2Unw97kao0ON0e1L5RisxujCoAMzCtQYvRxDjdGHDzVGN0dRMUKN0dUYvSZG7cbovTN4bryBn3LHGH2oE7i99TG/nBPuTq3vPvPLX+HtJ75sOj0XtbfTDfo1AP8a3ILu/9+W9q9MLGD7iZavXntpniJwF9I9pRmg9gHN/f99Cmbjj3v9gy/RXLXy5CHPMCd2Ekbn8g4y4lCsr8vAPp/BjN8mayvgwgpm+cYfguhvlGAUbwdgvnf3fZiGADzIiMtJXR7+PuYyQH+Lid5GmLUQBPGbl//r51fRjgoY1N7/NTRXf7+XnWR+W1/9+L23vi6/lxKCIJAVu3TG6NvOm7ON0TsnnB2ktCecNEaHrMAHvszgLxO3wOYGvLkBNw242VplyVRzP04SJzS7cPXqB6yifBUoyuzKRXVLMCDDL446TJ+U0QLbG7SbGyBg9Mq5TpnnMQhu+QYzbDs2INCPAfjtIozC7Yg8oeWvBKA1DN7e+AXeElCnbgXINwW+/kE7zbpC+LuazZD/l7aAIMs3+PoH/1URxhLtODOjG96KthibMEan02z/5ex/uXZjdIDNELr1W+U7s2+GeR/kd0Fmv5wm2ArKlGICE6frFmAMZl/Ilz1lWh7eaGHQ+MIZ4WG+dk5mX4Q3ZyhGRAwgnmZF5ZRRIePsxujb8AODN+8xnRVyA5zYGN0G8ZkAuN2i3R0WdVCQZR/tDrIMLhZVOF23LcBAYqqYECPMaLLDkHLBCBVh0PjCGfLZ0XZTbfx9SFfpyslXCowG2H25xJZWyqiCsaRwA69puKw3gdZpjN7xCZGr7MqTV5LchWd2C6ldTIrgy7m6iISCYxip7IuUGJEyLU97ePS3tLpoBtKeEWNbKJkOuR1mhOWUUSdDjdHNMWaMHvqEwMbfTJiJfdjCbZ6AOIskKtepKwwqwKBU9kXQjoBhB5S+nKtru5OhLa0ulsExg5HOvgjrQjrYFIODcuTrKqM+RgXG6KEIMmmMjiMFj3SQMpxyMcQY3dxsLogfX3zTU5lLKk+dYFTmBA/rkdGrK6MZIBQKjmKE6T6O0Rcj3IjHlXOvJhi4fEY00rDfRz/vltzQIRQj7O2UDrC72mS4yqiPERijn0jw6HZ+6zJGR7P5HQC/b542DBk4mOIMQrul3avGdFhNi+bKmNlE5XxdAA3a+y215jS4udpxs2275WYz5DDfbcRAyAjK+WYzkGSkhYIxBoHe7jKscPM9oP2gBOOU7eDmaodm2wKy9Mg9OIcZm+tdN8Ae1QUfwODX0T68Ho5mOoz3j2cs0Y4qGD8J4HOe5e9ze5zVGH0wFa5zAkUEj1R5M9y2I7+OMToDv/nxu2+9361ze/sMFC9yBoA7jDwRbJ0bGCUINJGpcghjbnxUGMwuQHsU4413vvV2UowA/+nT3/0nXyjBWKIdI+XD+M/JGHef+aWvobl6PRzNhEH8j9996xfX0I4aGJ9954O3CfS5lKhCM4zR7agPKJypMtoBLrEq20wx1Ri9FEON0Y9nQI3RizH8dljoiSpqjH6rxuglGYNiBKsx+hyGGqOXY6gx+tSQW43RyzHUGL0IQ43RyzFMiEuN0VN11BhdjdGr3AoKaoxejKHG6Ok6btssNUYvF9D1nZ8aox/DUGP0cgw1Rk+cMEIxQo3RizF856fG6Mcw1Bi9MEON0dUYfQ7j0DCEGqOXYagxejmGGqPbEyA1Rj85Q43RyzDUGL0gQ43RnwFqjL6IUKDG6MUYaoxeiBGFtyJhiaHG6OhOz+Igvn1XjdFzGWqMXoShxuhqjJ46TiJGcHibSufHaoyOA8QINUYvw6BQ8CAkg/hraEcNDJ8JEgxp1Bg9PtQYvYwYwVEmiFnEy5IRooJHNkON0csx1BhdjdHVGD2TUU0QX43RizHkehFIjdFT5dUYvZwYMejhocbosxlqjF4y+yLIToK/z9UYHWqMbl8qx2A1RhcGHZhRoMbo5RhqjD58qDG6OYqKEWqMrsboNTFqN0bvdYDPjTfwDXeM0Yc+RUZMuSfcDVLCrV2zP7AgE0R+bSnGYxc8UuW5m7VAfvlGLYLHEgw6MojPLkk/yFoIg/grFCPOxbh7uLvB9qaTncQuE+RM7XDG6E3nzdnG6ETRCWcHKQFzw6aM0VlWi3O9gkcpRkkxwgoe1vAJzlNlTE2fy1iiHecO4seZIP0g/hrFiHMxAI6mvYlMkKXbsbX3rs8FDt+Eny6e3RjdxF5U8MhlvJgyLV9JOyoI4u9DwaMbxC/EWKIdZ2eYGd4VajVGb8IPZA4W1U5nhdwAJzZG37+8pgozPOYwjhEK5gpQ4qnid9ZOd35HMR5BFkkqayEK4p9QjCjZjhoYvH16L4KHv6bmONYYfW474Psrl/Um0DqN0fevGtvIqgSPQxlYQihImJYXZ1yS4JFau+amvUDK7Hst7aiBgWbbqjH6EcboUMEjmzFoWr6ydsxhzAx+ZzHEj2bQ7Hsl7aiBEWeC2DG0/CYrMEYPRZBJY3Q6UvCQzi+ukzZGJwCwtnkqeOQxOMhaQJAJEmyHtYp2HMIoGcQnos3Q2rWJmGpV7aiBEWWCyJ8Ec58HxuinbgdM57cuY3TeXk8qOnikgkeKkcwEscPA58+fraYd5w7iv2h36GYnDQTxq25HbQxTxt/nS7YDA/3VZC5wScEjVd7EWdjuvhEbow9tvaGCxwiDGfF2WAyAGxU88hm0f7lNZS1IEH8t7aiBEW2H1dliDDOM0U/Vjt5C6NSH4YRBSrPuWY3RSzHUGP14Rio7SY3RD2OoMboaoy/G4DBrgQE1Rj8uO0mN0Y9nqDH6VJBSjdHLMdQYvQhDjdHLMUyIq15j9N4s89hRAJAX/Lblt3c/9fmv8PYTXw63HgqXxdgXADeagd8w1d7sTHYXZJb1Rfa1dge0icyIbjlZL3IgI/SM6GZfsO/Szedzn+E2gQDSdR8LIxIZAgamxYhUgH1qSytlnJ3x1e+8++bX5R+nFjzkuL19JmGbyo3R3b/ZbqGN2OybzfvuJnIzFDZLabg15buZEWG5cMnIoQwkGGwnTRS0i9kvrRAGKNnhy4RLtrS6VIabWHJoRi6xy/QWSr5cwrS8jb9z93nKqJIhRyh42FEfcALhhtdkjG5ekKcIRyMNADADN7n0cK+FW0GJqCJX3pfzu1FQAUY3+yItRvRNy1MeHqktrS6agbRnxNgWSr47TgfYx4y4lVEXwx5qjA4gNkYHp31C7HtEMB0Z4MpTYisoQqIcwd59bRGGHRTaDhNpMQJ+6uAYrhz5ugBSW1pdJiMUGaSDTTESYkSXwUh7eITnp4x6GKzG6EDnSRAao7sgPiFOQyK2nZK1+wHDbQXV7m1cqoFkRvTK2dfC0eWxjJ4PB8zzLmwHAz3TcikX1U1saXWpjNR2U/KuTLN621LJnwTHIGDQw0MZlTLUGL1/mCdI6586siQBBOJYjHBdJcEJHuaLigWPqJzt+PwSkQKM6OSDjoD7jEHTcqk7taXVhTHMETDgRxorCOIr4xhGBcboYQzQbREz8WFFfULiaykX3jrEMf4Em+333DpBDuJMUpEZ1O4bMf7hZtOGQXwp5+oyA+BG1sfBfLntUQwb9HUj2SGGfapGI16pCwB8NOPHgaQYsQPwB4UYp2/HZtuC5LsKD3l4AUh8H/YDXTl/cpjFYOCHCPxDQ0F8Av+3YxlLtKMGBjN/koh+OCWqLGWMbsN6yW3+5MPqNEZv6Evfee+vv5/LQEYg1ObEnjTD41yMF69/8SFpjE70B6/97q//RK3tOHXwey7jjXc++BXw/mtDQfzvvPvmT6yhHTUw3njnW28z+JtqjD5ywmqMXib7IhYtyD3c1RhdjdHPxVBjdDVGV2P0TMaJgt9qjK7G6GqMjkewbdagGKHG6LMZaoxejuFj+2qM3jthNUYHMGO7qUkGqzG6MGzwezZDjdHLMdQYffhQY3RzTAZ05zDUGF2N0WtiqDF6//OBxNZDrtNj83/shjEqeOQyjOABqDH6cUF8VmP0Ygw1Ru8fbkrKDDVGLyhGDGVfqDH6PIYao5djABxNexOZIEu3Q43Ru3XWKHik6qgxerEgvhqjF2KoMXp8wtFyGlJj9EEGqzH6JCMMfgPlgvhqjF6Oocbo5lBjdHOcXihQY/SjGWqMXo4BNUaPg5QS/wnLqTF6GYYao5dhqDF6OYYaoweCh3R+cZ1QDrdBfDVGP4ihxuhlGGqMXo4RZYLInwSoMXrvYLedjpkGqzH6XMbgllasxuhzGGqMfhqGKePv8yXbgYH+So3R1yp4qDE6cKIgvhqjl2OoMfpEb23WPasxeimGGqMfz0hlJ6kx+mEMif+RCJtqjO6P21s1Ri/J4DBrgQG/67Uao89hqDF6OYYao08FKdUYvRxDjdGLMNQYvRzDhLjqNUbvdYDHjgJwwLZZ3NlxVzJBUgwVPIYZIx4e7amD32sVPFIMNNuHlOAhQfy1tKMGxt3D3Va6mcQWY/tu+VO3A4ji+5Ubo9OyW1odyrAvZQsFuYy5AV3f+XVMy7t38hGMJdoRBr/tCAA4YRC/y5g0+15JO2pgoH3YcrOFGqMj6vy8GDFijG7XDKngkcnwnV+89dDq2nHmIP4br38RQPhI7gTxV9KOahhqjH6gMbrZyr0qwSPFQCVCwYsh0/KCjCXagTMH8X0IJshaCIL4a2lHDQzePGnVGP35M5dFEjDsCQ8bo9Pu7lpGyXRAgB0TIz9eSYZHLmPItJw7PWDt7QgZdIbMiHg7LKBn9r2SdlTB2Nzci6Dkr6kd7Kgxev8wT9vWOsS11QoeNYoqk6blBRhLtIPOH8Tfi+CRMvteUTvOzojCW5GwxFUYo4cBIrdFzMSHud4aMwUP2Clp9LSNasRBfPvu2TM8DmXw0tkXzRaw+yn6Z25hxgkFD+D0QfwcRiprgalrj1l/O2pgRJkgnS3GljJGt4zkNn/yYXUao189rU7wmMM4ZUA3xXBZC2EmSGFGdQH2EzAoFDwIySD+GtpRA8NnggRDGjVGjw81Ri8jRnCUCWIW8bJkhKjgkc1QY/RyDDVGV2N0NUbPZFQTxFdj9GIMNUaf6K3VGL2cGKHG6OUYaoxeMvsiyE6Cv89rMEZPzjEl+E3k7DEB4A6Z+Xj2BLKmi3ef+aWvobn6B2b5xhVA5JL6AXwJwG/Jyny0ezTf/+NrevjeNUDgq9d27Sd+5CUk1caW8/UZ9PCiae7+6Aa8b0Ab7J/+6B22T1tE5XzdogwglL18NgFnMKK62YzvgrvG6HuA+X/Qq/99W4hxsnawLDsx/zD/N8GQcr7u8Yz9D/yFL6C5/jtspyQUfu/m2v7EGtpRCeMXwPwNv0Af4X3+1Y/fe+vr6ByHTnuDmB+Q11+lR4ChUJD7RAhPOEcokBPGiDE6gG8A+IbEtQgAP/kU+OZTYLttlgwSCRL/AiB7dzCDm2u0r33axRUlMyIq5+oewfjkp9FtR0+MCH5MIaPn4REUnstIG6Nv/xy/9mP/pRTjVO0In8ZM0snCfH6HEZeLhbRSDN/MXhD/u2tqx7kZqewkNUbPMEYnGQ2C7UgmNvuW0QUDvpwJ1MCvJUQsqkTlOnUPZETTd2EkxQggZVouD9dwVNrb0upiGYntprqMITEiZADDHh7KqJPBvnbQNywh3Dhj9G3nzdnG6J0Tnr1tVsoYHQiG3sR+NAOAm8ZtmBpdfFvP9J9+K6ieomy3jOrVLcFAzAjVL8fgvWl3wDA/kKCce/XyGaHxuKso33l6C6WgHHxd595m+mB5qA5taaWMChgTxujjcUUAnY1YKG/bLGf/y7UbowMMandA67fKd2bfdrhBIL8LMvvlNMFWUKYUkxue9+oWYAxmX8iXPWVaHv3wGC5ofOGM8DBfOyezLxAwQjEiYsCPNIY8PJRRFePsxujb8AODN+8xnRVyA5zYGJ2tTwgBcFNSd4dFHZT5B9sFloi3gorKdeq2BRgQz4igNT0xwps9RQwpF0abXdzk8hluoiWCiWRfBN+HdJWunHylQG9phXznk1taKaMKxjEZHnbUB2RmkcBrwwKxsAAABiVJREFUGi7rTaB1GqN3fEKi2RXgLiwQXPhgmuW2giL4cq4uIqHgGEauGJEyLU97eAwEjS+VAa/Aj2VfDGUUjAXY47rKqIqhxugAMf47CN+Wu4EYDdpdQ2yKMG13oA3AJLNie5gK9sI3tL9v7GstmqvW9HpBufAxBW4oZOA4RicSIn/G7QgYcTn/kyBwzNg8UgbFDCQYyGQELGXUxth//3/izMbooQgyaYyOIwWPVJDyO++9+T6A90cYd2OM29tns9cr2idIGGwtzkA/oDvKeG58e5WhjMfKOIXg0e38esbo/a55+MOOEjw4I6MAM7NI0AmE5jD4DBkep27HY2bggKwFZShDjrMbo3cZNtzW2zYrPOxU3DEkEDrGkOk7Xbox+oUywuA34BmoeCsoZdTPSGaCdD8MC26nQ5VtaXUoA5VsN3UpDKxwKyhl1M8Y7ABLrMruCh7dQ0ZlnLltVndqzRe4pZUyhhlHBr+VoYzekewATyV4DDFs5zfJYDVGV0YFZt/KWD/D1ml6IsixowCo4KGMEzGwsgC7MupjAGZWaMuf3xidJrbNkgA7jhA86JEYo18KIwx+2xEAcMIAuzIeD4OrM0ZXwUMZ/eMiAuzKqI5RnzH62gSPFKN0O2oXI5ZgyA8UKwywK6NKRq3G6OMMltxcNUZ/lAxaifeFMqpnJI3RKegdG5gtYqY2QlhM8JjDWFrwUFFlXcFvZSjDjipffliTMfoQI3j57BkehzJ45dkXSzDC4Dew3owCZVTPaC0j6uPkw85mjN5lHBMIrU1UWbsYoYKHMi6M0RvgVWGMngqE5jKwsOBRmlG7GLEE4wIC7MpYKaMCY/SYwTOzSGydxQSPqo3RV85YcYBdGStlDG6HpYKHCh4qeCjjkhlSoXfc3j7r5cRipuBBmcboOELwoBNneMxhdAO6pxIjLpGBFWYUKOMiGOkOkAKhILe3hgoeqxYjLoWByw7iK6MAwx51GKOr4FGPGHEpjFoC7MqoluGM0ZvOm7ON0YmiE340gkcpRo1ixKUwzh1gV0aVjK29d82DuPPmNfyoMLluplP+5D4hKngoYy4DFQTYlVEfA4iM0XcffvhtMwIMekY3h8ZCxuhTDBEjphgSYBdGThBfpr2nZBwjFMwVoB4bIwx+AxeVtaCMEzDg+yuX9SbQsxmj5zBqEzwOZaASoeBSGKgwwK6Mqhn1GaMPMTjIIlHBQxlDjAoD7MqomxGVD0WQSWP0JQQPSmSRqOChjClGJQF2ZVTKgOn81BhdBY/LYqCSALsy1slQY3QVPFbBqD3Arox1MrbJVzsfBhU8VisUXAoD9QfYlbFCxmAHWCJIeYjgkcsAVPB4bIwVBNiVsRKGHMkOMPFhJ83wCAWPMQarMboyVmrErYy6GLaOGqOXZCzRjsfMwMoC7MqojwGoMXpxhn0pWyjIZRwjRqyZEQa/qb4tlJSxYgarMXp5BioRCi6FgQsJsCujOoYao5+CUbodtYsRSzDkB4oVBtiVUSVDjdG7B2uGR/UMqiyjQBmrZagxeoqhokqdDKwwwK6M6hnSWbo+To3RT5hFwivPvliCEQa/gfVmFCijekZymz/5MDVGPwFj7WKECh7KuDBGb4CnxuiaRXJ2xgUE2JWxUkaOMXojw0j43aKzBI+cEw7OQ7JIXOc3lzEheIgKBMAzZvid5IxgZzOYD7tWl8iYE/xWhjJKMAa3wwqlY2B8GNmpcw3TAzf2hKeW0yzCyBkOl2yHHSlmM6yo8igZWPHvShnrZQD9hdDhIQ5xrR2V3SNPJGmkPPP4DtO27LUNULZAPiMoP7qRa8iY2445DMAssIR56tzbNikjg4GM74O9mc3k78qWlQWv2b8rZTw6RroDvPVKaSvy8VRPCuu1CfOjbseCmnICbBZey+dOMmwjZWTSji3FEAbgGTntOJTBwQLLOQwg71o9VgaC31UO49bmeSpDGRmMfgcYPNXDTmPwU4Khp/TWo8tpQkan88tiSA8/NjIB4k781IzOhZ/FsCMhZYww5v6ulKGMKYaMLlMjQOl5gbzlMXJIb51T9iCG3Gw55YORySIMO1rM+XxR0pWRycgtD9shK0MZOQwA7f8HSyOWQIJmnWcAAAAASUVORK5CYII=;labelPosition=left;align=center;" vertex="1" parent="1">
          <mxGeometry x="1134.26" y="410" width="72" height="72" as="geometry" />
        </mxCell>
        <mxCell id="xLPijeGfnM_CjZ15K6nw-2132" style="edgeStyle=orthogonalEdgeStyle;rounded=0;orthogonalLoop=1;jettySize=auto;html=1;shape=flexArrow;dashed=1;" edge="1" parent="1" source="xLPijeGfnM_CjZ15K6nw-2127" target="xLPijeGfnM_CjZ15K6nw-2126">
          <mxGeometry relative="1" as="geometry" />
        </mxCell>
        <mxCell id="xLPijeGfnM_CjZ15K6nw-2127" value="" style="shape=image;verticalLabelPosition=bottom;labelBackgroundColor=default;verticalAlign=top;aspect=fixed;imageAspect=0;image=data:image/png,iVBORw0KGgoAAAANSUhEUgAAA+gAAAPKCAMAAAAwGYDrAAAADFBMVEVMaXEArdQArdQArdTnwP93AAAAA3RSTlMApk0KRuKcAAAACXBIWXMAAHJkAAByZAFUE4h3AAAZCklEQVR42u3d4XLcOKJDYZN6/3eeSpxkZjex3bFbEgl85+etrb2bFsEDoR3n5QV9zDnG8YMxpg8EyEv5r4z/QtaB+Jh/R9SB+JiLOpDDOzH/VuB9QEB8zkkdSKjtx8dIOpCfc0kHGnIu6cDWHIekA+mMh4N++LCA/Jz7lg2IL+7KO1AhdOUd2JP5dzlX3oH44k7pQENxp3SgQuj2OKBA6JQO7MY8DkoHCN0eB3QKXXkHtuL4LMo7kF7cKR0oKO6UDlQI3R4HNAhdeQc24fgaPkAgvbhTOlAhdHscUCB05R1Yn/n1nFM6EF/cKR2oELo9DmgQuvIOLM14UtApHUgv7pQOVAjdHgc0CF15B5bleCY+TiC9uFM6UCF0exxQIHTlHViR+eycK+9AfHGndKChuFM6UCF0exxQIHRKB9ZiHgelA4RujwMIXXkHluc4Dx8ukF7cKR2oELo9DigQuvIOrME8N+fKOxBf3CkdaCjulA5UCN0eBxQIndKBu5nHQekAodvjAEJX3oHlOa7CRw2kF3dKBwqKuz0OqBC68g40CF15B27iuBYfOJBe3CkdqBC6PQ4oEDqlA9czj4PSAUK3xwGErrwDy3Pcg/IOpBd3SgcKijulAxVCt8cBDUJX3oHLOO7Exw+kF3dKByqEbo8DCoRO6cAVzOOgdEBxt8cBhK68A4SuvAO3M5YIOqUD6cWd0oEKodvjgAahK+/AiRzr4GEA6cWd0oEKodvjgAKhK+/AOcy1ck7pQHxxp3Sgobjb44AKoSvvQIHQKR14NvM4KB0gdHscQOjKO7A8x6p4NEB6cad0oELo9jigQOjKO/As5so5V96B+OJO6UBDcad0oELo9jigQOiUDnydeRyUDhC6PQ4gdOUdWJ5jDzwoIL24UzpQUNztcUCF0JV3oEHoyjvwaY6d8LiA9OJO6UCF0O1xQIHQKR34DPM4KB1Q3O1xAKEr7wChUzpgiaN0QHG3xwGtQlfegQahK+9A+hJH6UBHcad0oELo9jigQOiUDqQvcZQOdBR3exxQUNyVd6BD6Mo7UCB0SgfSlzhKB0qEbo8DGoSuvAPpSxylAx3FndKBCqHb44ACoSvvQPoSR+lAR3GndKChuNvjgAqhK+9AgdApHUhf4igdKBG6PQ5oELryDqQvcZQOdBR3SgcqhG6PAwqErrwD6Uuc8g50FHdKBxqKO6UDFUK3xwEFQqd0IH2Jo3SgROj2OKBB6Mo78HI04DFDcad0QHG3xwGErrwDhK68A5Y4SgcUd0oHCN0eBxA6pQNNSxylQ3G3xwGErrwDhE7pgCWO0gHF3R4HELryDhC68g5Y4igdivtB6QCh2+MAQqd0wBJH6YDibo8DFHflHSB05R0gdEoH2pc4Sgeh2+MAQlfeAUscpQOKO6UDhG6PAwid0gFLHKUDirs9Doq78g4QuvIOEDqlA5Y4SgcI3R4HELryDljiKB1Q3CkdijvscSB05R0gdEoHLHGUDiju9jiA0JV3gNApHbDEUToIHfY4ELryDljiKB1Q3CkdUNztcQChK+8AoSvvgCWO0qG4g9JB6LDHgdApHbDEUTqguNvjAEJX3gFCp3TAEkfpUNwF1x4HQofyDkJX3gFLHKUDijulA4RujwMIndIBSxylA4q7PQ6KO5R3EDooHYRO6YAlzh4HELryDhC68g5Y4igdUNwpHYQOexwIHZQOSxylA4q7PQ5Q3JV3gNCVd4DQKR2wxFE6CB32OBA6lHdY4kDpUNwpHVDc7XEAoSvvAKFTOmCJo3Qo7rDHgdChvIPQQemwxFE6QOj2OIDQlXfAEkfpgOJO6VDcYY8DoUN5B6GD0mGJe+r77phzjEHpQG5xn7s2EXscCP1zBXhs/L8dIPRHszIpHYhb4jb/n0/pUNw/GZTNLyqA0B+qvkN5B5KEnvtHACxxH73hUjqQXtwTZgaA0B9ovfY4IF/oyjuQvsRROlCwxFE6kCP0kfNHsceB0D8bjknpQEE2KB2IXuLscUBHcbfHARVC9yPvQIPQKR3oWKntccDG+ku8vJR3EPpna67yDhQMV5QOZC9xlA7sLPSR+gezx4HQPxsHP/IONKRhUDqQvMTZ44Ae6dnjgOwlzh4H1LzFUjrQsEtTOhD5Q+72OKBN6Mo70PHbGSgdinvB+yulQ3FvSIA9DoRe0Gn9yDsIveH8+5F3WOIKRipfsUFxb9CcPQ6E3nD27XEg9IKjT+mwxDWcfEqH4l4wT9njQOgNVVZ5B6E3+I3SYYkreGOldCjuDWfeHgdCL2ix9jgQekOJ9SPvsMQVmI3Sobg3iM0eB0JvOO32OBB6wWGndFjiGs46pUNxLxik7HFQ3BvKq/IOQm8wGqWD0AveUSkdlriGU26PA6EX9FZ7HAi9obYq77DEFbiM0qG4N7ydUjoIveF82+NA6AXH21YBS1zD6aZ0KO4FE5Q9Dop7g8TscSD0hpNN6SD0grdSSoclruFc2+NA6AVN1R4HQm8oqso7LHEF9qJ0KO4N76OUDkJvONH2OBB6wYG2XMAS13Ce3YBQ3AtGJ3scFPcGbdnjQOgNZ5nSQegF76GUDktcw0n2FRsIvaCb2uNA6A3VVHmHJa7AV5QOxb3hDZTSobg3nGF7HAi9oJW6DkHoDSfYCw4scQUzkz0OinuDqOxxIPSG02uPA6EXHF5KhyWu4exSOhT3goHJHgdCbyijyjsIvcFQPjBY4greOSkdinvDqbXHgdALeqjLEYTecGa97sASVzAs+YoNinuDmuxxIPSG82qPA6EXHFdKhyWu4bRSOhT3gknJHgfFvUFKyjsIvcFJPj4QesFbJqXDEtdwTu1xIPSC5mmPA6E3FE8vP7DEFdiI0qG4N8jIHgdCbzih9jgQesEBtXTAEtdwPikdjmfBiGSPg+LeoCF7HAi94WxSOkio4L2S0uG1suFk2uNAQQVd0x4H57Khairv0DQL/EPpoJ+GN0pKB/s0nEl7HMin4Ei6PuFENpxI9yd0zILZyB4H4mkQjz0OhN5wGikdtFPwJknp8CLZcBZ9xQbSKWiX9jg4iQ3lUnmHbllgHEoH4TS8Q1I6+KbhFNrjQDcFvdJlCmew4Qx6PYJWWTAU2eNANQ2qsceB0BvOnz0ORFNw/CgdXh0bTh+lw+ErmIjscXD2Guqk8g5Cb3CMjxsUU/DWSOlQ3BvOnT0OBFPQJF2tcOoaTp2XJeiRBdOQr9hALg1ysceB0BtOnD0O1FJw4CgdXhYbzhulw3ErGIXscVAgG7SivIPQG6ziwwepFLwnUjq8JjacNHscKKWgO9rj4Jw1VEevTtAcC3xC6aCTBp3Y40DoDWfMHgcyKThidhI4YQ0njNLhgBXMQPY4KO4NIrHHgdAbThelg0YK3gwpHV4MG86WPQ4kcrh2PQ4QunvX84D5x8XrgSju3gk9EUrnD6dKx7LH0YdD5fKFM+VMuX2hJRp+7HGgjjp12OPQKvThwVA6CN2TcQXDEkfp7mBC1w9dwh6Os0TobmFPRzvkDEoHZXgLpHQwhnNkjwNhFDdDVzGcIncxpcMS5zL2kEAWnpLaRehOkMdE6VRB6J6TC9nLn/PTqnR7nOOjEdrjoBASumcFQvewPCxY4jwtSocljtLdyxShC7qYXczOjXPjZqZ0TZDQXc0eGT3Qgz0OhO7M2ONADo4MpcMSR+nuZ1jiXNAenApIDJ6cKkbovODReXS0QOieHaV70XNW7HEeFylof65pOClOihcvmHNc1B4gCMETVMkI3SnxCN3VdOCQeIYuay94zgilu60dEUOO69pjVPqoQHkHoTsfmhkIHZQOSxylu7Phh9xd2h6ms0Hobm1K1/Y4wLXtcVIABXieChoDOBf2OBCApufqhlMBSoclzuXtocIS56mqaYTuRHislO7qJ3TP1QXuZc55oHQ3uOOg4bnCPVqngdCVdxA6KB2WOFA6FHd9zT3uytftXOQucufAOXCTU7pmR+iuco/Yde+694yVNkJ3BrQ2EDooHZY47K9097lOB3scVDp40iB0j9qjds17c/OsKd2Lm2dP6W51l7w251p3rXvynrx7ndJ1OUJ3sXvgLngXvD0ODUL31HU4EDooHZY4bKl0t7sWB3sc4kqcJ668o0DoHrgmhwKhCzqlI/9Vzc1uj0OB0D3v2kue0quETum1t7wrvqa9udmrr3mPq6e4u9rtcagQ+usjH8Juj0O20KWd0hG+xAk7paOluAu7PQ4txV3YlXc0CV3Ym46Bp1Ut9H/DPoWd0pG1xL0Zds/WHodkoRO7PQ4lQif27DvfY61e4mSd0lFW3GXdHoeS4i7r9jj0CF3WAy9+Sid0Wad0dC1xsm6PU9yPUmTdHkfosu5QULrLW9SdCkr3OibrlG6P80BJgQCUd8+T1pV39zShOy4UQOmWOFqndCjuhh17nEsb7LClBjw0QtfgGzzgkVninBt7nAsbyqA9jtBF3RGhdNe1l3VnxL3sBUzUKd2u4hGKOh0o70oZVTgnyjuhi7qDQumELuqUDkucqNvjXNNwjLaUAqUTugW+wQqUbokTdV+xuaIh6vY4Qkf1WaJ0F7SoOzGejVcuUad0e5yH5rs2clDe1TCrnFOjbRG6E+XYUDqhizqlW+LgVd0e52IGfeyrCEondMeqwRH1SpdK58pXbC5lkLo9zp2M7pOlZLmSUXC0KJ3Q0XC23LseEwoOlz1O8UKD1JV3QkeD1CndZYxXkUyniNK9XunvlK5duYpJnTDcuITuiDEGpVviJJ0yuvc4xZ1N7HGKOxwye5xLGE6ZPc6TQdkxc9l6MCg4Z/Y4xR0NUrfHEToaDhqlu35RUN8p3QsVGo6ai9Yjwe9Jn/ShvHsi6rvy7sMndPWdQCjdEqe+O1n1e5zirkHqigXlndCJhUTylU7ozhuLHH5nJxw4e5wrF6RujyN0tJ84SnfhouB7Nkr3CoWGF3WfuoeAArvY49QqNCRdeSd0FBw6SnfVouGVkdLdtGhIuo/cRXvVRf0L9Z1SupQ+g/M8v/PhJ/CdtS+AwSmUbon7me1HYv3A1fcj9pJuj1Pc14n3U8L9ZubXSfx02lytZUJ/zfeVKpoL5H06bpTeIfST/b163KfzRunZL01XG/yjuDt6vmLzsT854nPJz/ueuA9qUd7DitRYNeK3pn04cz7tGKFvEPHb0r7/X1GndJfrZhH/37R7c6R0r0sPZXz7D/Qate/+OdnjWq/WEfQrk65Q+yQYSt/s8x4j8K8JnR72yTCUvk2Disz4f3s80fiKrfxaDc/4BWYfzp7yvvatWhLyswe6vc8fpUdfqmUZP7fFD6eP0hcUemvIzwv71gfQV2yRH3R5yE/K+s5Jt8fFVSchP22eG06g8r6E0IX8ZLFPR5DSb75Od/2p9b2yPp1BSr/vBUnIL8v6vh+0PW7vj3jo65dmfdtP24+8b/wJC/n1Wd/2I/cj73sKXV+/KeuUbo+76iLV12/M+rbf/tjj9rpHhfzmqG/7+dvjtrlGqXyFrCvvlH7mZyvkizwbSqf0sz5aKl9I66PuarPHXfLJCvlaWd/3h7HtcesKXcrXi/q+f1hKX1PoUr6k6Hr+pJR+QdClfFWtb/wHtcetdX8K+cIPy6+gUN6fEnQpX/tx+f1xlP71D1XKl/fdzP8jUvrJQR/Ctv7LetfyaI97+mdK5ltEfffL2B53a02S8l0u6N0flB95v+/ylPJ9oj7C7zFKP+0jlfKNHl3AimKPu+Ej5fLNop7/aqK8P/0jlfLdnl7ItyKUfqXSxXy7qI/YG4zSz0q6lG+XiaCb2Vds1ySdzHfarsZ3oh6ZPe6Kz9SPv0F5D/xx0SHmoPSGX0ExdHZQesGvoPj2b3VP/7YK7HHZv4ICUN47lA4o75QOUHro7wAAKF15B06F0gFKp3TMt/HhULo9budgv/7I92MW+PGfHYJvj1Ped4j3w9H+MPYir7wr76sF/Cn5/nPkBV55p/TbI35SwOWd0im9KeK/5d0nT+n2uMuK+q0XNbvb4yg9OuPkrrxTekvGuZ3S7XFnvY8v3M+ondKV9+yQ//tAqd0eR+nZIRd2Sqf0kpALO6Xb4z6T8mNfvLPb45T3VJUb6JR35b1E5cSuvFN6V8qJndIp/Y8hj0s5sVO6PS5c5bJuj6P0rpTLuvLu4ZfEXNa7lX5I+VGFrNvjpFzWYY+TclmHPU7MN8u6mFK6lNM67HEmFFmHPY7MVXjlndI1LVqndJe6Z+IEULo9TmendS3Rha6zu+4VxdpnTOa0TiLpe5zOLuo8El/exVy7s8fFP14xd+sr7/EP1wKnwSvv8UoXc1F31uL3OJ3d1e+4xZd3MRd1e1y80sXc7e/MxT9UMXcqKD2+qZngRN3Biy/vYi7qmmS80sVc1J2+eKX7KThRp/T8pynmDoc9Lr68i7moK+/xj1LMnQ/nMF7pNjgHxEmM3+NscKJO6fnlTMxvOCKinrDH6Urwqk7pPlaIuq/Y6Nyruj1OeadzUVfe1TI6t8op75RO55zgaBY9PjrX3yk9/+nRuf5OQ/FK96NwTovynq90tV3UKT1/j6NzZqD0+Duazh0Ye1y+0ulc1Ck9/7HJuf5O6fFPTW33VZs9Lr+807kiqLznPzM5d2yU93ilq+2iTun5D4zOrXKUnv+85NwqZ4+LV7raLurKe77S5dyrOqXn73Fqu6hTev6jknNRt8fFK11tF3VKz39Oci7qlJ6/x6ntom6Pyy/vci7qynv8M1LbRV15z1e6nIs6pec/IDkXdUrP3+O8nos6pec/HTkXdcN7vNL9Aw3pUe/66y5bPRs3IES9oJ8OOcfeu4+gL/Vc5NzLuqDnPxWv56Iu6PlKl3Mv64Kef/vKuZd1Qc8f3uVcgxf0+MdhhtPgBT1f6XJO635gJv9RyLmoZ2p9w5Pt0wCtFyxPQ85B6+nN/USlyzlStT48Al+rIV/rez4BOYesFxzu6aOArOe/lA45h9f1gvFJzkHrBSPzlHPIev6XSUPOIesFXxrLOe7J+mZh3/1XnE45B7Gnx/yp3V3OEZn1jN9XLudQ4tNT/sTuLueIE3vSvz0y5RzC/qeQZ53pIecQ9mCVPzPoco6Yd/bUfytQzrFg2O9Je1pff+5LupzjJLVfmPaZ/q/+TjlHd5GfySJ/2ku6nGNft3dk/BlBl3NsGfeiiD8j6H4PJK6O+5hfCfz8lvBGPQ05x56B/4vIv8Z7VPdPOUdC6N/E5/PVoMs5kB90OQfygy7nQH7QM3P+68VuvvLWsjN/rjveAZEd9JEV7vml72ysuggN+ojI9wk/cFX7PS0Sgz62DvgVf1lC3rF/0IeA+0lLxAd9iLi/54z4oM+NIj7X+U1k0o6tgj73iPiav1lU2nFTIuJyvpTGhR2bBl3GhR35QR8y7veNIj7oY9GQv+zJFHZcw9w75xuKnNixetDHaiF/ycAbO85m08E9J+TEjsWCPoVc1pG/xQm5rCM/6EPIZR3xW9zNx68j5LKOm1/Rx60hb0q5qOO+5j5vTPlLJ7KOy4M+hVzWkf+KLuV3Ieq47hX98tM2pJzWcXVzv/ikCbms44bmPqVc1BHf3KeUyzrym7uUizryhT6kXNYRL/Qh5aKO+CluSrnv1hHf3KeU0zryhT6knNYRL/Qh5Str3RnGU4Q+pVyDR7zQp5SLOvKFfk7MhdPLOi5j3HKAyNzLOhYT+pRyDR7xQp+X/3+EBo/LlzgyF3XkF/ch5V7WobiLuZd1bF/cp5SLOhR3+5uXdexf3J9xUMhc1BH/gk7moo7Fc/7lb9bI3ASP5Ye4r7pAzO1yiB/ipFzUsUPOv1L4yFzUsUfOvyB0A5xdDvE5J3NRxzY5/2Rx19lFHRvl/HPfrOnsoo6tcj5O+u+FL9ZxCeOcf5ZFZxd1rJTzh86BmIs68nM+zvgvhS/WsVTOp5iLOsJnuL8s7jq7qGPPnD/+7L2aizr2rO1/UdzF3Bfr2DbnL2Iu6kiv7Y8+cwucqGNjnT9W3MVc1LF1zl/EXNSRXtsfedZiLurYXOcfF3cLXPq3bQJTkPMXMYeop9f2j5qbmIs6AnT+/gMW86aoe1nP1fm7QhdzUUeEzt97QxdzUUdMzl/EHKK+W8w/EU8xx1/Ns9hQ538Ouh+PEXVE6fxPz1TMIephOv/96zUxh6jnxfz/HqiYQ9Rzvjt/43mKOd6te9hW5//5RkXMIerBMQc+1gDEHKKOJb9SA0S9ZYMDTPBiDoi6l3OIOsQcoS/roifmsMtBzCHqEHN4WYeYQ9TFHLDLiTngZd2PxwCiLuaAl/VrOruYw8u6mAMavAUOEHWv5oCXdZ0doHUxB0RdZ4cGDzIHrdvZAVEnc2DhrMsymYPWyRwwzJnZAVonc4DWpRygdSkHTsq6lAO0LuaArEs5YJmTcoDW7wm5lEPWqRxoyLqUA7Qu5YCsrxpyKQeys07lwPtZH0IOELuv0QBZF3Jgq6zvFHYhB8Lf2M3rQHbYiRzIDvsgciA67TIOnBz2m9OuqwPJaR80DtwV9yHigLx/OeASDiyX92ckfgg4sEXkXzP/cOp//KelG9g6998Z/+Hn/6032f8AT6wHr3xuNZwAAAAASUVORK5CYII=;" vertex="1" parent="1">
          <mxGeometry x="1140" y="309.7999999999999" width="60.52" height="58.7" as="geometry" />
        </mxCell>
        <mxCell id="xLPijeGfnM_CjZ15K6nw-2135" style="edgeStyle=orthogonalEdgeStyle;rounded=0;orthogonalLoop=1;jettySize=auto;html=1;shape=flexArrow;dashed=1;" edge="1" parent="1" source="xLPijeGfnM_CjZ15K6nw-2128" target="xLPijeGfnM_CjZ15K6nw-2134">
          <mxGeometry relative="1" as="geometry" />
        </mxCell>
        <mxCell id="xLPijeGfnM_CjZ15K6nw-2128" value="data/stage/&lt;br&gt;stock_market/&lt;br&gt;XXX.parquet" style="image;aspect=fixed;html=1;points=[];align=center;fontSize=12;image=img/lib/azure2/general/Folder_Blank.svg;labelPosition=center;verticalLabelPosition=bottom;verticalAlign=top;" vertex="1" parent="1">
          <mxGeometry x="1141.92" y="529.65" width="56.68" height="46" as="geometry" />
        </mxCell>
        <mxCell id="xLPijeGfnM_CjZ15K6nw-2141" style="edgeStyle=orthogonalEdgeStyle;rounded=0;orthogonalLoop=1;jettySize=auto;html=1;shape=flexArrow;dashed=1;" edge="1" parent="1" source="xLPijeGfnM_CjZ15K6nw-2134" target="xLPijeGfnM_CjZ15K6nw-2136">
          <mxGeometry relative="1" as="geometry" />
        </mxCell>
        <mxCell id="xLPijeGfnM_CjZ15K6nw-2134" value="" style="shape=image;verticalLabelPosition=bottom;labelBackgroundColor=default;verticalAlign=top;aspect=fixed;imageAspect=0;image=data:image/png,iVBORw0KGgoAAAANSUhEUgAAA+gAAAPKCAMAAAAwGYDrAAAADFBMVEVMaXEArdQArdQArdTnwP93AAAAA3RSTlMApk0KRuKcAAAACXBIWXMAAHJkAAByZAFUE4h3AAAZCklEQVR42u3d4XLcOKJDYZN6/3eeSpxkZjex3bFbEgl85+etrb2bFsEDoR3n5QV9zDnG8YMxpg8EyEv5r4z/QtaB+Jh/R9SB+JiLOpDDOzH/VuB9QEB8zkkdSKjtx8dIOpCfc0kHGnIu6cDWHIekA+mMh4N++LCA/Jz7lg2IL+7KO1AhdOUd2JP5dzlX3oH44k7pQENxp3SgQuj2OKBA6JQO7MY8DkoHCN0eB3QKXXkHtuL4LMo7kF7cKR0oKO6UDlQI3R4HNAhdeQc24fgaPkAgvbhTOlAhdHscUCB05R1Yn/n1nFM6EF/cKR2oELo9DmgQuvIOLM14UtApHUgv7pQOVAjdHgc0CF15B5bleCY+TiC9uFM6UCF0exxQIHTlHViR+eycK+9AfHGndKChuFM6UCF0exxQIHRKB9ZiHgelA4RujwMIXXkHluc4Dx8ukF7cKR2oELo9DigQuvIOrME8N+fKOxBf3CkdaCjulA5UCN0eBxQIndKBu5nHQekAodvjAEJX3oHlOa7CRw2kF3dKBwqKuz0OqBC68g40CF15B27iuBYfOJBe3CkdqBC6PQ4oEDqlA9czj4PSAUK3xwGErrwDy3Pcg/IOpBd3SgcKijulAxVCt8cBDUJX3oHLOO7Exw+kF3dKByqEbo8DCoRO6cAVzOOgdEBxt8cBhK68A4SuvAO3M5YIOqUD6cWd0oEKodvjgAahK+/AiRzr4GEA6cWd0oEKodvjgAKhK+/AOcy1ck7pQHxxp3Sgobjb44AKoSvvQIHQKR14NvM4KB0gdHscQOjKO7A8x6p4NEB6cad0oELo9jigQOjKO/As5so5V96B+OJO6UBDcad0oELo9jigQOiUDnydeRyUDhC6PQ4gdOUdWJ5jDzwoIL24UzpQUNztcUCF0JV3oEHoyjvwaY6d8LiA9OJO6UCF0O1xQIHQKR34DPM4KB1Q3O1xAKEr7wChUzpgiaN0QHG3xwGtQlfegQahK+9A+hJH6UBHcad0oELo9jigQOiUDqQvcZQOdBR3exxQUNyVd6BD6Mo7UCB0SgfSlzhKB0qEbo8DGoSuvAPpSxylAx3FndKBCqHb44ACoSvvQPoSR+lAR3GndKChuNvjgAqhK+9AgdApHUhf4igdKBG6PQ5oELryDqQvcZQOdBR3SgcqhG6PAwqErrwD6Uuc8g50FHdKBxqKO6UDFUK3xwEFQqd0IH2Jo3SgROj2OKBB6Mo78HI04DFDcad0QHG3xwGErrwDhK68A5Y4SgcUd0oHCN0eBxA6pQNNSxylQ3G3xwGErrwDhE7pgCWO0gHF3R4HELryDhC68g5Y4igdivtB6QCh2+MAQqd0wBJH6YDibo8DFHflHSB05R0gdEoH2pc4Sgeh2+MAQlfeAUscpQOKO6UDhG6PAwid0gFLHKUDirs9Doq78g4QuvIOEDqlA5Y4SgcI3R4HELryDljiKB1Q3CkdijvscSB05R0gdEoHLHGUDiju9jiA0JV3gNApHbDEUToIHfY4ELryDljiKB1Q3CkdUNztcQChK+8AoSvvgCWO0qG4g9JB6LDHgdApHbDEUTqguNvjAEJX3gFCp3TAEkfpUNwF1x4HQofyDkJX3gFLHKUDijulA4RujwMIndIBSxylA4q7PQ6KO5R3EDooHYRO6YAlzh4HELryDhC68g5Y4igdUNwpHYQOexwIHZQOSxylA4q7PQ5Q3JV3gNCVd4DQKR2wxFE6CB32OBA6lHdY4kDpUNwpHVDc7XEAoSvvAKFTOmCJo3Qo7rDHgdChvIPQQemwxFE6QOj2OIDQlXfAEkfpgOJO6VDcYY8DoUN5B6GD0mGJe+r77phzjEHpQG5xn7s2EXscCP1zBXhs/L8dIPRHszIpHYhb4jb/n0/pUNw/GZTNLyqA0B+qvkN5B5KEnvtHACxxH73hUjqQXtwTZgaA0B9ovfY4IF/oyjuQvsRROlCwxFE6kCP0kfNHsceB0D8bjknpQEE2KB2IXuLscUBHcbfHARVC9yPvQIPQKR3oWKntccDG+ku8vJR3EPpna67yDhQMV5QOZC9xlA7sLPSR+gezx4HQPxsHP/IONKRhUDqQvMTZ44Ae6dnjgOwlzh4H1LzFUjrQsEtTOhD5Q+72OKBN6Mo70PHbGSgdinvB+yulQ3FvSIA9DoRe0Gn9yDsIveH8+5F3WOIKRipfsUFxb9CcPQ6E3nD27XEg9IKjT+mwxDWcfEqH4l4wT9njQOgNVVZ5B6E3+I3SYYkreGOldCjuDWfeHgdCL2ix9jgQekOJ9SPvsMQVmI3Sobg3iM0eB0JvOO32OBB6wWGndFjiGs46pUNxLxik7HFQ3BvKq/IOQm8wGqWD0AveUSkdlriGU26PA6EX9FZ7HAi9obYq77DEFbiM0qG4N7ydUjoIveF82+NA6AXH21YBS1zD6aZ0KO4FE5Q9Dop7g8TscSD0hpNN6SD0grdSSoclruFc2+NA6AVN1R4HQm8oqso7LHEF9qJ0KO4N76OUDkJvONH2OBB6wYG2XMAS13Ce3YBQ3AtGJ3scFPcGbdnjQOgNZ5nSQegF76GUDktcw0n2FRsIvaCb2uNA6A3VVHmHJa7AV5QOxb3hDZTSobg3nGF7HAi9oJW6DkHoDSfYCw4scQUzkz0OinuDqOxxIPSG02uPA6EXHF5KhyWu4exSOhT3goHJHgdCbyijyjsIvcFQPjBY4greOSkdinvDqbXHgdALeqjLEYTecGa97sASVzAs+YoNinuDmuxxIPSG82qPA6EXHFdKhyWu4bRSOhT3gknJHgfFvUFKyjsIvcFJPj4QesFbJqXDEtdwTu1xIPSC5mmPA6E3FE8vP7DEFdiI0qG4N8jIHgdCbzih9jgQesEBtXTAEtdwPikdjmfBiGSPg+LeoCF7HAi94WxSOkio4L2S0uG1suFk2uNAQQVd0x4H57Khairv0DQL/EPpoJ+GN0pKB/s0nEl7HMin4Ei6PuFENpxI9yd0zILZyB4H4mkQjz0OhN5wGikdtFPwJknp8CLZcBZ9xQbSKWiX9jg4iQ3lUnmHbllgHEoH4TS8Q1I6+KbhFNrjQDcFvdJlCmew4Qx6PYJWWTAU2eNANQ2qsceB0BvOnz0ORFNw/CgdXh0bTh+lw+ErmIjscXD2Guqk8g5Cb3CMjxsUU/DWSOlQ3BvOnT0OBFPQJF2tcOoaTp2XJeiRBdOQr9hALg1ysceB0BtOnD0O1FJw4CgdXhYbzhulw3ErGIXscVAgG7SivIPQG6ziwwepFLwnUjq8JjacNHscKKWgO9rj4Jw1VEevTtAcC3xC6aCTBp3Y40DoDWfMHgcyKThidhI4YQ0njNLhgBXMQPY4KO4NIrHHgdAbThelg0YK3gwpHV4MG86WPQ4kcrh2PQ4QunvX84D5x8XrgSju3gk9EUrnD6dKx7LH0YdD5fKFM+VMuX2hJRp+7HGgjjp12OPQKvThwVA6CN2TcQXDEkfp7mBC1w9dwh6Os0TobmFPRzvkDEoHZXgLpHQwhnNkjwNhFDdDVzGcIncxpcMS5zL2kEAWnpLaRehOkMdE6VRB6J6TC9nLn/PTqnR7nOOjEdrjoBASumcFQvewPCxY4jwtSocljtLdyxShC7qYXczOjXPjZqZ0TZDQXc0eGT3Qgz0OhO7M2ONADo4MpcMSR+nuZ1jiXNAenApIDJ6cKkbovODReXS0QOieHaV70XNW7HEeFylof65pOClOihcvmHNc1B4gCMETVMkI3SnxCN3VdOCQeIYuay94zgilu60dEUOO69pjVPqoQHkHoTsfmhkIHZQOSxylu7Phh9xd2h6ms0Hobm1K1/Y4wLXtcVIABXieChoDOBf2OBCApufqhlMBSoclzuXtocIS56mqaYTuRHislO7qJ3TP1QXuZc55oHQ3uOOg4bnCPVqngdCVdxA6KB2WOFA6FHd9zT3uytftXOQucufAOXCTU7pmR+iuco/Yde+694yVNkJ3BrQ2EDooHZY47K9097lOB3scVDp40iB0j9qjds17c/OsKd2Lm2dP6W51l7w251p3rXvynrx7ndJ1OUJ3sXvgLngXvD0ODUL31HU4EDooHZY4bKl0t7sWB3sc4kqcJ668o0DoHrgmhwKhCzqlI/9Vzc1uj0OB0D3v2kue0quETum1t7wrvqa9udmrr3mPq6e4u9rtcagQ+usjH8Juj0O20KWd0hG+xAk7paOluAu7PQ4txV3YlXc0CV3Ym46Bp1Ut9H/DPoWd0pG1xL0Zds/WHodkoRO7PQ4lQif27DvfY61e4mSd0lFW3GXdHoeS4i7r9jj0CF3WAy9+Sid0Wad0dC1xsm6PU9yPUmTdHkfosu5QULrLW9SdCkr3OibrlG6P80BJgQCUd8+T1pV39zShOy4UQOmWOFqndCjuhh17nEsb7LClBjw0QtfgGzzgkVninBt7nAsbyqA9jtBF3RGhdNe1l3VnxL3sBUzUKd2u4hGKOh0o70oZVTgnyjuhi7qDQumELuqUDkucqNvjXNNwjLaUAqUTugW+wQqUbokTdV+xuaIh6vY4Qkf1WaJ0F7SoOzGejVcuUad0e5yH5rs2clDe1TCrnFOjbRG6E+XYUDqhizqlW+LgVd0e52IGfeyrCEondMeqwRH1SpdK58pXbC5lkLo9zp2M7pOlZLmSUXC0KJ3Q0XC23LseEwoOlz1O8UKD1JV3QkeD1CndZYxXkUyniNK9XunvlK5duYpJnTDcuITuiDEGpVviJJ0yuvc4xZ1N7HGKOxwye5xLGE6ZPc6TQdkxc9l6MCg4Z/Y4xR0NUrfHEToaDhqlu35RUN8p3QsVGo6ai9Yjwe9Jn/ShvHsi6rvy7sMndPWdQCjdEqe+O1n1e5zirkHqigXlndCJhUTylU7ozhuLHH5nJxw4e5wrF6RujyN0tJ84SnfhouB7Nkr3CoWGF3WfuoeAArvY49QqNCRdeSd0FBw6SnfVouGVkdLdtGhIuo/cRXvVRf0L9Z1SupQ+g/M8v/PhJ/CdtS+AwSmUbon7me1HYv3A1fcj9pJuj1Pc14n3U8L9ZubXSfx02lytZUJ/zfeVKpoL5H06bpTeIfST/b163KfzRunZL01XG/yjuDt6vmLzsT854nPJz/ueuA9qUd7DitRYNeK3pn04cz7tGKFvEPHb0r7/X1GndJfrZhH/37R7c6R0r0sPZXz7D/Qate/+OdnjWq/WEfQrk65Q+yQYSt/s8x4j8K8JnR72yTCUvk2Disz4f3s80fiKrfxaDc/4BWYfzp7yvvatWhLyswe6vc8fpUdfqmUZP7fFD6eP0hcUemvIzwv71gfQV2yRH3R5yE/K+s5Jt8fFVSchP22eG06g8r6E0IX8ZLFPR5DSb75Od/2p9b2yPp1BSr/vBUnIL8v6vh+0PW7vj3jo65dmfdtP24+8b/wJC/n1Wd/2I/cj73sKXV+/KeuUbo+76iLV12/M+rbf/tjj9rpHhfzmqG/7+dvjtrlGqXyFrCvvlH7mZyvkizwbSqf0sz5aKl9I66PuarPHXfLJCvlaWd/3h7HtcesKXcrXi/q+f1hKX1PoUr6k6Hr+pJR+QdClfFWtb/wHtcetdX8K+cIPy6+gUN6fEnQpX/tx+f1xlP71D1XKl/fdzP8jUvrJQR/Ctv7LetfyaI97+mdK5ltEfffL2B53a02S8l0u6N0flB95v+/ylPJ9oj7C7zFKP+0jlfKNHl3AimKPu+Ej5fLNop7/aqK8P/0jlfLdnl7ItyKUfqXSxXy7qI/YG4zSz0q6lG+XiaCb2Vds1ySdzHfarsZ3oh6ZPe6Kz9SPv0F5D/xx0SHmoPSGX0ExdHZQesGvoPj2b3VP/7YK7HHZv4ICUN47lA4o75QOUHro7wAAKF15B06F0gFKp3TMt/HhULo9budgv/7I92MW+PGfHYJvj1Ped4j3w9H+MPYir7wr76sF/Cn5/nPkBV55p/TbI35SwOWd0im9KeK/5d0nT+n2uMuK+q0XNbvb4yg9OuPkrrxTekvGuZ3S7XFnvY8v3M+ondKV9+yQ//tAqd0eR+nZIRd2Sqf0kpALO6Xb4z6T8mNfvLPb45T3VJUb6JR35b1E5cSuvFN6V8qJndIp/Y8hj0s5sVO6PS5c5bJuj6P0rpTLuvLu4ZfEXNa7lX5I+VGFrNvjpFzWYY+TclmHPU7MN8u6mFK6lNM67HEmFFmHPY7MVXjlndI1LVqndJe6Z+IEULo9TmendS3Rha6zu+4VxdpnTOa0TiLpe5zOLuo8El/exVy7s8fFP14xd+sr7/EP1wKnwSvv8UoXc1F31uL3OJ3d1e+4xZd3MRd1e1y80sXc7e/MxT9UMXcqKD2+qZngRN3Biy/vYi7qmmS80sVc1J2+eKX7KThRp/T8pynmDoc9Lr68i7moK+/xj1LMnQ/nMF7pNjgHxEmM3+NscKJO6fnlTMxvOCKinrDH6Urwqk7pPlaIuq/Y6Nyruj1OeadzUVfe1TI6t8op75RO55zgaBY9PjrX3yk9/+nRuf5OQ/FK96NwTovynq90tV3UKT1/j6NzZqD0+Duazh0Ye1y+0ulc1Ck9/7HJuf5O6fFPTW33VZs9Lr+807kiqLznPzM5d2yU93ilq+2iTun5D4zOrXKUnv+85NwqZ4+LV7raLurKe77S5dyrOqXn73Fqu6hTev6jknNRt8fFK11tF3VKz39Oci7qlJ6/x6ntom6Pyy/vci7qynv8M1LbRV15z1e6nIs6pec/IDkXdUrP3+O8nos6pec/HTkXdcN7vNL9Aw3pUe/66y5bPRs3IES9oJ8OOcfeu4+gL/Vc5NzLuqDnPxWv56Iu6PlKl3Mv64Kef/vKuZd1Qc8f3uVcgxf0+MdhhtPgBT1f6XJO635gJv9RyLmoZ2p9w5Pt0wCtFyxPQ85B6+nN/USlyzlStT48Al+rIV/rez4BOYesFxzu6aOArOe/lA45h9f1gvFJzkHrBSPzlHPIev6XSUPOIesFXxrLOe7J+mZh3/1XnE45B7Gnx/yp3V3OEZn1jN9XLudQ4tNT/sTuLueIE3vSvz0y5RzC/qeQZ53pIecQ9mCVPzPoco6Yd/bUfytQzrFg2O9Je1pff+5LupzjJLVfmPaZ/q/+TjlHd5GfySJ/2ku6nGNft3dk/BlBl3NsGfeiiD8j6H4PJK6O+5hfCfz8lvBGPQ05x56B/4vIv8Z7VPdPOUdC6N/E5/PVoMs5kB90OQfygy7nQH7QM3P+68VuvvLWsjN/rjveAZEd9JEV7vml72ysuggN+ojI9wk/cFX7PS0Sgz62DvgVf1lC3rF/0IeA+0lLxAd9iLi/54z4oM+NIj7X+U1k0o6tgj73iPiav1lU2nFTIuJyvpTGhR2bBl3GhR35QR8y7veNIj7oY9GQv+zJFHZcw9w75xuKnNixetDHaiF/ycAbO85m08E9J+TEjsWCPoVc1pG/xQm5rCM/6EPIZR3xW9zNx68j5LKOm1/Rx60hb0q5qOO+5j5vTPlLJ7KOy4M+hVzWkf+KLuV3Ieq47hX98tM2pJzWcXVzv/ikCbms44bmPqVc1BHf3KeUyzrym7uUizryhT6kXNYRL/Qh5aKO+CluSrnv1hHf3KeU0zryhT6knNYRL/Qh5Str3RnGU4Q+pVyDR7zQp5SLOvKFfk7MhdPLOi5j3HKAyNzLOhYT+pRyDR7xQp+X/3+EBo/LlzgyF3XkF/ch5V7WobiLuZd1bF/cp5SLOhR3+5uXdexf3J9xUMhc1BH/gk7moo7Fc/7lb9bI3ASP5Ye4r7pAzO1yiB/ipFzUsUPOv1L4yFzUsUfOvyB0A5xdDvE5J3NRxzY5/2Rx19lFHRvl/HPfrOnsoo6tcj5O+u+FL9ZxCeOcf5ZFZxd1rJTzh86BmIs68nM+zvgvhS/WsVTOp5iLOsJnuL8s7jq7qGPPnD/+7L2aizr2rO1/UdzF3Bfr2DbnL2Iu6kiv7Y8+cwucqGNjnT9W3MVc1LF1zl/EXNSRXtsfedZiLurYXOcfF3cLXPq3bQJTkPMXMYeop9f2j5qbmIs6AnT+/gMW86aoe1nP1fm7QhdzUUeEzt97QxdzUUdMzl/EHKK+W8w/EU8xx1/Ns9hQ538Ouh+PEXVE6fxPz1TMIephOv/96zUxh6jnxfz/HqiYQ9Rzvjt/43mKOd6te9hW5//5RkXMIerBMQc+1gDEHKKOJb9SA0S9ZYMDTPBiDoi6l3OIOsQcoS/roifmsMtBzCHqEHN4WYeYQ9TFHLDLiTngZd2PxwCiLuaAl/VrOruYw8u6mAMavAUOEHWv5oCXdZ0doHUxB0RdZ4cGDzIHrdvZAVEnc2DhrMsymYPWyRwwzJnZAVonc4DWpRygdSkHTsq6lAO0LuaArEs5YJmTcoDW7wm5lEPWqRxoyLqUA7Qu5YCsrxpyKQeys07lwPtZH0IOELuv0QBZF3Jgq6zvFHYhB8Lf2M3rQHbYiRzIDvsgciA67TIOnBz2m9OuqwPJaR80DtwV9yHigLx/OeASDiyX92ckfgg4sEXkXzP/cOp//KelG9g6998Z/+Hn/6032f8AT6wHr3xuNZwAAAAASUVORK5CYII=;" vertex="1" parent="1">
          <mxGeometry x="1364.74" y="523.3" width="60.52" height="58.7" as="geometry" />
        </mxCell>
        <mxCell id="xLPijeGfnM_CjZ15K6nw-2142" style="edgeStyle=orthogonalEdgeStyle;rounded=0;orthogonalLoop=1;jettySize=auto;html=1;entryX=0.5;entryY=1;entryDx=0;entryDy=0;shape=flexArrow;dashed=1;" edge="1" parent="1" source="xLPijeGfnM_CjZ15K6nw-2136" target="xLPijeGfnM_CjZ15K6nw-2138">
          <mxGeometry relative="1" as="geometry" />
        </mxCell>
        <mxCell id="xLPijeGfnM_CjZ15K6nw-2143" style="edgeStyle=orthogonalEdgeStyle;rounded=0;orthogonalLoop=1;jettySize=auto;html=1;shape=flexArrow;dashed=1;" edge="1" parent="1" source="xLPijeGfnM_CjZ15K6nw-2136" target="xLPijeGfnM_CjZ15K6nw-2140">
          <mxGeometry relative="1" as="geometry">
            <Array as="points">
              <mxPoint x="1480" y="446" />
            </Array>
          </mxGeometry>
        </mxCell>
        <mxCell id="xLPijeGfnM_CjZ15K6nw-2136" value="&lt;span style=&quot;background-color: rgb(255, 255, 255);&quot;&gt;mutate_integrate_ml.py&lt;/span&gt;" style="outlineConnect=0;dashed=0;verticalLabelPosition=bottom;verticalAlign=top;align=right;html=1;shape=mxgraph.aws3.android;fillColor=#FFD44F;gradientColor=none;labelPosition=left;" vertex="1" parent="1">
          <mxGeometry x="1367.5" y="419" width="55" height="54" as="geometry" />
        </mxCell>
        <mxCell id="xLPijeGfnM_CjZ15K6nw-2138" value="data/model/stock_market&#xa;stock_market.pkl" style="shape=image;verticalLabelPosition=top;labelBackgroundColor=default;verticalAlign=bottom;aspect=fixed;imageAspect=0;image=data:image/png,iVBORw0KGgoAAAANSUhEUgAAAIAAAACACAMAAAD04JH5AAAAkFBMVEUAAADi5efi5efi5efi5efAxsvi5efi5efi5efi5edXbX5XbX5XbX5XbX7////////i5eewt721u8G/xcrJztLb3+Gyub/N0dW+xMnW29/K0dhXbX5leYiIl6PU2dxid4dvgZCgq7Vrfo7L0tjM09rS2N7M09ng4+X////q7O7V2t6Wo65sf46BkZ7AyM6rtr4YJSNKAAAAEHRSTlMAJH6z58EAbvW1Gqfn6wAApKU7ZgAAAuxJREFUeJzt22tbmzAUB/DeZqtuz9i8TdFNp06gAb7/t1u4lCQk4cSGc9IX+b+oEnk4P9Ik9UGz+D6R5Wq9SY7Ml4Vj7OXPtrtjq/P8cBXY6597lOcAV4EVsPWqzwGOAuv779P/HcBNYAOs/Oq3ACeBDbCeA+AisAGOnn8KwEFgA3jWPwBgATYAFKADIAE+ABAQAKYFFIBJAQlgSkADmBAQAewCKoBVQAawCegAFgEhwCygBBgFpACTgBZgEGABfroKsABXFoAmwAJc2wBjARbg5tZRgAVI7qwAVYAGSH65CfAAyZ3Tu4AISG6ur+DZiAlocv9gDhnAJqADWASEALOAEmAUkAJMAlqAQUAM0AXUAE1ADhgL6AEjQQCAKggBUARBALIgDEASBAIIQSjAIAgGOAjCAXpBQEAnCAloBUEBjSAsgAsCA5L70IAkAk4QcHH5NUXK49NvGHDxDat8kz+aQANcYtZP0ycQgNb/XR5BAG79NI2ACIiACIgAd0DWJi/27HDY/6Cs8qa9LuXWkrfV8lnDFTKl7dOAxlAqgGpol1r7+jiALJPvtRhapYJlfzg3gL+yPb+3Sly6uf+qbNoLNrQO9TVAquWzgPbqorMZ/7KXLte2ivoogP6b7rXuukM5aS+h0Hug6AaEfFItd8rsAMZqZQzwAzYCZLIJaRaI4Ta+KTEfEAHyOpDpPdDMy0o6nhkwWglzfQw0A3MQoMwC+bAyzIJ2GlREgDJTu6BrFQJ0QLsS12y0EoqlAB/AxMiSP3zqbPjEEANPOZgLkLJ8mB3ySbxnckYC4P1dGH4fYN16NScAKREQAREQARFw+gDkB5XPIAD5Ue0LCMB9WP33FQRgPq5/fnl9gAGjaP/24pe30ID3wIB/H0EBb+9a/VP8o1UEREAEnBrAd8MjkA0I8N3yCWQNAnw3vQJZgQDfbb/T2S1BgO/G5+lsFzDAc+v3ZM7PHACem98nsttK9ScAftv/bdmsV0up/OI/pXqVQvzyBjAAAAAASUVORK5CYII=;labelPosition=center;align=center;" vertex="1" parent="1">
          <mxGeometry x="1280" y="306.59999999999997" width="58" height="58" as="geometry" />
        </mxCell>
        <mxCell id="xLPijeGfnM_CjZ15K6nw-2140" value="&lt;span style=&quot;background-color: rgb(255, 255, 255);&quot;&gt;data/model/stock_market&lt;br style=&quot;border-color: var(--border-color); padding: 0px; margin: 0px;&quot;&gt;log_stock_market.json&lt;/span&gt;" style="dashed=0;outlineConnect=0;html=1;align=center;labelPosition=center;verticalLabelPosition=top;verticalAlign=bottom;shape=mxgraph.weblogos.json" vertex="1" parent="1">
          <mxGeometry x="1440" y="302.7" width="60" height="65.8" as="geometry" />
        </mxCell>
        <mxCell id="xLPijeGfnM_CjZ15K6nw-2144" value="Pipeline Orchestration" style="rounded=1;whiteSpace=wrap;html=1;fillColor=#cdeb8b;strokeColor=#36393d;verticalAlign=bottom;fontSize=16;fontStyle=1" vertex="1" parent="1">
          <mxGeometry x="100" y="670" width="1440" height="170" as="geometry" />
        </mxCell>
        <mxCell id="xLPijeGfnM_CjZ15K6nw-2148" style="edgeStyle=orthogonalEdgeStyle;rounded=0;orthogonalLoop=1;jettySize=auto;html=1;shape=flexArrow;dashed=1;" edge="1" parent="1" source="xLPijeGfnM_CjZ15K6nw-2145" target="xLPijeGfnM_CjZ15K6nw-2146">
          <mxGeometry relative="1" as="geometry" />
        </mxCell>
        <mxCell id="xLPijeGfnM_CjZ15K6nw-2145" value="Apache Airflow" style="shape=image;verticalLabelPosition=top;labelBackgroundColor=default;verticalAlign=bottom;aspect=fixed;imageAspect=0;image=data:image/png,iVBORw0KGgoAAAANSUhEUgAAArwAAAK8CAYAAAANumxDAAAACXBIWXMAACxLAAAsSwGlPZapAAAAAXNSR0IArs4c6QAAAARnQU1BAACxjwv8YQUAAGDvSURBVHgB7d17fF1neej5591bN1u+SLETQxLibUMbAnZsBUhsKIltwClMB+wEQg/9TGJn5vQz53Noc5lpy61jOZTQnk7BaZmh7R9Yzuk0DE1i0zkktDSxwpmh5nJipSeHO3g71+Yq+SJZ0t57vbPeJW1HliXt27q8612/LwjL9s6FxLZ+evys9xUBAAAAAAAAAAAAAAAAAAAAAAAAACAkqpEXP/OOwkbJy0bzvhYpLvTatgW+//VHikUBAAAAYlBX8D63ee1tnuh+/90eidBcEa2UjPjfMXLOt4n/daXO+TbP847P/HpeybCn5cR8f25VkZF8furPO94lI2sGiyMCAAAAe2i/4Iae6JGx9h1+7RWCb1PqmKjSY7K5r1jvn6Zm8D77zrV7tA5iNzNmxrE69/2zoR3EtPZGZr7G8+NcTcf5zKBmog0AANCgIz/z/2f8NvGk3++v2UNXP9fUXtn81r31/KkWDN4sxm7ERrTIOZFcjejZAT0znqvrIYQzAADIhB/8REmp/BW/a3fVeOVR2bzuqhqvmT94j20p9LRNqKP+CwoCq+jXYnnqS6WK1WCurnKcfY0/aS51S5GVDQAAkAr1x+4UT++Vd63vX+gl8wbvU5sLO3KiDgpcEkyY5wrlmVNlM1FmrxkAAMTu6DGRybF+P2L3NPBHDUtXaa309c3bLW3zfYcfPhsbO8MBKdCjph48LJivaK2n/hWrqX/RueB9kYr/RfuEyDOb1wTT5HMC2fOOz5wiM0EGAAChaC52jR4Zze/wvxyY7wVtAixgeqXFvE0Fsh/H3vR3BJnctnAcm68TxgAAYEHNx66h/PAoLPSChSa8I0x40Yi54nj62+cMY/PAnifqeF68Y2WR49V1Ch7OAwAgQ1qL3brMG7ylRTLgB8oXBQhZNYx18L72J8bqnHWK86JY6yfMGkVFyxNmUnzp94tDAgAA0i+G2DUWnOE+vbmwz58R3yaAfcxqxBBBDABASoUZuzVOalhwh7fcKf3tk3Kd6KnrhAGLmIfvtgRTYqV2eDL97F3b1ITY/1RuyNzQp0U9UV2ZyJWlSAwDAGCBmCa7VTW3dM15vO2T6jDRC1dU1yWqMcxkGACAGIUfu1oq3q3ya1cOzPeCuh5LI3qRGf5kWGkpmofptHiD5kG6cpcMcboEAAAhiGayG07wGkQvMi7YGZ45FSaEAQBoQHRrDOEFb9VTmwoDOaVuEQDG2RCuToTfcKQ4KAAA4DVPPikyKrvEk/0SvvCD1yB6gRqqqxFaP+F/bZBpMAAgs6KNXSOa4DWIXqBh50yDOTUCAOC86GPXiC54DaIXaBkRDABwUzyxa0QbvAbRC4RuKoK1fkwrGap0yiDrEACAVIkvdg1/bqR2yqa3fn2+F7QcvMbTmwr9SqlYDg4GssicHZwLbpbTg+aECB6MAwBYy8TuiVKf5Nofl3hoKett8u71g/O9IJTgNYheIHaD1VUIpsAAACtUY1e1PepPXXskHvEFr0H0AgkyJ0OIGsopb1Aq8tjrjxSLAgBAXJKJXSPe4DWIXsAO1TWIXE4fqkzKEzwMBwCITHKxa8QfvAbRC9gnCGClBpkAAwBClWzsGskEr0H0AnarBnBFe19nBxgA0BTtfzQ5MrRGdNvjCcVu8HeRWPAaRC+QIsochaYeE+0d4hQIAEBN1diV9kf9rxUkOVrycpVcvW7e1b1Ig9cgeoFUGvF/cRg0+7+sPwAAzmNP7AZ/NyKltbK5rzjfCyIPXoPoBVKO6S8AoMqu2DXsCF6D6AWcMeL/XD5kHn4bb5evs/sLABliX+wa9gSv8czmwu3+X/KLAsAlg/mcHmD1AQAcZ2fsGnYFr/HUpsKunFJx3KsMIG5KhnJaDygtXyd+AcAh9sauYV/wGkQvkAHELwC4we7YNbRsXpdb6AWJBK9B9AIZQvwCQDrZH7uGvcFrEL1ABvnxm1d6Hzu/AGC5dMSuYXfwGs+8o7BR2tRh/92kbucAkJzggTdOewAAy5jYHXqiV8bbHhe7Y9ewP3gNoheAUmrA87wDnPMLAAkLYnfIj91gsrtR7JeO4DWIXgCG/8tsMafUYM7z9rLyAAAxS1/sGsN+8F6w0AusCV6D6AUwS7Dy8Pr/r3hAAADRSmfs+vQx2bx+7UKvsCp4DaIXwGxMfQEgYqmNXSOFwWs8v6lQKCt1WNm/JA0gfkx9ASBsj/9YyUTZPKCWstg1Uhq8BtELYCFMfQEgJD/4iZJS+Sv+r6y7JJVqB++CT7QlyXwAa9N6q/mgJgAwi/lkWGu9q6LUsWffuXb/05sKWwQA0JjUx66hirVeYW3wGkQvgHqY8FX+7wg9vXnNseffVbhFAAC1ORG79bF2pWEm1hsANMJ8ktyW0/3c5gYA83Ardg/L5nXbFnqB1RPeKia9ABphPjmueGrAfKJs1h3MJ80CAJjynSeVlEtfyMJktyoVwWsQvQAaNXvPl/AFkHlHj4nk1R7/t8JulwxJTfAaRC+AZhG+ADLPxO7kWL94eo+4pVjrBakKXoPoBdAKwhdAJrkbu3VJXfAaRC+AVhG+ADIj47FrpDJ4jWr0ipIhAYAmEb4AnJaF2NVyotZLUhu8honeUgfRC6B1hC8A52Rlsqu128FrrBksjhC9AMIyI3z3EL4AUos1hnOkPngNohdA2Pzw7Tfn+HJzG4DUyVbs6um3BTkRvAbRCyBs1QssuLIYQGpkcbKr1EitlzgTvIaJ3ku/c6zP0/qAAEBIquHLfi8Aq2V1jcHz3N/hnctlR4q7iF4AYZu533tsS6FHAMAWTz7px+7oLnZ25+Zk8BpEL4ComP3etgl1lDUHAFYwsTsqfuzKfsmm7OzwzoXoBRAV1hwAWIHY9XNXHa/1EqeD1yB6AURpes3hqFlzEACIE7FbN+eD1zDR639Q2isAEI0es+YQnObAtBdAHIjdhmQieI03HCn2E70AohSsOUw/1CYAEBUTuydKfcRu/ZRkzNObCv1KKT4YAYiUFim2ab3VXIEuABCWauyqtkdFKU6LCX65La2VzX3FhV6UmQlvFZNeAHFg2gsgdMRu0zI34a1i0gsgLkx7AbSM2J0PE96FMOkFEJfpaS/n9gJoDrG7sBqxa2Q2eA2iF0CMeqrn9nJLG4C6aX+Aeaq0RnLtDxK7zct08BpEL4A4mXN7g1vaOL4MQC0mdo8MrRFpf9T/WkHQtMwHr0H0AohT9YG2ZzYXbhcAmAuxW6+Rel5E8E4jegHET33xmc1rvygAMBOx2wBdV/Bm9pSG+Ty1qbArpxQHOQOIDac4ADiL2G2QPiab16+t9SomvLNcdqQ44Gm9WwAgJmbFoazU4WfeUdgoALKL2G2CKtbzKoJ3DkQvgLiZ6JU2dZSLKoCMInYjRfDOg+gFkAStdT/RC2QMsRs5gncBRC+AJATRu3nNQc7rBTKA2G2N1ifqeRnBW4OJXinrPqnz2AsACIP/IXAH5/UCjiN2W6fUcD0vI3jrcOn3i0N+9G4VohdAjKoPsxG9gINM7A490UvsxoPgrRPRCyAJnOAAOCiI3aFeGW8jdlvl6afqeRnB2wCiF0ASpk9wIHoBF5yN3WCyy8/pmBC8DSJ6ASSkxxxb9vy73niLAEgnYjdsevqtJoK3CSZ681r3mduRBABiVPG8AaIXSCFiNxpaH6/nZQRvk8wVoOYqUKIXQNyIXiCFjv5EEbuRYMIbNaIXQFKIXiBFfuDH7kTlK0Lshk8rJrxxIHoBJMVE7ysfuJJb2QCbmdgtlf3Y1bsEiSF4Q0D0AkjKxKmx/tFd24hewEbErjUI3pAQvQCS4JUrcuIXT/VP/PYHiF7AJsRuPNrKxXpeRvCGiOgFkAQTva/+9JdEL2CL7zyppFz6ArFrD4I3ZEQvgCRUJiaC6C397g6iF0jS0WMiebVHtNwuiF5XffciELwRIHoBJMFE78lfPtWvf/8mohdIgondybF+8TQ/B+PS10fwJonoBZCEM68My6njzxG9QNyIXasRvBEy0Vvu1H2iZEgAICYnn3pWxl54megF4kLsJkQX630lwRuxNYPFkVKH3kr0AojTiV8+JZUzk0QvEDViNxUI3hgQvQDiZk5ueOm//lh0qUL0AlEhdhOmivW+kuCNCdELIG7BQ2xPPWeu3vSj96NfFADhIXZTheCNEdELIG6nn/tXGXvxJTFHJOnf++h+AdA6YtcOWp+o96UEb8xM9F76nWN9ntYHBABiEOzzjk+Yd3cRvUCLiF17KDVc70sJ3oRcdqS4i+gFEAezzzv8s2PVrxK9QLOIXbtoYcKbBkQvgLhMnDgpo8/9a/WrRC/QqCef9GN3dBexaw0tWtd16YRB8CaM6AUQF3M+7/Rqg+FH701H9e07egTAwkzsjoofu8InijZRiuBNExO9/qcp9wgARGjWaoNPbZT2jkeJXmABxK69tMdKQ9q84Z+Lt2ut9woARMisNkycODXjW1Qf0QvMg9i1Wz7PQ2tp9IYjxX6iF0DUhn/6S9Hl8oxvIXqB8xC79isx4U0tohdA1MyFFKeee2HWtxK9wFkmdk+U+qSiubDFEQSvhYheAFEzJzbMeIBtmonezsf1J36zIEBWVWNXtT0qSvEJoM3aysV6X0rwWoroBRAl8wDbyaefneu71vhTrUeJXmQSsZsuXcIpDS4gegFEaeyFl2c9wHYW0YvsIXbTp6+P4HUF0QsgSqeeena+7yJ6kR3EbhrVHbsGwZsCRC+AqJx/TNk5iF64T2v/M7/SGsm1P0jspgrB6yKiF0BUFpjyGkQv3GVi98jQGpH2R/2vFQTpoQleZxG9AKJQY8prEL1wD7GbborgdZqJXk/r3QIAIaox5TWIXriD2E0/reu+dMIgeFPosiPFAaIXQJjqmPIaRC/Sj9h1g1J1XytsELwpRfQCCNvYiy/V8zKiF+lF7LrD00818nKCN8WIXgBhMufy6nK5npea6H1c/95HNgqQFsSuS/T0W90I3pQjegGE6dRzL9T70l7/Q8ijRC9Sgdh1kD7eyKsJXgeY6JWy7pMGz6QDgNlGn/vXRl5O9MJ+xK6b8nl2eLPo0u8Xh/zo3SpEL4AWeOVKPQ+vzUT0wl7ErrtKHqc0ZBXRCyAMdRxRNhvRC/uY2B16opfYdVRnjnN4s4zoBdAqc0RZnQ+vzWSi93H9+zfdIkDSgtgd6pXxNmLXVZVJgjfrqtHr/3QvCgA0oYGH12ZSotV+oheJOhu7wWSX33Vw1ea+YiMvJ3gdZaK3TRO9AJpjjihrEtGL5BC7mAfB67DXHykWiV4AzahMTDT68NpMRC/iR+xmiC5KgwhexxG9AJpldnlbQPQiXt//b8qP3QeF2M0AVZQGEbwZQPQCaEYLaw1V1ejdI0CUfvATJRX1Ff+9LQLMgeDNCKIXQKNaXGuoMtG7h+hFZEzslsp+7OpdgqwoSoMI3gwhegE0qsW1hiqiF9EgdrNJS0OXThgEb8YQvQAaMdn6hLeK6EW4iN2s0qJ1w3cNELwZRPQCqFeTl1DMh+hFOL7zpJJy6QvEblbp49IggjejiF4A9Rp9seWH12YietGao8dE8mqPP+e7XZBN+fywNIjgzTCiF0A9SqNjEjKiF80xsTs51i+e5sdOlpU8dnjRGBO95U7d53/4GRIAmMP4Kw0PU+pB9KIxxC6q2spFaRDBC1kzWBwpdeitRC+AuXjlij/lHZUIEL2oD7GLmbqEh9bQHKIXwEImwjutYTaiFwsjdjFbXx/Bi+YRvQDmMxld8Bomevv17330KwLMROziPLooTSB4cQ6iF8BcQrqAopbdRC/OInYxJ1WUJhC8OI+J3ku/c6zP0/qAAIBM7fGWxyckBkQviF2EjuDFvC47UtxF9AKomoh2rWEmojfLiF0srChNIHixIKIXQFU5mpMa5kP0ZhGxi4Vp/8dGw7esGQQvaiJ6ARil0TMSMz96b3pc376jR+C+J5/0Y3d0F7GLBSnV8AkNBsGLupjo1aLvEQCZVYp3wjtN9Ul7x6NEr+NM7I6KH7uyX4CF5HhoDRF7wz8Xb9da7xUAmRTjg2uzEL1OI3bRiCauFTYIXjTkDUeK/UQvkF3l0TFJBtHrJGIXjerMsdKAeBC9QHZNJha8xnT0fuI3C4L0+8GzIie9ncQuGtI+WZQmELxoCtELZFNlIomVhpn86K1oojftzGR34sU+/98nJ3GgMU1cK2wQvGga0QtkT+l07Cc1zGUN0ZtiJnZPlPpEtT0qSrGiggY0d62wQfCiJUQvkC2ViXGxBNGbRsQuWtLcCQ0GwYuWEb1AdiR3UsOciN40IXbRKi1NndBgELwIBdELZIeulMUiRG8aELsIR1GaRPAiNEQvkA2TduzxzkT02kxrkVOlNZJrf5DYRQu0/2OpqQfWDIIXoSJ6Afclf1LDnIheG5nYPTK0RqT9Uf9rBQFaoXloDRYx0etpvVsAOMnS4DWIXpsQuwibVselSQQvInHZkeIA0Qu4SZcrYjGi1wbELqLQ5C1rBsGLyBC9gJvK45NiOaI3ScQuotLkLWsGwYtIEb2Ae7yyVac0zMdE7+P69z6yURAfYhfRGWn2ljWD4EXkZkRv0z9QAdjD4h3e2Xr9D3OPEr0xIXYRJd38kWQGwYtYmOiVst4qRC/gBJ2OKa9B9MaB2EXUVGv9QPAiNpd+vzhE9AJuqNj94NpsRG+UiF3EoygtIHgRK6IXcENlwvoH12YjeqNA7CIunn5KWkDwInZEL4CEmOh9XP/+TbcIWmdid+iJXmIXMdCtXDphELxIRDV6dYu/RQEgGeXx1Dy4NpsSrfYTvS0KYneoV8bbiF3EQ6uitIDgRWJM9LZpohdA7IjeVpyN3WCyy4oI4tGpeGgN6fX6I8Ui0Qukj66k5pSG+RC9zSB2kZT2UlFaQPAicUQvkD5euk5pmM909H70dkFtxC6S09KlEwbBCysQvQAS4kevfMGf9O4RLOw7v1Bypu0rQuwibrr1NiB4YQ2iF0BCzKR3D9G7gB/8RElu4iui1A4B4ndcWkTwwipEL5AOKbpeuF5E73xM7JbK/mRX7xIgGUVpEcEL6xC9ABJC9M5G7CJ5fg4w4YWjiF4ACSF6q4hd2CKnjkmLCF5Yi+gFkBCi9ztPKimXvkDswgol74S0iOCF1YheAAnJbvQe9YdpebXH/41kjmuDHZaUh6RFBC+sZ6K33Kn7/A8/Lf+AB4AGZC96TexOjvWLp1npgC1aPoPXIHiRCmsGiyOlDr2V6AUQs+xEL7ELG+lwfoeX4EVqEL0AEuJ+9BK7sJWSlqe7BsGLVCF6ASTERG+//r2PfkVcQ+zCZlqekBAQvEidavQqkUMCIBH5zk7JqN1ORS+xC7uFcgavQfAilUz0XvLPx3Z6Wh8QAIiXG9FL7CINKjqU39EleJFqlx0p7iJ6ASQg/dFL7CINOlUoO7xKAAc8takwkFPqFgEQi6WXXSLL/DfIfilN3Kn2HQrlg3Ispia7e/zY7RfAblo2rwtlOMuEF05g0gvEK8M7vLPtlvaOR/XtO3okDY78TGTi9O3ELlIitE8kCV44w0SvFn2PAECsVF8qovfJJ/2/1YldotUXBUiH0E5kInjhlDf8c/F2rfVeARCpti4mvOeyPHpN7I7KLvFkvwDpUZSQELxwzhuOFPuJXgDxszR6iV2klaefkpAQvHAS0QtEK9fGh4+5TUfvJ36zIDYgdpFeWvK5oxISfsWCs4heIDoq3yaYjx+9FZ189P7gWZGT3k5iF6lV8k5ISAheOI3oBaKRb8sLFrQm0eg1k92JF/v8+HbvKmRkx5IyD60B9SJ6gfCpNia8dUgmek3snij1+f+SHhWl0nFcGnC+Eenr41gyoBFELxAezuBtSLzRS+zCHaFNdw2CF5lB9ALhyDHdbVQ80Uvswi1FCRHBi0wheoHWKfZ3mxFt9BK7cE2IR5IZBC8yh+gFWtPW1SFoSjTRq7XIqdIaybU/SOzCEaEeSWYQvMgkE72e1rsFQMPY4W1JuNFrYvfI0BqR9kf9rxUEcEVOH5cQEbzIrMuOFAeIXqBxOVYaWhVO9BK7cNnV63hoDQgL0Qs0ro0Jbxhai15iFy7T4Z7QYBC8yDyiF2gMZ/CGxkTv4/r3PrKxoT+K2IXrlIR2/m4VwQvIdPSK3ikS/k8ywDX5Th5aC1Gv/6H40bqjl9hFFmh5QkJG8ALTLvvn4iEp661C9AILautipSFk9UUvsYts8H+gS6gPrBkELzDDpd8vDhG9wPw4oSEyC0cvsYssqWh2eIGoEb3A/PJMd6M0Fb3/629uOedbiV1kzZJy6MGrBMCcnnlHYaO0qcP+u00d5P5sz6Xy7PJL/LdLz/n2S048I0vHT8olI8/KsomTAqTJ4lUrpfdX1goipUXp3eo/fO0AsYsMGpbN6y6QkPGoLTAPM+n1o3erblMHVR0faE52LpNDG2+Uf7r8ffKjVW+RU13Lav0hQfhe8cIP5erid+Xq40fkzf/6IyIYVmOlIRZKtNqvf/8mUUNDf+/H7oNC7CI7Qp/uGkx4gRqe31QolJU6PF/0fm/1NfKl627zv9wkYTDhu/OJB/wIPuJPg58VwCYrrvgV6VrRK4ieeXLndzdcX/zSG68uCJAVWvbJO9fdISEjeIE6zBW9ZqL7pS23yb1XR3eEbzV+3/PjbzH5hRVWrr9COpcvFcTDRO8Nm26SQxdfLkAGaP8/d/rBu09CRvACdZoZvWY39+ab7wv2dOOy84n75eOP3cPUF4m6eNNVXDwRs+H2LrnqPf9WioubepwASBMtZb1N3r1+UEJG8AINMNF79JKNh//H3zpQqGdHNwpm6mvC9+rj3xUgTrm2vLx+09sE8Tu8crVsu/ZmARynpat0gfT1hX5KEsELNKD7G3qjUtL0yQ1humTkGfn4t+8JVh6AOHQsXyYXrn+zIH5mtWH32z4oB1ZvEMBhkZzQYHAOL1Cnrod1wf8U8aBYELuGWaf45Af/VN7zO9+WRy5/nwBR6+heJEiGmU7t+dG3BXBcJCc0GAQvUAcTu3kth5WFRwOZ8P33N/2V//aXwbm/QFS4dCJZhbER2fJSUQBnaXlCIkLwAjXYHLszPXL5dnnP7/5nf+r7HwhfRKK9u1uQHDPlvfl4ZD0AJE1LTg1KRAheYAFpid2ZDm74cHCCxMENNwoQplwbHzKStuP5nwrgrJw+LhHhoTVgHmmM3dnMg2333vtvOMoMLeOEBjuYh9fW/vrvcEQZXKRl87rIPqvm03VgDi7ErmH2e82ag7kJDmhFG+sM1tgw8oIAztHRPbBmELzALK7E7kxfuva24DQHdnvRLE5osMeasdCPKAVsENk6g0HwAjO4GLtVTHvRCk5osIPZQ+wpjQvgGLOt85hEiOAFprkcuzOZae/NN/8t0140hBMaAESqollpAKKWldit+t7qTcFJDv/EhRWoEysNACK1pEzwAlHqOah78pM6M7FbZVYcPn7TX7HigJrMdFe1tQkAREMXpa8v0uV0gheZZmK33OFPdttVQTLKrDjs+Lf/iRUHzKutq0NgB7PoONLeJYBbVFEiRvAis6qxK0o2Ssb9+HVvCVYcfrTqCgFm61i+VGCPY5zBC9d4+tsSMYIXmUTsns+sOOz87W+w4oDz8MCaXU60c2IGnKIlnzsqESN4kTnE7sLMisPd2z8jQBUPrNllqOd1AjhFTz4hESN4kTnlTtlP7C7s3mtuZa8XAR5Ys0tx8XJ2eOGaEdncV5SIEbzIlO6H9X7/ix2Cmqp7vURvtvHAml2eYLoL90R6HFkVwYvMMLGrtOwS1M3s9fIwW7bxwJo9gquoVq4WwCkxPLBmELzIBGK3edWH2Q5uuFGQPTywZpfBCwleOCWWB9YMghfOI3bD8ckP/iknOGRQJxNea5j93aHlrDTAMTE8sGbwJAKctuQh/UUhdkNjTnAwPv7YPQL3dSxfJrDH4MqCAG7RxTgeWDOY8MJZSx7We/wvbheEykQvk95s4Dgye5j93XtXXymAU7SKZbprELxwUhC7WvoFkTDR+8kP/geB2zqZ8FrDrDMMXlgQwCHBc5gSE4IXziF243Fww4fl39/0l3KykyhyFfu79mCdAU6q6FiOJDMIXjiF2I3XI5dvl5tv/lui10FcOGEPMwa76y3XCuCcJWWCF2gUsZuMqQsqiF7XtC9hf9cWgytXS3FxjwBO0TIkfX0jEhOCF04gdpNF9LqHdQY7mOnugdUbBHCOktimuwbBi9Qjdu1A9Lqlcxn/Hm1gHlYjeOEg7RdobA+sGQQvUo3YtQvR64Z8Z6fkuzoFyTLT3b1XXCeAk5TEdiSZQfAitYhdOxG96dfZwzqDDcx09+sXXy6Ag0bk6nWsNAC1LP56hdi1mInej3/0LwXpxP6uHe5dvUFG2rsEcFCssWsQvEid7of0Lbn2XL/Aat9bvYnLKVKK/d3kHfOnuwPs7sJN2v/P30vMCF6kioldJTIgSAVzOQXRmy7m/F32d5NV3d3lKDI4K8YLJ6ryAqQEsZtOZr1B/H9xVx//rsB+XRcsl0UregXJMbu7t779QwI4613rd0vMmPAiFYjddPvStbfJl667TWC/RRcQu0niZAZkwKAkgOCF9ZY+pHcQu+lnovfANbF/Uo8G8cBasoaWv45zd+E2He9xZFUEL6zW/Q290Z947Bc44fPb/1AObrhRYKeO5ctEtbUJkmGmuzds/ogADtOSU4OSAIIX1jKxq5Qc9t/lyQ2H3O1H749WXSGwT0f3IkFy7nnTNTyoBvd1TsZ6w1oVwQsrEbvuOtW1TD5+01/Js8svEdila8UFgmSYY8j2XnGtAE7TMiR9fSOSAIIX1iF23fdsz6Vy8833Eb0WybXl2d9NSPVBNS6ZQAYkMt01CF5YhdjNDhO9/96f9HIFsR06l/PvISkDl23gQTVkQWL7uwbBC2t0PawLouSgELuZYc7o/fz1nxEkr2sFP+2SYFYZ7noLqwzIiIT2dw0unoAVTOzmtRxWIgVBpnAxhR161qyWHCc0xMqsMtxx5fXy2IUFAZxn9nev3nCPJIQJLxJH7MKc0ctxZcnhOuFksMqAjElsumsQvEgUsYsqjitLTufyJYJ4mVWGOzdsFyAjtFT01yVBBC8SQ+xiJo4rSw7HkcXLrDJsu/ZmTmVAtiwpD0mCCF4kgtjFXDi5IX75zk6OI4vZXVdcywUTyJrBpM7frSJ4ETtiFwsxD7F96brfFcSjs4fYjdPB118u/VdcJ0CmePrbkjCCF7EidlGPe6+5VQ5cs1sQvUUX9Ariwd4uMkqL5094E0bwIjbELhrx+e1/KN9bfY0gWqwzxKO6t8sqAzJoRN69flASRvAiFsQumvHJD/4pD7FFqGP5MlGcvRs5E7t3Xnk9sYts0skeR1ZF8CJyPQd1T5snB4ldNKr6EBui0b1qhSB65iG1fW+6WoAM0pKXQ2IBgheRMrFb7pDDomSjAE0wD7HdvZ3rh6PQuYzTMKJ2dPkqHlJDtnklJrxwG7GLsJiH2LiJLVxmnYHb1aJlHlK7YfNNAmSXLsrmvqJYgOBFJIhdhM3cxMY+b3gWrWCfNErD7Z08pAaIGhRLELwIHbGLKJib2G6++T4upQgJx5FFxzykdsOmjxK7yDotZX2vWILgRejKnbKf2EUUzENsXErRuvbubtYZIlI9kWHwwtUCZJ4Fx5FVEbwIVffDer//xQ4BIsI+b+sWczpDZDiRAThrUCxC8CI0JnaVll0CRIx93tZw2UQ09vqxy4kMQED7hXlALELwIhTELuJk9nk5n7c5+c7OYKUB4RpYvYHYBWay5DiyqrwALSJ2kYSXl1woJ7uWyrt/8W1B/bpXrZSuXh6mCpM5a/cD7/qYAJimZUjeueFPxCJMeNGS7kOVLxK7SIrZ5/3e6msE9VvsBy/CY2LXHD8G4BxWTXcNghdNW/Kw3qM6crcLkKBPfvBPOaqsTqwzhKt6scRIe5cAOEtLRX9dLEPwoikmdv0f0v0CJMwcVfbxj/6loDamu+ExscvFEsBcdNGm48iqCF40jNiFbb63epMcuGa3YGHdFxG8YSB2gYXYc7vaTAQvGkLswlZfuvY2jipbAJdNhIPYBRZk1e1qMxG8qBuxC5uZo8o++aE/FcyNyyZaR+wCNY3YuM5gELyoC7GLNDCrDV+67jbB+RZd0CtoHrEL1OWQWIrgRU3ELtLErDb8aNUVgtd0LF/GOkMLiF2gLlqUsu50hiqCFwsidpFGH7/prziqbIZu1hmaRuwCdRuRTW8leJE+xC7SyhxV9qXrflcwpXMZ8d+M6qUSxC5QF2vXGQyCF3Pq/qa+jdhFmnEL25RFK3pZZ2gCsQs0xOp1BoPgxXm6H9K3KE/2CZBy3MIm0rWCYGvUwOoNQexygxpQN6vXGQyCF+cIYtf/9V4AB2R9tSHXlpfFF10oqJ+J3d1v+yCxCzTG6nUGg+DFWcQuXJTl1YauFRxF1oi9V1wbxC6Ahli/zmAQvAgQu3DZ3dv/ULKI6W79TOz2X3GdAGiY9esMBsELWfx/l3cQu3DZj1/3lsxdSJHv7JTO5UsFC9P+m5nqErtA06xfZzAI3ozr/obemFua3y+A4w5cvVueXX6JZMUiHlarabi9U67a9m+DvV0ATdFS1vdKChC8GWZiVyk57L/LR0Y471TXMvnkh/5UsmLJxa8TzM9cKHHVe35bhnr45wQ0Txfl3esHJQUI3owidpFF31u9SQ5cs1tcx1XCC+OMXSAsalBSguDNIGIXWfala29zfrWBq4TnVz1jl9gFWqYlL38uKUHwZkz7/kliF5lmVhvuvt7tUxsWXcBxZHOpHjvGGbtACLQMydXrhiQlCN4M6XpYFzpWtR8UYhcZ98jl2509m3fxqpWi2toErzEPp3ESAxAqM929R1KE4M0IE7t5LYeVSEEAOHvtMGfvnss8nLbt3TdzEgMQNq/0mKRIXuA8Yhc4n1lt6KxMyNXHvyuuMGfv9qy9TDDl8MrVcsPmm+THS1cKgBBp+bq8c8NfSYow4XUcsQvMz7UH2JZcskowZd+bruHhNCAaWnJqQFKG4HUYsQvU5tLZvDysNrWve8eV1/tv2wVAFHQxDVcJz0bwOorYBepjzub9p8vfJ2m3aEVv5s/ere7r7nvT1QIgKuk5e3cmHuV1UBpjV5d18Ba8P+FNf5v/ZUWf91pv+vuNXOccn7Pllai2qW9X5kd4fur9XBef32Fun9/+h3J18buybOKkpNXii7K9p3rw9ZfLrW/nyDEgYv4H5dJdkkIEr2Nsi90gZCcq4o17oie94EsJvs07G656RsDGQfmRrIIoVsH70jb1voln1ZkPInnqSyXIhmd7LpV7N+2Wjz+WqlN2zjIPq3WtyOY6g/mU+M4rr2eqC8RjUDb3FSWFCF6HJBm7JmS9kyXR/kTWO+0H7mglCNzq1NYmJrDr+bsKgrgjN/Vldz6YEJuvB18SxM4xD7DtHLpfLjnxrKRNZ89SySKzwnDr2z4kgxeuFgCR05KTA5JSfMR2RJyx642Wg6Ct+G/eibK1YRu1YCq8OH82hnOL24LpcK6bzyPT6urjR+Teez8mafO6t2/I3P6uOXLMrDBwCgMQF31MNq9fKynFR2YH9BzUPWVPDvqfvhQkZCZkTeCWX/WntyZwxyqZjNu5mH8OlZNlEfM2w1whnOtmIpwG5gE2cwNbms7m7Vi+LFOxywoDkJR0PqxWxUfglAtit0MO+/8mN0pIKidK4vkRV/Gnt5VZMYfmmX3hfPdUCOeXtRPBlrpk5Bk5+Ne/kZoH2Hp/dU1mbldjhQFIjHlYbW1a93cNblpLsbBiN5hUvjwppecmZPIXY1J+YTII3bgfJnOe2W8+4wWfTJRf8v95Pzsu5Rcng6/rkv/P2pveG84RwUlK0w1s5mG13l9N7e8wNsScwvCBX/sYt6YBSUjhzWqz8ZE1pVqN3SByX52cCi7WFKxi1iHM9De/fGoVgp3g+C0dPymP/Pm11k95l1z8Olnu+FXC5iKJu67YwgoDkBwtZb1N3r1+UFKMCW8KtRK7Zl1h8udjUnrqjJRfLk1NcRnkWkWXdPBJSOXVUjBtnzkFVjkJTopAtCbbOmWirUPe/Ytvi80uuPyNkmtz9xOio8tXBdcDf3PVGwVAUnRR3rX+Dkk5RkcpNKn0/pxSdcducKKCP80tPT/BJDeFzCclZfOJiR/Ahll7yC/zp7/+BDj4kglwJO695lZ570++Ze1qg+s3q+170zVcDwwkT0tO7RUHsNKQMt0P6/1Ky656XmumuaWnx3nwzHHVAM5f0M4KRMhsPqZs5forpHO5e+fv8mAaYJN0H0U2Ex8ZU6Se2DUT3PLz40xzMyT4d27WH6oTYHMaxNkAbuNK5RbYekyZeVjNxdg1U929V1zL9cCANdJ9FNlMTHhTolbsErqYz2vrD+3Bg3BojDmm7JG/uFZs4tpRZEx1ASul/iiymXhoLQUWit0gdJ8dl4mfjUplpMwDaDiP2QGuHoUWPAA3WgmOSJN8jnOA62COKVs6cVI2PjsktuhZs9qZh9U4bgyw1oBs3pDaq4Rn46Od5ZY8rPf4n2P1z/52JroIQ7D6sKKdh99qsOmYssWrVkrvr6R/pc4cN2amuocuvlwAWMep6a7BhNdic8UuE12EyUx/zY+js8efTXjBxRfs/Z7LHFNmy2UUK674ldRPd81U1xw3NtTzOgFgpUF/unuPOIQJr6Xmit3yK5MyWTzDDWiI3MwH39pWdAjsmPJ2LF8mF65/s6QVu7pAKjhx0cRsTHgtNDt2zc7lxE9Hg6t/g91LIGqV6csvXilJ+fmJ4H3DXHqR1auPbbiMYtnqi6W9u1vSyJzA8LGrb2BXF7CdliH5tfWfFMcw4bXMzNit7ulOPj0ugC3a/KlvPnjryORDb4/8+bvlkhPPStzMUWSve8cGSRumukCqaMnJbrlmnTMPq1URvBaZGbvm0oiJn4+xvgCrBfF7YUem1h6SuoyiZ+1l0n1xunZe915xnT/ZvZpzdYHUcOeiidl4LNsS1dg1U93S02eC0xcA21UvvJhsG5N8b3smdn6Tuoyi64JeSYvDK1fLnVdu56E0IF2cuUZ4Lkx4LVCNXbOrO/7j00x1kWrVB97aLup09qKLuKe8aTmKzBw1dtcVW4KpLoC0cXe6azDhTVg1ds2DQRPHxgRIO/MJW3DJhf9Wjd/2izudOuc37invsjdcIrbbf9kGuXPDdtYXgHRyerprMOFNkIldXdL9E/5Ut3KyLIDLcovzU+G7rN2Jc37jmvLafhTZ0eWr5M4rr+ehNCDV3J7uGkx4E9L9TX2bd6rSzwoDssIcbWYexDSmVh46grWHtIprytu9aoXYiPUFwBnOT3cNJrwJ6H5I31J5fmJg8ukzXAuMTDPHmpmH3dK67xv1lNfWo8hYXwBc4v5012DCGzMTu+Wnx4PYBbIuOGt6xr5vxxu6UrXyEPWU11w0YZPBlauDo8ZYXwCckYnprsFNazHqflDfMvnz0wOlFzhyDDhPRUvl1amb3fRoRcTTqXjQ7dmeS2XnEw9I2Mx0d9lll0iuLfl/BmZ94VPr3iv/ru8DUuzuEQDOGJRN6+6UDGDCG5OuvynfMv7jkwPVK1oBzO/s+b5Pj0+d8vCGRdZOfaOa8nb2LJV8V/I7zuZK4L1XXMv6AuAe7Y89MxG7Bju8McjffXKHrngHeTgNaJ7ND7pdMvKMPPIX10qYXvf2DYkGr7k84ta3f1CKi5noAo7aL5vX3SoZkf6zgSzX/sXTG/VEZT+xC7TGHN1nTnkY+y8nZOJno+KN2/Nzyqw1HNxwo4TFXDSRVOyaY8a2vvtm2XbtzcQu4C4tUrpLMoQJb5Q+NbxR5fRh/z0+agARsGnqG+aU96K+t0p7d7fEaaS9U/ZyzBiQFZma7hrs8EaF2AUiZ6a+5s2GXV8z5Q1jl9dcNBFn7JrQvedNm4LQZU8XyIRjWZvuGpzSEAViF4hXRQcXW1RPeFDtuUTCN4wTG8xRZHEF7z1vukZ2br5JvrnqjTKeZ/4BZID2/3OXvHPDNyVjWGkIW/9wQZX1USF2gUQlda7vvff+m6anvHFdNGHO093NA2lABmXjkom58NBamEzslpjsAjYwD4qah9zOPB7vQ25fuu42aVbUF02Y0DUPpG3lgTQgizJzycRc+D2ssFRjV0lBAFileptbHA+5zT6X9yf5RfJMvktezrXJmHpti2ylV5JfLY/J5ZWpWxfNdHfxRRdKFLghDYBvQK5Zd0AyiuANA7ELpMLMh9yiXHf4y03/k7zwrz+XRzov8CO39p9/8+QJ+a1V4T8wVly8XO648no5dPHlAiDTMncM2Wzs8Laqf7hnOnY3CoDUabuwI7TTHdomRuWSoUP+28Hg/Ua9t7dDPuZPn1d1tPb3YkK335/oHlgd/T4wgBTw9F551/p+yTCCt0XqM68c9P93hwBIteqxZvnlzf3GV9fJF+TKB/5Auk69IK0wsfvbr++STf70uVGcpQvgfNl9UG0mgrcFuc8M79Gi+wWAM6qnOzSy5xtW7M70sYu65LdW1ff3wFm6AOah/f9u84N3UDKO4G0SsQu4zYRv+0Udkr+wc8F1hyhit+qOSxfLe3vnn/QSugBqyNyNavMheJvxyZd3qHzuoADIhIX2fK/evyuS2DW680r+4k1LztvpJXQB1MHcqOZPd/uKAoK3YVwsAWSWCV+z6lDd81393f/Lf/sbidL67jb547VTN6+Zh9H2vema4GE0QhfAArTkZHeWjyGbjWPJGvHa8WPELpBBM8/zXbr0RHAaQ9T+62hZ/h+9RB54+zZOXQBQr0yfuTsXgrcBqux9UZQqCIBMM2f59vzsPzd19FgzPne6S75L7AKoz7Gsn7k7F64WrpN5SI3jxwBUFV54WOKyovgLaRs/IwBQg1ll2Mve7vkI3np88uUdnMgAoGrRxEuyaPIlidOlQz8QAKiBVYZ5ELy1mL3dXO6LAgDTlp05LnFb9q/PCQAsgFWGBRC8NaiSPihKCgIA05aOxR+8i068KgAwD3PBxK2sMsyP4F1AsLerZKMAwAztlTGJ2+IRghfAPDx9F7epLYzgnc+nh7ewtwvAFpNdiwQAzqePybvW9wsWRPDOxeztit4vADCHUn6xxK1M8AKYTeth/1eHbYKaCN455EqVfvZ2AcznTOeFErdSJ8EL4Bxa8uoO9nbrQ/DO9qmXd2mVu0UAYB6vLr1C4vZq4Y0CAGeZvV2OIKsbwTuTWWVQuT0CAAs403GhlGNea3jhzW8VAJh2lL3dxhC8M6iy3s8qA4B6HFv1fonLidddLGd6LhAAkKnzdm8QNITgnZb7zPBt/hdbBABq6X5Fnnr/qJQXKYnD81uvl1w+LwAyT4vnxy57uw1rEwSrDLrMEWQAavBDN7f+IVFrj0jF/+rxa7vkjf9wRqI0sWKlDG95nyz3358cG5Px06elUi4LgMzR/n/ulHf1DQkaRvDK1KkMWuV6BADmctFPp0J31c/O+ebj13bKxd+bkEXDnkTlv/0vf3j2/Y7Fi4O38sSETJw5EwQwgIwwD6m9a/0+QVPi+f04m33q5V0ql+PMXQDnmyd0Z1r0qieb/+yktJ3RErbiTf+DPP+e+XeFvUpFzpw6RfgC7jssm9dx3m4Lsh285lSGkj7Mg2oAzlFH6M609NmKvOP/PBVq9D79398oz/zGjXW91oRvyZ/4jo+OBu8DcIk+Jl3lq6Svb0TQtEwHb+7TLw9w5i6As8yO7qb/WHfozmQmvW//P061vN5QXrw4CN2FJrsLMdNeM/UlfAEnmBMZtvGQWuuyG7xmulv2P2sCgBkPo7XCRK95iO3i709KM0786hXyi13/s0ysaP0mN/Z8gZQz1wYrf7JL7IYis8GrPv3qMVYZgIxrH5Pc2x5oOXRn63puUtb+/WlZVfT/EpO1f5l95fVant1xs4xuDP9s3+qerwlgpr5Aamj/v/5kd/2gIBSZPKXBnLmrRRcEQDb5oavefFhybx4M3g/bqEzKv1znf7y6TuSC57WseE7Jslf8X3CnB7/lDpGxpSInV2h5YbX/9U7/+xZ9X5ZK+MFrzu/t7ukR7XlSGh9n3QGwn/+Lh3erbL5yUBCa7E14eVANyK6IQ9fQpYpUft7csyVLLv/fpH3pWyRqZtprHnAzAQzAMp7ey7XB4cvchHf6zN2CAMgUdbkfulc+FFnoVnkvNX8Rxfhz90u7H71Ra+vslCX+G+sOgGWI3chka8LLg2pA5qhLnwj2dM2DaVFrZbpbFdeUdzZucQMSRuxGKlMTXj92uWACyIoGz9INg3619RWBuKa8s3GLG5AgYjdy2QneT728y//fLQLAbS2cpdsq71Rzx5HNVD71Qyn5b0lMeQ2z7mDeFi1dGsQvD7kBESN2Y5GZlQaOIQMcZx5Iu/IhyV1+WJLgjUyI9/xpCUObH7tLE5jyzoepLxARYjc22ZjwmukusQs4S63/RqQnL9TDezm8v3bSU97ZmPoC4cu15fd677iiXxCLvLjOPKjmqf1+8PYIALdc9FPJv/ceUZf+i/+rWUmSYqa7+sSEhMmbfEk6V14nNlG5nOTb26VryRJp7+jwv0FJpZTcP3cgjVROSceiRXvLV/1qvyA2zk94c2W5RTPdBdyS4J7uXMKOXcO2Ke9ss6e+nPAA1GYuglm0fOnA6OWX9gti5faE15/uSkXvY7oLOMLs6b71HyV/7V+LWvKq2MAcRea9EM0qhY1T3tmqU9/O7m7p6OoyV0QFt7pprQXAa6ZvPRw4ffkluwWxc3rCyyUTgDvU2iNT5+m22/XgVCsXTdRi+5R3NhO+5hpjwzzgNuG/lSdbP7kCSDtz5F/X0iUDJ9deROwmxN1TGrhkAnBDAufp1iuMiyZqse3EhkaZh9t40A1Z1rV0qSzuXjLw6poVxG6CnJ3wTk93BUBKJXzMWD3CuGiilrRNeWczv41bvdTCPOA2PjrKVcbIhOkVBmlv7yB2LeDmhJfpLpBqtq4vzFb++bBIyZOopX3KO5eSOdfXD1/O9oWL2jo6pLu310Tv0eHVF1wlSJyTE16mu0BKWXb6wkLMUWRxxK5hprwTLz9m/QNsjWhftCh4W7xsmZTGx9n3hTMWL18ePMTpO6o9tU1gBfcmvEx3gfQx6wtvPpz45RGNiGu6W5XruFCWX/kX4rLqvi/xizQyKwxLLrggeHhTpmN3ZE1vtEv+qJtzE16mu0DKmMsjNv9NMN1NCz1WijV2DXNE2fgLD0vXqveLq2bu+xK/SBMz0TVnUptj+oTYtZJbE16mu0B6pOChtPlUnjsdyWUTtah8tz/l/fPgyywx8Wt2fk38crkFbGJ2dc0Kw/RU1yB2LeXUhJfpLpAO6tInph5KS9FUt8ocRZZE7AZ/7cpoMOVddPGHJUvM5LdzyZLgjckvbGCuB160dFl1V7fqmB+7NxC7dnJnwmumuyV9WLhGGLCXP9XNbf6bIHjTKqnpblVWp7xzIX6RhFnrC1XHpie7RYGV3JnwlrwdolRBAFhJXX5Yclc+lJqH0uYT7O8m+dfP6JR3LnPt/E6Oj/vxOyHa42pjhMusL5jQbevsnP1dxG4KOBO8StRtAsA+KTpqrJY4jyJbyIQfvJ0rrpNc54WCKTPj1wgmv2fOcMkFWrZA6BrEbkrkxQWfenmXyqldAsAqZqqb/7X9opa9IC7wnjstUrFgcqhLwakNHRe8UzC3XFubdHR1SdeSJcGXef/rWmviF3ULLo/o6ZFFy5YFP57mQOymiBMTXqVyewSAPRzY1Z3NrDLoCXtiqTTyg1RfORwn8wS9eZv50FtpcpLpL+ZUY6JbReymTPofWvvMyzuU5A4KACsEJzCYc3VTvqs7W9IPq83FxSuH41YplWbs/vLgW5bVGboGsZtCqZ/w+rHL7i5ggxSfq1tLkkeRLcRcOcyUtzUzp7/a84IADuLXj2DO/HWfOV6sY9Fi6Vy8eOZZugshdlMq3RNeLpoA7JDC29IaYR5W854/LTYyVw4ve+sfc0xZBMy6Q8Wf+k6a+PW/JIDdYaa5ZrfbPOQ463ixhRC7KZbqCS8XTQDJU2+738mp7kzey/auZ1SvHOaYsvCZkx9yixZJu/9mVAO4uv9LAKdLdZprQreOtYXZiN2US++El+kukCx/mpu/9q9Fep8Rl5mH1SrHT4rNuIwiGdUViNcCuMT5v5ZpMXKrhv3YvYrYTbf0TngnK1skx3QXSIIrl0jUIzh713LmMoozz94viy+7RRAf81vhJqKCkFq6NPg2E8DVCGYNIhlmMt9u1hVai9yqYSa7bkht8HIUGZAA82Da2x+Q3JojkgW2Pqw2l4kXH5b23nfwAFvCqg/BVS/AqE6BqxHs+QFMBIfLTHHzbe1B4JrQnefM3GZUY3dIkHrpXGngKDIgfr3PTK0wOPpg2lzM7q730hlJC44pS49gBcKEsNkLNl+yDlG3auC2m+l6R0fwCYYK/3d8iV3HpHLCq0Tx+3ZAjIIVhrfdL1mThnWGmcwxZZMj35eOnncI7HZ2FWKGmdNgQvg15pY8E7Vt5s3/Z1bn8WGtIHYdlL4JLw+rAfFx8Ma0eulTk1J55pSkDceUuceEsDkhwqxDlP0386X5ehDIDq1HmN1bE7PVL9um10NipqcfUCN2HZO6CS9HkQExyeAKw0zeqXTeusUxZe4xv12fN29+/M2VfzMDOAhjrc/5Nm2+nvAVymYNQamp/w9KqWDPNjj2zX8/iNw2K3LEj13v1pE1K4ldB6UueLXkrhMAkcrSKQxzSdPDanOZ8IO3c8V1kuu8UOC+IB7rDEYTwiaATQgblekQnh3EXh2TYxPiM3dnTcAGX/oRa7797NftiNlaqrE7IHBSulYaeFgNiJbD1wM3wuab1erFA2xA3YjdDEjVhJeH1YAIZeQiiXrYfLNavcwDbCX/jWPKgAURuxmRnmXY/uGCn7w7BED4Lvqp5D/wx8SuTN2sJiVPXDB27MvBpRQA5uTHrr6T2M2G9ASvuVkNQOjMvm7+vfdkdl93trQdRbaQ6gNsAM6nPH3XyJoV+wSZkJrg5WY1IGRmX3fzf8zk+brzSfvDanMZf+5+8SZeEgCv8WN376trVvQLMiMdwfvp4S2ipCAAwmH2df2pblauCK6XHnXzytfR4pcFwBRiN5tSEbw5qewSAOEw5+uaFQb2dc/j2nS3yjzAxmoDQOxmWSqCl7N3gXAof6IbxG5GL5NYSLDOYB5Yc5RZbeABNmQZsZtt9gfvp17exToD0Dq1/iHJbf6PPJw2D++lM+IyE7tjT90rQBYRu7A+eFVOfUgAtCR4OG39NwTzc3m6WzX5ymPB2bxAlhC7MOwOXs7eBVrjT3Nz79nHw2k1uHT2bi2czYssIXZRZXfwcvYu0DxzEsMH/ljUqp8JFubS2bu1mLN5zzzLUXRwH7GLmawOXpXLcZUw0IzpY8d4OK02F8/erWXixYdZbYDTiF3MZm/wBusMskUANMYcO2auCSZ26+Lq2bu1mNUGwEV+7A4Qu5jN3uBlnQFoWHDs2Ps/z0kMDcjadLcqWG14jtUGuGU6dncLMIu1wcs6A9AYdfnhqWPHUDfXz96txZzNWxkrCuACYhcLsTN4WWcAGhKcsfs2pnWN0qeyG7tVXDsMFxC7qMXO4GWdAahbELucsdsU71W3L5uoR2XsOKsNSDViF/WwMnhZZwDqQ+w2T0+UM3P2bi2sNiDFjr468tQdAtRgX/CyzgDUhdhtjffKuOA1p3/+Z1xIgbQ5qj21Tfr6RgSowb7gZZ0BqImrgluX5YfV5sKFFEiZIHZH1vQSu6iLdcHLOgOwsCB2uSq4JVm6SrgRXEiBlCB20TC7gpd1BmBBxG44snSVcKPGjv0lqw2wGbGLptgVvKwzAPMidsPDOsP8vMkXWW2ArY75sXsDsYtmWBW8Kqc+JADOEzygRuyGgnWG2sxqw+TI9wWwyLHpyW5RgCZYtsOrdgiAc3AaQ7hYZ6iPWW3wJl4SwALELlpmT/B+5mViF5iF2A0f6wz1MXu83MIGCxC7CIU1wZvTQvACMxC74WOdoTHlUz+U8RceFiAhxC5CY03wasldJwAC6vLDxG4EWGdo3JmnD3BUGZJA7CJUdgRv//BGUVIQAKIufUJyb+Mp+SiwztAcjipDzIhdhM6O4C15rDMARu8zktv8N4Lwsc7QPHNU2egx9nkRC2IXkbAieJVSrDMA3a9I/tq/FmkfE4SPdYbWlEZ+wD4vokbsIjLJBy+3qwFTsfvee4IvEQ3WGVo3/tz9UhkrChABYheRSj54uV0NmJrsEruRYZ0hHGaP9/TPv8A+L8I2TOwiaokHb04x3UW2KfOAWu8zguiwzhAe9nkRMmIXsUg8eDmODFkWnLV7+WFBtFhnCBf7vAhJNXaHBIhYssH76eEtHEeGrAqOH+Os3cjpiTLrDBHgfF60iNhFrBKe8HobBcii7lck97YHBNHTJycF0Rg79mXxJl4SoEHELmKXaPAqpT4kQNa0j3EiQ4z0KYI3Kt7kS3L6F38mQAO09io3ELuIW3LB2z/cIxxHhgxSVz5E7MZElyqiJyqC6JhjysaeOiBAHfzY9W4dWXPhoAAxSy54yxxHhuxRlx/mIbUY6dGyIHoTLz7MQ2yoZTp2Vw4IkIAEVxrUFgGyJNjbvV8QH32C48jiYh5i41IKzIPYReISC14lXCeMDKnu7SI+Fc1xZDE7/fM/4yE2zEbswgrJBO/UdcKc0IDMYG83fsRu/KYeYvvfuYkNVX7s6juJXdggmeAtV4hdZIZae4S93QR4nM6QiMrYcRl76l4BlKfvGlmzYp8AFkgkeHNadgiQBWZvd/1Dgvgx4U3O5CuPyZnn2FfPMj929766ZkW/AJZIJHi1ym0QIAOC2GWVIXbcrpa8cT94J19+TJA9xC5sFH/wsr+LjDCrDOYN8eM4MjuMFr/MyQ0ZQ+zCVvEHL/u7yAJWGRLF7Wr2OPWTz3JyQ0YQu7BZ7MHL/i6ygFWGBHEcmVXMiQ2nfnIX0es4Yhe2iz142d+F61hlSBaxax+OK3MbsYs0iDd42d9FBrDKkCyOI7MTx5W5idhFWsQbvOzvwnGKVYbkjfPAmq3McWVjTx0QuIHYRZrEvNKgtgjgquBBtW8IkqNLFdETFYG9Jl58mDN6HUDsIm1iDV4l6joBHMUqQ/I4jiwdzBm9RG96+bE7QOwibeIL3v7hHmF/F67yp7s8qJY8HlhLDy6mSKfp2N0tQMrEF7wlYhfuYrprB4I3XczFFERvehC7SLMYVxq8LQK4aNXPmO5agOuE08lEb+nUDwV2I3aRdrEFr1Ls78JNuXU8qGYDfYaH1dJq9Od/xhXEFtNKHSR2kXZxPrTGSgPcY3Z3/QkvkqdPc/5uWk3dxvZZotdOR6UitwqQcvEEb/+wid0eARzD7q49NOfvphrRa6Wj2lPbRtb0jgiQcvEE7yQXTsBBnMxgDfZ33UD0WoXYhVNiCd6cki0COIbprj3Y33UH0WsFYhfOiSV4tcptEMAx7O7ag+PI3EL0JorYhZOiD14unICDglWG7lcEdiB43VON3smR7wtic8yP3RuIXbgo+uDlwgk4SF3yhMAOulRhf9dRJnrNkWVcThGLY9OT3aIADophpYELJ+AY87DaG/5FYIlx9nddZy6nGH/hYUFkiF04L/LgVUrY34VT2N21C+sM2XDm6QNy5rn7BaEjdpEJMUx41RYBHMI6g100E97MGPeDl+gNFbGLzIg2ePuHC8KFE3AME167MOHNFhO9Y08dELSsSOwiS6IN3jIXTsAxJnY7zgjsQOxm08SLD8vJH/5B8FAbmmImu1uJXWRJtMGrFcELp6ieZwT2YJ0huypjx+Xkf/uEeBMvCRrCGgMyKdLgVUpdJ4BD1EU/FdiDCW+2eZMvyamf3MUFFfUjdpFZUT+0xoQXTlFLXhVYZJIJb9aZ6D35w09wbFltxC4yLbrg5YE1uKiXlQZrVLToCYIXUzi2bEHDxC6yLrrg5YE1uIb9XavoibIAM5kTHMyKA3u95yB2AYkyeHlgDa7p5HQGm/DAGuZSPvVDovc11dgdEiDjIgtebliDa1T3KwJ78MAa5mP2ek/819/J+l4vsQvMwIQXQDrxwBpqMHu9o8e+nMXzeoldYJZogrd/uEeUFAQAosADa6jT5CuPZe28Xq0971ZiFzhXNMFb4jgyANHhgTU0orrikIFTHKZjd+UhAXCOiFYaPIIX7plcLLADD6yhGeYUhxP/8juuTnursTsgAM4TSfAqJdywBufo4UsEligRvGiOo9NeYheoIaIJryoI4JrRFf6Ud5EgeUx40SqHpr3ELlCHqE5pYKUBTtLDlwqSp8fZ4UXrHJj2+rGr7yR2gdrCD97+YWIXztIv/qogYRXtl4oWICzVae/Ey49JmihP3zWyZsU+AVBT+MFbrhQEcNWLvyJIFic0IApm2jtW/HJqbmnzY3fvq2tW9AuAuoQfvFw4AYfpF34leENy2N9FlMzVxGbNwVxYYWv4ErtA40IPXqUUJzTAafrJ/06QIE5oQAzMhRU2hi+xCzQniofWegRwGFPeZDHhRZxsCt+J5/9++NWh3xoQAA1TEqb+4R5V1sMCuK77Fcm///MiHWcE8ar8coRrhZGY9p63S+eqD0j70rdInMaevlcmXnjIvHtMcrltsvObRQFQt3CD99PDW5TShwXIALXqZ5J7Dw9Ix638o1cESFqu40I/fN8vHT3vkFznhRIVM1UeLX452C2egegFGhRu8H7m5R1KcgcFyAj1pv93JHf1fazxxMSc0FD55QkBbNLmT3s7VlwXTH3Dil9dHpXxFx/2p7oPi66MzvUSohdoQMjB+8o+Jeo2AbJhRHtqa/5j/26jyqn9gsjpsZJUjp8UwFb5xaslv6gg7b1vD6bAbYsLdf+xJnJLp38oky9/O5jozhO6MxG9QJ1CDV71mVfNOsMWAdwXxK7c3TtkvpJ/8jd3Eb3R814dF++FmhEAWEPlu4MIVvnFQQCrtu5zvt9Erq6MSdkP3SYfihuWit4mN31rSADMK+zgPSpcK4wM8GO3rxq7VUH0qtwXRWlWHCJiYtdEL4BzEL1ADeEdS9Y/bD7IE7twnlbe7tmxa1TWfXVAadnqv2BEEAld8gTAeXolrx6Vr72Pj8HAPMIL3hKxC/cFsfvZlQPzfX9p3d8OEb0RmuQ4MmAeRC+wgPCCV1X4bVw4rVbsVhG90WHCCyxoKnr/7r1bBMA5wgterfisEs6qN3ariN6IeFoALKhXcrlH5cHttwiAs0ILXqVkgwAO0lrf0UjsVlWj10+0oqBl5gxeAHVRomU/0Qu8JrwJr6iCAI7xY3evfG5F09epmeitKE30hqHCdBdoANELzBBi8PLQGtwyHbv90qorvlokekNA8AKNInqBaeEEb/8wsQunhBa7VURvy3hgDWjKVPQ+cP3tAmRYOMFbEk5ogDNCj90qorc1JY4kA5qk/F/ZviAHt+8RIKNCWmnwmPDCCZHFbhXR2zTNSgPQCiWe7CF6kVXhBK+SggApF3nsVhG9zWGlAWgV0YvMCiV4lSiOJEOqxRa7VUQvgGQQvciksE5pYIcXqRV77FYRvY1hhxcIi4nefqIXWRJW8LLDi1RKLHariN66scMLhIxJLzKk9eDlSDKkVOKxW0X01odrhYGwsd6AzGg9eDmSDCnkx+4BK2K3ykTvRGefaBkSnI/pLhAVoheZEMJKA0eSIV2mY3eX2KZvYKQ82bmV6D2fZroLRInohfNaD16OJEOKWBu7VUTv3DyOJAMiRvTCaS0HL0eSIS2sj90qovd8rDQAcZg6veGB931FAMeEcUoDO7ywXmpit6oavaIHBQBipXYTvXBNGMHLDi/sZialo7nbJW1M9L7lq1u1Jwck65jwAjEjeuGW1oL3D4YLAtjMj109qrbKvt4RSanKuvt2ZT56K+zwAvEjeuGO1oK3jQfWYDEHYreK6AWQDBO92x+U/VtYX0SqtRa8ulIQwEYOxW4V0QsgITtlacejRC/SrLXgVaoggG0cjN0qE73iyT0CAHFS0kf0Is1aCl6lhCPJYBctRV1WO12M3aryuvtuF3MtMgDEiehFirV4SoPiBz3sMRW7W+VPeoviuPJbv9qfpejVJR5aA6xA9CKlWtzh5aE1WCJDsVuVtegFYIlq9B789YIAKdHiDi/BCwtkMHariF4AiTDR63lEL1Kj+eDtH+bCCSQvw7FblYnozYdxRw6AkK0hepEWzX8UKXGlMBJG7J7levQqehewFdGLVGj+wwhn8CJJxO55WG8AkBCiF9ZrPng5gxdJIXbnRfQCSAjRC6u18huFBQHiRuzWRPQCSAjRC2s1HbxKqdUCxInYrRvRCyAhRC+s1MqEl4fWEKcRYrcxJnq1p3eLCzryAiA1iF5Yp5Xg5VgyxGVEe8RuMyrrvjrgTPQCSBOiF1ZpLnj7h5nuIi5TsXt375CgKU5Eb14JgNQhemGN5oK3xHQXsSB2Q5L66M1xEC+QUiZ6H5evvY9uQKKa+yiiKkx4ETViN2RB9JZlp2g1Iimjckx4gRTr9X+X5lGiF0lqLni1KggQIV3xdhO74atced8hpWVr6qKXlQYg7YheJKrZ3ydkwovIaOXH7udXHhJEorTub4fSGL2qnbUGIOWIXiSmqY8gSskGASIQxO5nVw4IIpXW6AWQelPRe//2HQLEqMmRiWLCi9ARu/FKXfS2cxYv4IheUfKgPLj9FgFi0uQOL9cKI1zEbjKq0atFimI7VhoAlyi/JfYTvYhLk6c0ELwIj9b6DmI3OSZ6K0pbH72KB9cA1xC9iE3jwculEwiRH7t75XMr9gmSdcVXi9ZHLysNgIuIXsSimQlvQYAQTMduv8AOlkevYqMBcNVU9D5w/e0CRKTxDyEljiRD64hdS9kcvYvaBICzlP+R4QtycPseASLQePDqSkGAFhC7lrM1erleGHCdEk/2EL2IQuMfQZQqCNAkYjclLIze4OIJrhgGXEf0IhJNBC8rDWgOsZsytkYvANcRvQhdwx89/PnKagEaROymlG3R28UeL5ARRC9C1cS4hFvW0BhiN+Usil7O4gUyhehFaJp4aI1jyVA/YtcR09Hr//wfkgSpTs7iBTKG6EUomtnhLQhQB2LXMX70lic7k41ejiYDsojoRcsaC15uWUOd/Ng9QOw6qG9gJMnoVW1MeIGMInrRkkYnvAUBapiO3V0CNyUZvXnFSQ1Adpno7ZcHtn9BgAY19pGDW9ZQA7GbEUlG7+J2AZBpd8gD7/uKAA1oLHhVheDFvIjdjKlGr8ghiZHiaDIAonYTvWhEY8GrVUGAOWhRh4jdDDLR+5b7dmpPDkhMVBd7vAAMohf1a3QZjgkvzmd+W/u07BZkVmXdfbviil7VyYQXQBXRi/rw0Bpa48euHlVbZV/viCDTYote8+Aa5/ECOMtE7/YHZf8WhnKYV0PBq5TiWmG8htjFLHFFr+rmwTUA59gpSzseJXoxH873QXOIXczDRK94co9ESHFSA4DZlPQRvZhPgw+tsdIAIXZRU3ndfbeLuWkvIgQvgDkRvZhHg8eSEbyZp6Woy2onsYtaym/9an9k0cseL4D5EL2YQ/3By7XCmIrdrfInvUUB6hBl9LLHC2Be1eg9+OsFAaSR4D3DkWSZRuyiSVFFr1raIQAwLxO9nkf0IlB/8LaxzpBZxC5aFEX0Bufx5pQAwALWEL0wOKUBCyN2EZLQo9fs8XLNMIDaiF40ELy6UhBkC7GLkIUdvaw1AKgT0Ztx9QevUgVBdhC7iEiY0Ztb3ikAUCeiN8NYacD5iF1ELLToNWsNnMkLoH5Eb0Y1ErwFgfuIXcTERK/nVe6QFrHWAKBBRG8G1R28SqnVArcRu4iZt+5r+7Snd0sLWGsA0ASiN2NYaUDViNZqJ7GLuFXWfXWgpehlrQFAc4jeDGnglAZWGhw2oj1/snt375AACWg1ellrANCkqej92vs2CpzWwCkN3LTmKGIXVmgleoO1Bi6hANCcNf7vFBG9jmtkpYHgdQ+xC6sE0VuWnaLVSEN/YF5JroddXgBN6yV63VZf8PYPE7vuIXZhpcqV9x1SWrY2Gr2sNQBoEdHrsPqC9wzTXdfoireb2IWtSuv+dqjR6DUPrvHwGoAWEb2Oqi9423hgzSVa+bH7+ZWHBLBYU9HLlBdA66ai9/7tOwTO4FiyjAli97MrBwRIgUajl4fXAISkV5Q8KA9uv0XghPqCV1cKgtQjdpFG1ejVIsWaLzYPr63oEgAIgRIt+4leN9QXvEqxw5tyxC7SzERvRem6ojfXu0gAICREryPqXWkgeFNMa30HsYvUu+Krxbqi19y8xnXDAMJD9DqgzgkvwZtWfuzulc+t2CeAC+qM3twKprwAQjUVvQ9cf7sglerc4SV402g6dvsFcEkd0as68xxRBiBsyv/I+gU5uH2PIHXqCl6l1GpBqhC7cFod0Zu7kCkvgNAp8WQP0Zs+HEvmIGIXmVAjeoOLKNjlBRA+ojeFeGjNMcQuMqVG9OYuXCwAEAGiN2XY4XUIsYtMWiB6VXtOchdwLi+ASBC9KVLvKQ0FgdWIXWTaAtGbW7mY29cARIXoTQl2eB1A7AJyNnr935EaOufbuX0NQLSI3hSoHbx/MFwQWIvYBWbwo7c82Xle9AZT3nY+vwcQGaLXcnwESDHt6XuIXWCWvoGRuaI3f/ESAYAIEb0Wqx28bezv2sif7B6Qu1dw4wswlzmil2PKAMTARG+/PLD9CwKrMOFNoSB2P7dilwCY3xzRm1/VzQNsAOJwhzzwvq8IrFE7eFWFI8ksQuwCDahGr8ih4OvmAbaLOJsXQBzUbqLXHrWD1+MMXlsQu0ATTPS+5b6d2pMD5qu53q5gvQEAokf02qKOCa8ieC2gRR0idoHmVdbdt6savflLl7LaACAmRK8N6tnhJXiTZnYQT8tuAdCSs9GbV5zaACBGJnq3Pyj7t9BUCaljwkvwJsqPXT2qtsq+3hEB0LJq9KqlHVw7DCBOO2Vpx6NEbzJqB68meBND7AKRMNErWu81F1KozjYBgFgo6SN6k1EzeJWS5YL4EbtApMpv/Wq//yvg3twb2OcFECOiNxF17PDy0FrsiF0gFiZ6VZvayz4vgFgRvbHj4gnbaCnqstpJ7ALxCKJ3Sfve3IWLBABiY6J3WcfjcvDXC4LIcUqDTaZid6v8SW9RAMTGRG9uxaK9Oa4eBhCvNeJ5jxK90eOhNVsQu0CiqtHLQ2wAYkb0xoBjyWxA7AJWKPd9rV+tWrxX2tn2AhArojdirDQkjdgFrOK94/7+3OuX7OXkBgAxI3ojxBgjScQuYKUgei9aRPQCiFs1etfI4S2C8CwcvH8wXBBEg9gFrOa961B/riu/V8zPVgCIj4neR2Ski+gNERPeJBC7QCp473+oX9rVnUL0AogX0RuyhYN3Efu7oSN2gXT54D/s83/i3ipEL4B4Eb0hWjh4SwRvqIhdIJ1u/NYA0QsgAa9F79c+ImjewsHL8xphGtZa7SR2gZQiegEkYyp6ZaSP6G1ejR3eChPecAxrT22Tu3uHBEB6mejN6av85h0WAIjPGskrorcFCwevx0pDCIhdwCU7vzXk/8q5zX/vmABAfHqJ3uZxSkO0iF3ARUH05oheAHEjeptUY4dXFQTNInYBl+38ZpHoBZCA16L3739DUB8mvNHQuuLdSuwCjguid/Iq/2f8YQGA+ExF7+TkDia99eGUhvBprfzY/fzKQwLAfTsHR+TD39rm/8zfJwAQn16/0x6UthO3EL21LRy8WgqCRkzF7mdXDgiAbPnwt+4QT7iKGECclP8rzn6itzZWGsJD7AJZ95F/7BdduUHY6wUQH6K3DgsGr1KyXFAXYhdA4MOPHOJhNgAxey16D+4QnK/GhFdxDm8dtOi9xC6As84+zCYDAgDxmIpeGdtD9J6PlYYWBbH7Ryv6BQBmCh5m+8fd7PUCiJHyf83ZQ/Sej+BtAbELoCaz1xtcR8yKA4BYEL1z4JSGJhG7AOpWvZltasWBaS+AqBG9szDhbQKxC6BhZq/XrDiId6cQvQCiR/TOQPA2iNgF0JIb/2mfP+1dK6w4AIge0Tut1k1rBcFZxC6AUJhp743/uJYH2gDEgOgVJrx1I3YBhI4H2gDEI/PRO3/w9jN0qCJ2AUQmeKDNnNmr9wnTXgDRyXT0qnm/p3+4R5X1sGQcsQsgNgfft1E89aD/3hoBgGhof9y5V0rqLrnpHzLzSfb8E94zkvlb1rTnT1yIXQBxMdNednsBRMtMevsl731B/v43lGTE/MGbmX8Ec9NaD8jdK+4QAIjbysl+yeXeKFO7vYQvgAio26U08ZWsRO/8wduV3QlvELufW7FbACAJWwfNSQ7HpLJ8rf8r0q3CQ20AIqF2ZSV65w/eUjaDl9gFYI2b/k7kgtLA9C1tB4RpL4DQZSN6OZZsBmIXgHWmpr1FWTG5izUHANGYjt5vfECJ7hcXEbzTtKiDxC4Aa7HmACBSfvSOlx6VA4O9LkYvD60ZWo7KablVAMB2Zs3hxm8NSG7x9GkOHB8JICxqiyzpeMTF6J0/eL1KQbLAj109qrbJvt4RAYC02Hlo+jSH/FXs9wIIjZI+F6M32ysNxC6ANDt3v3ct4QsgFA5Gb3aDl9gF4Irzwlf730D4AmjBzOg9vEXSboEdXuXusWRajhG7AJxzNnxLW8XzthG+AFpiondpx3+Rka41aY/ehSa8bgavid0KsQvAYSZ8P/JPg4QvgBCs8X8deSTt0ZutlYZq7P5xb1EAwHWEL4BwpD56sxO8xC6ArDovfHm4DUDDUh292TiHl9gFgBnhy6kOAJqS2uidP3i1FMQFxC4AnGvO48yCCyyIXwC1pDJ63V5pIHYBYH7nhG/+qhlXFhO+ABaSuuh1N3iJXQCoTzV8zZXFleVrg/DV+rAQvgDml6rodTN4iV0AaM5NfydB+Ho92ySnZ15bTPwCmC010Ttv8ColyyWNiF0AaJ0J353fGjq758u6A4C5vRa9X/uI2GresxjUZ141v521RdKE2AWA6JgJzsttW0TldvkfPW6e/laXzvQB0LxjUtE3ivQcDT5htoxLKw3DWqsbiF0AiMjsY82Y+gJ4zRrJq0dERvpsnPS6MuEd1p4/2b27d0gAAPFh6gvgXMP+pPc9tk16XZjwErsAkJTq1PfGd/pT38kLZp3wwOQXyJ5eGye9C014j/pfbBS7EbsAYBsz9R3pKohUPiSeus3/Fv99pr5Axlg16Z0/eD/96jH/ewtiL2IXAGx37srDtUL8Alky7P9sv0PKyw8kHb1pDV6tK94N8vmVhwQAkA7EL5BF2v9Zvjvp6E1j8GqtvFvlsysHBACQTsQvkCWJR2/agpfYBQDXEL9AFiQavWkKXmIXAFx3Nn7VDv/tgyJnPw4RwED6TUWvWnxAdsa7lbrQKQ1WHSfjx+5uYhcAMsQcadQ+Yk4Luk4q8iE/gLdMfw/xC6SXlpzsFVm8N87oTUXwatF75Y9W9AsAIJuqR515Ff8dM/nV5sseIX6BNIo9eq0PXmIXAHCemasPItf6X1bPjSeAgXSINXqtDl5iFwBQ03nT3+DSpML09xLAgL1ii15rg5fYBQA0hd1fIE1iid65f/L3a1Hl4cSCl9gFAITm3PWHKwlgwDqRR+/cP9n/YLig2vUxSQCxCwCIjO4XOTTYI+W2jQQwYJVIo9eq4CV2AQCxmhnAkvOnwPpa/yPjxukTIAwiGIhPZNFrTfASuwAAK1RXINrUBvHUdcJDcECcIoleK4KX2AUAWKt6CkSlNDUFPncNwiCCgXBNRW9J3SU3/UMoz5QlHrzELgAgdWZPgbUucBYwEDa9T9o775QP/qeWo3fun5Sf8IO3Lfrg1Z7/f+TuFXcIAABpNnsXOOdPgVmFAEKgB/zovbXV6J3nWLLhjaqsj0qEtPb/D3xuxW4BAMBFc0XwuZNggxAGamo9euf+ifbp4S1K6cMSEWIXAJBJMyPYrENUTPzq1ewEA7W0Fr2xBy+xCwDALNXb4SpeQXR+I9NgYC5+Q+blVvnQu7So/kb+wHiDl9gFAKBO51ySoXvOnhAh0kMII7O0HJXTk++RW7YMNxK9sQWvP38+LH90wTYBAADNmx3C80+EDWIY7mkieuMJXv9vTI+qbbKvd0QAAEA0qqsRZT+E8+bINFkjwbnB59weZxDCSLcGozf64CV2AQBIlpkKf92fCuv2wtk94WBNIrhEoyCvHZ9WRRDDflPRu012DdZszGiDl9gFAMB+c02Glbpsak3CxPA502GDIIYl9IBcUNotWwcXfNXcP2A/4wevtBi8xC4AAOk3ezqcy62eEcQ9c6xLGAQx4qLF87bJR/5pcKEXtc35rV7F/ICWFv7Sx4hdAAAcMLUfaT6eD02/nW/mhFirQrAmUV2ZCE6VmHNKHPzZBWiN8n+87fC/HFzoRW0SNhO7FWIXAIDMuOnvzP8OLfiaw1tMNhek3DYVw7MnxYQxmqZW13rF3MHbnh+SShMXWVRj9497iwIAAFA1tWNZnH6bW/XINRO/M8O4onolp/0wnn64bu4H7aqI46xRennNl8z7HZ95dVjMD7h6EbsAACAus+M4+DZVXadY7hfO8nMD2UyR1XxdQySnmdb75MPfumOhl8y70qBF36NE7ZG6/kLELgAAiNFru8XmrVjXH1Ndq5D2nmDf2EyQvVzP9MRYgimyieKpFYt6Qvns340gKX6y6kO1XrTgvyB/yvu4/0WfLPyXIXYBAIC75pomV2O5zZ8km5WL6lT5vGAOFOr7CxHODdNyUD78jzfUetmCD63pNj9ky94ef9J7m5z/L0Fr80RcRd1K7AIAAGc1M02ebWY0G9VwDr5PTb3/WiBPT5uDb3wtoM95TV2T5/m4Eta/lHzuznpeWN//4U8MF6TN2+W//Fr/H/CIeHJcct7X5Y8uHBQAAAAk5+yqxrSZMW1Ug9qoTqSrzk6mq6+dYxo9M8SnXtRKbDfivGHrjPcPSX7yVtlR+5a1uf5EAAAAQGNmR/dZ0/vSc6muhcznvNAO9nWL0lH6er2hCwAAAAAAAAAAAAAAAAAAAAAAAAAAAAAAAAAAAADT/n9aOnKUXMilYwAAAABJRU5ErkJggg==;labelPosition=center;align=center;" vertex="1" parent="1">
          <mxGeometry x="180.00000000000003" y="715" width="80" height="80" as="geometry" />
        </mxCell>
        <mxCell id="xLPijeGfnM_CjZ15K6nw-2149" style="edgeStyle=orthogonalEdgeStyle;rounded=0;orthogonalLoop=1;jettySize=auto;html=1;shape=flexArrow;dashed=1;" edge="1" parent="1" source="xLPijeGfnM_CjZ15K6nw-2146" target="xLPijeGfnM_CjZ15K6nw-2147">
          <mxGeometry relative="1" as="geometry" />
        </mxCell>
        <mxCell id="xLPijeGfnM_CjZ15K6nw-2146" value="&lt;span style=&quot;background-color: rgb(255, 255, 255);&quot;&gt;flow_riskthinking_stock_market.py&lt;/span&gt;" style="outlineConnect=0;dashed=0;verticalLabelPosition=top;verticalAlign=bottom;align=center;html=1;shape=mxgraph.aws3.android;fillColor=#FFD44F;gradientColor=none;labelPosition=center;" vertex="1" parent="1">
          <mxGeometry x="606.5" y="713" width="73.5" height="84" as="geometry" />
        </mxCell>
        <mxCell id="xLPijeGfnM_CjZ15K6nw-2157" style="edgeStyle=orthogonalEdgeStyle;rounded=0;orthogonalLoop=1;jettySize=auto;html=1;shape=flexArrow;dashed=1;" edge="1" parent="1" source="xLPijeGfnM_CjZ15K6nw-2147">
          <mxGeometry relative="1" as="geometry">
            <mxPoint x="1340" y="755" as="targetPoint" />
            <Array as="points">
              <mxPoint x="1383" y="755" />
            </Array>
          </mxGeometry>
        </mxCell>
        <mxCell id="xLPijeGfnM_CjZ15K6nw-2147" value="&lt;span style=&quot;background-color: rgb(255, 255, 255);&quot;&gt;transmute.py&lt;/span&gt;" style="outlineConnect=0;dashed=0;verticalLabelPosition=top;verticalAlign=bottom;align=center;html=1;shape=mxgraph.aws3.android;fillColor=#FFD44F;gradientColor=none;labelPosition=center;" vertex="1" parent="1">
          <mxGeometry x="990.75" y="713" width="73.5" height="84" as="geometry" />
        </mxCell>
        <mxCell id="xLPijeGfnM_CjZ15K6nw-2150" value="&lt;span style=&quot;background-color: rgb(255, 255, 255);&quot;&gt;extraction/&lt;/span&gt;" style="outlineConnect=0;dashed=0;verticalLabelPosition=middle;verticalAlign=middle;align=left;html=1;shape=mxgraph.aws3.android;fillColor=#FFD44F;gradientColor=none;labelPosition=right;" vertex="1" parent="1">
          <mxGeometry x="1382.87" y="680" width="24.26" height="34" as="geometry" />
        </mxCell>
        <mxCell id="xLPijeGfnM_CjZ15K6nw-2153" value="&lt;span style=&quot;background-color: rgb(255, 255, 255);&quot;&gt;read/&lt;/span&gt;" style="outlineConnect=0;dashed=0;verticalLabelPosition=middle;verticalAlign=middle;align=left;html=1;shape=mxgraph.aws3.android;fillColor=#FFD44F;gradientColor=none;labelPosition=right;" vertex="1" parent="1">
          <mxGeometry x="1382.87" y="719" width="24.26" height="34" as="geometry" />
        </mxCell>
        <mxCell id="xLPijeGfnM_CjZ15K6nw-2154" value="&lt;span style=&quot;background-color: rgb(255, 255, 255);&quot;&gt;mutate/&lt;/span&gt;" style="outlineConnect=0;dashed=0;verticalLabelPosition=middle;verticalAlign=middle;align=left;html=1;shape=mxgraph.aws3.android;fillColor=#FFD44F;gradientColor=none;labelPosition=right;" vertex="1" parent="1">
          <mxGeometry x="1382.87" y="760" width="24.26" height="34" as="geometry" />
        </mxCell>
        <mxCell id="xLPijeGfnM_CjZ15K6nw-2155" value="&lt;span style=&quot;background-color: rgb(255, 255, 255);&quot;&gt;spawn/&lt;/span&gt;" style="outlineConnect=0;dashed=0;verticalLabelPosition=middle;verticalAlign=middle;align=left;html=1;shape=mxgraph.aws3.android;fillColor=#FFD44F;gradientColor=none;labelPosition=right;" vertex="1" parent="1">
          <mxGeometry x="1382.87" y="796" width="24.26" height="34" as="geometry" />
        </mxCell>
      </root>
    </mxGraphModel>
  </diagram>
</mxfile>
